<mxfile host="app.diagrams.net" modified="2023-04-09T11:35:17.065Z" agent="Mozilla/5.0 (Windows NT 10.0; Win64; x64) AppleWebKit/537.36 (KHTML, like Gecko) Chrome/110.0.0.0 YaBrowser/23.3.0.2246 Yowser/2.5 Safari/537.36" etag="97SV3pz5qQwHt-tHVH9W" version="21.1.4" type="github">
  <diagram name="Страница 1" id="ov523FjT3mJpRu71DV2n">
    <mxGraphModel dx="6808" dy="3472" grid="1" gridSize="10" guides="1" tooltips="1" connect="1" arrows="1" fold="1" page="1" pageScale="1" pageWidth="827" pageHeight="1169" background="none" math="0" shadow="0">
      <root>
        <mxCell id="0" />
        <mxCell id="1" parent="0" />
        <mxCell id="zPUTQCQw_UNsr4DKGTQt-1" value="Depatment" style="shape=table;startSize=30;container=1;collapsible=1;childLayout=tableLayout;fixedRows=1;rowLines=0;fontStyle=1;align=center;resizeLast=1;html=1;" parent="1" vertex="1">
          <mxGeometry x="-110" y="170" width="180" height="120" as="geometry" />
        </mxCell>
        <mxCell id="zPUTQCQw_UNsr4DKGTQt-2" value="" style="shape=tableRow;horizontal=0;startSize=0;swimlaneHead=0;swimlaneBody=0;fillColor=none;collapsible=0;dropTarget=0;points=[[0,0.5],[1,0.5]];portConstraint=eastwest;top=0;left=0;right=0;bottom=1;" parent="zPUTQCQw_UNsr4DKGTQt-1" vertex="1">
          <mxGeometry y="30" width="180" height="30" as="geometry" />
        </mxCell>
        <mxCell id="zPUTQCQw_UNsr4DKGTQt-3" value="PK" style="shape=partialRectangle;connectable=0;fillColor=none;top=0;left=0;bottom=0;right=0;fontStyle=1;overflow=hidden;whiteSpace=wrap;html=1;" parent="zPUTQCQw_UNsr4DKGTQt-2" vertex="1">
          <mxGeometry width="30" height="30" as="geometry">
            <mxRectangle width="30" height="30" as="alternateBounds" />
          </mxGeometry>
        </mxCell>
        <mxCell id="zPUTQCQw_UNsr4DKGTQt-4" value="department_id" style="shape=partialRectangle;connectable=0;fillColor=none;top=0;left=0;bottom=0;right=0;align=left;spacingLeft=6;fontStyle=5;overflow=hidden;whiteSpace=wrap;html=1;" parent="zPUTQCQw_UNsr4DKGTQt-2" vertex="1">
          <mxGeometry x="30" width="150" height="30" as="geometry">
            <mxRectangle width="150" height="30" as="alternateBounds" />
          </mxGeometry>
        </mxCell>
        <mxCell id="zPUTQCQw_UNsr4DKGTQt-5" value="" style="shape=tableRow;horizontal=0;startSize=0;swimlaneHead=0;swimlaneBody=0;fillColor=none;collapsible=0;dropTarget=0;points=[[0,0.5],[1,0.5]];portConstraint=eastwest;top=0;left=0;right=0;bottom=0;" parent="zPUTQCQw_UNsr4DKGTQt-1" vertex="1">
          <mxGeometry y="60" width="180" height="30" as="geometry" />
        </mxCell>
        <mxCell id="zPUTQCQw_UNsr4DKGTQt-6" value="" style="shape=partialRectangle;connectable=0;fillColor=none;top=0;left=0;bottom=0;right=0;editable=1;overflow=hidden;whiteSpace=wrap;html=1;" parent="zPUTQCQw_UNsr4DKGTQt-5" vertex="1">
          <mxGeometry width="30" height="30" as="geometry">
            <mxRectangle width="30" height="30" as="alternateBounds" />
          </mxGeometry>
        </mxCell>
        <mxCell id="zPUTQCQw_UNsr4DKGTQt-7" value="name" style="shape=partialRectangle;connectable=0;fillColor=none;top=0;left=0;bottom=0;right=0;align=left;spacingLeft=6;overflow=hidden;whiteSpace=wrap;html=1;" parent="zPUTQCQw_UNsr4DKGTQt-5" vertex="1">
          <mxGeometry x="30" width="150" height="30" as="geometry">
            <mxRectangle width="150" height="30" as="alternateBounds" />
          </mxGeometry>
        </mxCell>
        <mxCell id="ha73NsI9D_0XP6oYM-8j-9" value="" style="shape=tableRow;horizontal=0;startSize=0;swimlaneHead=0;swimlaneBody=0;fillColor=none;collapsible=0;dropTarget=0;points=[[0,0.5],[1,0.5]];portConstraint=eastwest;top=0;left=0;right=0;bottom=0;fontFamily=Helvetica;fontSize=11;fontColor=default;" vertex="1" parent="zPUTQCQw_UNsr4DKGTQt-1">
          <mxGeometry y="90" width="180" height="30" as="geometry" />
        </mxCell>
        <mxCell id="ha73NsI9D_0XP6oYM-8j-10" value="FK" style="shape=partialRectangle;connectable=0;fillColor=none;top=0;left=0;bottom=0;right=0;fontStyle=0;overflow=hidden;whiteSpace=wrap;html=1;fontFamily=Helvetica;fontSize=11;fontColor=default;" vertex="1" parent="ha73NsI9D_0XP6oYM-8j-9">
          <mxGeometry width="30" height="30" as="geometry">
            <mxRectangle width="30" height="30" as="alternateBounds" />
          </mxGeometry>
        </mxCell>
        <mxCell id="ha73NsI9D_0XP6oYM-8j-11" value="location_id" style="shape=partialRectangle;connectable=0;fillColor=none;top=0;left=0;bottom=0;right=0;align=left;spacingLeft=6;fontStyle=0;overflow=hidden;whiteSpace=wrap;html=1;fontFamily=Helvetica;fontSize=11;fontColor=default;" vertex="1" parent="ha73NsI9D_0XP6oYM-8j-9">
          <mxGeometry x="30" width="150" height="30" as="geometry">
            <mxRectangle width="150" height="30" as="alternateBounds" />
          </mxGeometry>
        </mxCell>
        <mxCell id="zPUTQCQw_UNsr4DKGTQt-15" value="Employee" style="shape=table;startSize=30;container=1;collapsible=1;childLayout=tableLayout;fixedRows=1;rowLines=0;fontStyle=1;align=center;resizeLast=1;html=1;" parent="1" vertex="1">
          <mxGeometry x="350" y="-160" width="180" height="420" as="geometry" />
        </mxCell>
        <mxCell id="zPUTQCQw_UNsr4DKGTQt-16" value="" style="shape=tableRow;horizontal=0;startSize=0;swimlaneHead=0;swimlaneBody=0;fillColor=none;collapsible=0;dropTarget=0;points=[[0,0.5],[1,0.5]];portConstraint=eastwest;top=0;left=0;right=0;bottom=1;" parent="zPUTQCQw_UNsr4DKGTQt-15" vertex="1">
          <mxGeometry y="30" width="180" height="30" as="geometry" />
        </mxCell>
        <mxCell id="zPUTQCQw_UNsr4DKGTQt-17" value="PK" style="shape=partialRectangle;connectable=0;fillColor=none;top=0;left=0;bottom=0;right=0;fontStyle=1;overflow=hidden;whiteSpace=wrap;html=1;" parent="zPUTQCQw_UNsr4DKGTQt-16" vertex="1">
          <mxGeometry width="30" height="30" as="geometry">
            <mxRectangle width="30" height="30" as="alternateBounds" />
          </mxGeometry>
        </mxCell>
        <mxCell id="zPUTQCQw_UNsr4DKGTQt-18" value="employee_id" style="shape=partialRectangle;connectable=0;fillColor=none;top=0;left=0;bottom=0;right=0;align=left;spacingLeft=6;fontStyle=5;overflow=hidden;whiteSpace=wrap;html=1;" parent="zPUTQCQw_UNsr4DKGTQt-16" vertex="1">
          <mxGeometry x="30" width="150" height="30" as="geometry">
            <mxRectangle width="150" height="30" as="alternateBounds" />
          </mxGeometry>
        </mxCell>
        <mxCell id="zPUTQCQw_UNsr4DKGTQt-221" value="" style="shape=tableRow;horizontal=0;startSize=0;swimlaneHead=0;swimlaneBody=0;fillColor=none;collapsible=0;dropTarget=0;points=[[0,0.5],[1,0.5]];portConstraint=eastwest;top=0;left=0;right=0;bottom=0;" parent="zPUTQCQw_UNsr4DKGTQt-15" vertex="1">
          <mxGeometry y="60" width="180" height="30" as="geometry" />
        </mxCell>
        <mxCell id="zPUTQCQw_UNsr4DKGTQt-222" value="FK" style="shape=partialRectangle;connectable=0;fillColor=none;top=0;left=0;bottom=0;right=0;fontStyle=0;overflow=hidden;whiteSpace=wrap;html=1;" parent="zPUTQCQw_UNsr4DKGTQt-221" vertex="1">
          <mxGeometry width="30" height="30" as="geometry">
            <mxRectangle width="30" height="30" as="alternateBounds" />
          </mxGeometry>
        </mxCell>
        <mxCell id="zPUTQCQw_UNsr4DKGTQt-223" value="department_id" style="shape=partialRectangle;connectable=0;fillColor=none;top=0;left=0;bottom=0;right=0;align=left;spacingLeft=6;fontStyle=0;overflow=hidden;whiteSpace=wrap;html=1;" parent="zPUTQCQw_UNsr4DKGTQt-221" vertex="1">
          <mxGeometry x="30" width="150" height="30" as="geometry">
            <mxRectangle width="150" height="30" as="alternateBounds" />
          </mxGeometry>
        </mxCell>
        <mxCell id="zPUTQCQw_UNsr4DKGTQt-19" value="" style="shape=tableRow;horizontal=0;startSize=0;swimlaneHead=0;swimlaneBody=0;fillColor=none;collapsible=0;dropTarget=0;points=[[0,0.5],[1,0.5]];portConstraint=eastwest;top=0;left=0;right=0;bottom=0;" parent="zPUTQCQw_UNsr4DKGTQt-15" vertex="1">
          <mxGeometry y="90" width="180" height="30" as="geometry" />
        </mxCell>
        <mxCell id="zPUTQCQw_UNsr4DKGTQt-20" value="" style="shape=partialRectangle;connectable=0;fillColor=none;top=0;left=0;bottom=0;right=0;editable=1;overflow=hidden;whiteSpace=wrap;html=1;" parent="zPUTQCQw_UNsr4DKGTQt-19" vertex="1">
          <mxGeometry width="30" height="30" as="geometry">
            <mxRectangle width="30" height="30" as="alternateBounds" />
          </mxGeometry>
        </mxCell>
        <mxCell id="zPUTQCQw_UNsr4DKGTQt-21" value="first_name" style="shape=partialRectangle;connectable=0;fillColor=none;top=0;left=0;bottom=0;right=0;align=left;spacingLeft=6;overflow=hidden;whiteSpace=wrap;html=1;" parent="zPUTQCQw_UNsr4DKGTQt-19" vertex="1">
          <mxGeometry x="30" width="150" height="30" as="geometry">
            <mxRectangle width="150" height="30" as="alternateBounds" />
          </mxGeometry>
        </mxCell>
        <mxCell id="zPUTQCQw_UNsr4DKGTQt-22" value="" style="shape=tableRow;horizontal=0;startSize=0;swimlaneHead=0;swimlaneBody=0;fillColor=none;collapsible=0;dropTarget=0;points=[[0,0.5],[1,0.5]];portConstraint=eastwest;top=0;left=0;right=0;bottom=0;" parent="zPUTQCQw_UNsr4DKGTQt-15" vertex="1">
          <mxGeometry y="120" width="180" height="30" as="geometry" />
        </mxCell>
        <mxCell id="zPUTQCQw_UNsr4DKGTQt-23" value="" style="shape=partialRectangle;connectable=0;fillColor=none;top=0;left=0;bottom=0;right=0;editable=1;overflow=hidden;whiteSpace=wrap;html=1;" parent="zPUTQCQw_UNsr4DKGTQt-22" vertex="1">
          <mxGeometry width="30" height="30" as="geometry">
            <mxRectangle width="30" height="30" as="alternateBounds" />
          </mxGeometry>
        </mxCell>
        <mxCell id="zPUTQCQw_UNsr4DKGTQt-24" value="second_name" style="shape=partialRectangle;connectable=0;fillColor=none;top=0;left=0;bottom=0;right=0;align=left;spacingLeft=6;overflow=hidden;whiteSpace=wrap;html=1;" parent="zPUTQCQw_UNsr4DKGTQt-22" vertex="1">
          <mxGeometry x="30" width="150" height="30" as="geometry">
            <mxRectangle width="150" height="30" as="alternateBounds" />
          </mxGeometry>
        </mxCell>
        <mxCell id="zPUTQCQw_UNsr4DKGTQt-25" value="" style="shape=tableRow;horizontal=0;startSize=0;swimlaneHead=0;swimlaneBody=0;fillColor=none;collapsible=0;dropTarget=0;points=[[0,0.5],[1,0.5]];portConstraint=eastwest;top=0;left=0;right=0;bottom=0;" parent="zPUTQCQw_UNsr4DKGTQt-15" vertex="1">
          <mxGeometry y="150" width="180" height="30" as="geometry" />
        </mxCell>
        <mxCell id="zPUTQCQw_UNsr4DKGTQt-26" value="" style="shape=partialRectangle;connectable=0;fillColor=none;top=0;left=0;bottom=0;right=0;editable=1;overflow=hidden;whiteSpace=wrap;html=1;" parent="zPUTQCQw_UNsr4DKGTQt-25" vertex="1">
          <mxGeometry width="30" height="30" as="geometry">
            <mxRectangle width="30" height="30" as="alternateBounds" />
          </mxGeometry>
        </mxCell>
        <mxCell id="zPUTQCQw_UNsr4DKGTQt-27" value="email" style="shape=partialRectangle;connectable=0;fillColor=none;top=0;left=0;bottom=0;right=0;align=left;spacingLeft=6;overflow=hidden;whiteSpace=wrap;html=1;" parent="zPUTQCQw_UNsr4DKGTQt-25" vertex="1">
          <mxGeometry x="30" width="150" height="30" as="geometry">
            <mxRectangle width="150" height="30" as="alternateBounds" />
          </mxGeometry>
        </mxCell>
        <mxCell id="zPUTQCQw_UNsr4DKGTQt-43" style="shape=tableRow;horizontal=0;startSize=0;swimlaneHead=0;swimlaneBody=0;fillColor=none;collapsible=0;dropTarget=0;points=[[0,0.5],[1,0.5]];portConstraint=eastwest;top=0;left=0;right=0;bottom=0;" parent="zPUTQCQw_UNsr4DKGTQt-15" vertex="1">
          <mxGeometry y="180" width="180" height="30" as="geometry" />
        </mxCell>
        <mxCell id="zPUTQCQw_UNsr4DKGTQt-44" style="shape=partialRectangle;connectable=0;fillColor=none;top=0;left=0;bottom=0;right=0;editable=1;overflow=hidden;whiteSpace=wrap;html=1;" parent="zPUTQCQw_UNsr4DKGTQt-43" vertex="1">
          <mxGeometry width="30" height="30" as="geometry">
            <mxRectangle width="30" height="30" as="alternateBounds" />
          </mxGeometry>
        </mxCell>
        <mxCell id="zPUTQCQw_UNsr4DKGTQt-45" value="phone" style="shape=partialRectangle;connectable=0;fillColor=none;top=0;left=0;bottom=0;right=0;align=left;spacingLeft=6;overflow=hidden;whiteSpace=wrap;html=1;" parent="zPUTQCQw_UNsr4DKGTQt-43" vertex="1">
          <mxGeometry x="30" width="150" height="30" as="geometry">
            <mxRectangle width="150" height="30" as="alternateBounds" />
          </mxGeometry>
        </mxCell>
        <mxCell id="zPUTQCQw_UNsr4DKGTQt-40" style="shape=tableRow;horizontal=0;startSize=0;swimlaneHead=0;swimlaneBody=0;fillColor=none;collapsible=0;dropTarget=0;points=[[0,0.5],[1,0.5]];portConstraint=eastwest;top=0;left=0;right=0;bottom=0;" parent="zPUTQCQw_UNsr4DKGTQt-15" vertex="1">
          <mxGeometry y="210" width="180" height="30" as="geometry" />
        </mxCell>
        <mxCell id="zPUTQCQw_UNsr4DKGTQt-41" style="shape=partialRectangle;connectable=0;fillColor=none;top=0;left=0;bottom=0;right=0;editable=1;overflow=hidden;whiteSpace=wrap;html=1;" parent="zPUTQCQw_UNsr4DKGTQt-40" vertex="1">
          <mxGeometry width="30" height="30" as="geometry">
            <mxRectangle width="30" height="30" as="alternateBounds" />
          </mxGeometry>
        </mxCell>
        <mxCell id="zPUTQCQw_UNsr4DKGTQt-42" value="hire_date" style="shape=partialRectangle;connectable=0;fillColor=none;top=0;left=0;bottom=0;right=0;align=left;spacingLeft=6;overflow=hidden;whiteSpace=wrap;html=1;" parent="zPUTQCQw_UNsr4DKGTQt-40" vertex="1">
          <mxGeometry x="30" width="150" height="30" as="geometry">
            <mxRectangle width="150" height="30" as="alternateBounds" />
          </mxGeometry>
        </mxCell>
        <mxCell id="zPUTQCQw_UNsr4DKGTQt-46" value="" style="shape=tableRow;horizontal=0;startSize=0;swimlaneHead=0;swimlaneBody=0;fillColor=none;collapsible=0;dropTarget=0;points=[[0,0.5],[1,0.5]];portConstraint=eastwest;top=0;left=0;right=0;bottom=0;" parent="zPUTQCQw_UNsr4DKGTQt-15" vertex="1">
          <mxGeometry y="240" width="180" height="30" as="geometry" />
        </mxCell>
        <mxCell id="zPUTQCQw_UNsr4DKGTQt-47" value="FK" style="shape=partialRectangle;connectable=0;fillColor=none;top=0;left=0;bottom=0;right=0;fontStyle=0;overflow=hidden;whiteSpace=wrap;html=1;" parent="zPUTQCQw_UNsr4DKGTQt-46" vertex="1">
          <mxGeometry width="30" height="30" as="geometry">
            <mxRectangle width="30" height="30" as="alternateBounds" />
          </mxGeometry>
        </mxCell>
        <mxCell id="zPUTQCQw_UNsr4DKGTQt-48" value="manager_id" style="shape=partialRectangle;connectable=0;fillColor=none;top=0;left=0;bottom=0;right=0;align=left;spacingLeft=6;fontStyle=0;overflow=hidden;whiteSpace=wrap;html=1;" parent="zPUTQCQw_UNsr4DKGTQt-46" vertex="1">
          <mxGeometry x="30" width="150" height="30" as="geometry">
            <mxRectangle width="150" height="30" as="alternateBounds" />
          </mxGeometry>
        </mxCell>
        <mxCell id="zPUTQCQw_UNsr4DKGTQt-37" style="shape=tableRow;horizontal=0;startSize=0;swimlaneHead=0;swimlaneBody=0;fillColor=none;collapsible=0;dropTarget=0;points=[[0,0.5],[1,0.5]];portConstraint=eastwest;top=0;left=0;right=0;bottom=0;" parent="zPUTQCQw_UNsr4DKGTQt-15" vertex="1">
          <mxGeometry y="270" width="180" height="30" as="geometry" />
        </mxCell>
        <mxCell id="zPUTQCQw_UNsr4DKGTQt-38" style="shape=partialRectangle;connectable=0;fillColor=none;top=0;left=0;bottom=0;right=0;editable=1;overflow=hidden;whiteSpace=wrap;html=1;" parent="zPUTQCQw_UNsr4DKGTQt-37" vertex="1">
          <mxGeometry width="30" height="30" as="geometry">
            <mxRectangle width="30" height="30" as="alternateBounds" />
          </mxGeometry>
        </mxCell>
        <mxCell id="zPUTQCQw_UNsr4DKGTQt-39" value="salary" style="shape=partialRectangle;connectable=0;fillColor=none;top=0;left=0;bottom=0;right=0;align=left;spacingLeft=6;overflow=hidden;whiteSpace=wrap;html=1;" parent="zPUTQCQw_UNsr4DKGTQt-37" vertex="1">
          <mxGeometry x="30" width="150" height="30" as="geometry">
            <mxRectangle width="150" height="30" as="alternateBounds" />
          </mxGeometry>
        </mxCell>
        <mxCell id="zPUTQCQw_UNsr4DKGTQt-34" style="shape=tableRow;horizontal=0;startSize=0;swimlaneHead=0;swimlaneBody=0;fillColor=none;collapsible=0;dropTarget=0;points=[[0,0.5],[1,0.5]];portConstraint=eastwest;top=0;left=0;right=0;bottom=0;" parent="zPUTQCQw_UNsr4DKGTQt-15" vertex="1">
          <mxGeometry y="300" width="180" height="30" as="geometry" />
        </mxCell>
        <mxCell id="zPUTQCQw_UNsr4DKGTQt-35" style="shape=partialRectangle;connectable=0;fillColor=none;top=0;left=0;bottom=0;right=0;editable=1;overflow=hidden;whiteSpace=wrap;html=1;" parent="zPUTQCQw_UNsr4DKGTQt-34" vertex="1">
          <mxGeometry width="30" height="30" as="geometry">
            <mxRectangle width="30" height="30" as="alternateBounds" />
          </mxGeometry>
        </mxCell>
        <mxCell id="zPUTQCQw_UNsr4DKGTQt-36" value="birth_date" style="shape=partialRectangle;connectable=0;fillColor=none;top=0;left=0;bottom=0;right=0;align=left;spacingLeft=6;overflow=hidden;whiteSpace=wrap;html=1;" parent="zPUTQCQw_UNsr4DKGTQt-34" vertex="1">
          <mxGeometry x="30" width="150" height="30" as="geometry">
            <mxRectangle width="150" height="30" as="alternateBounds" />
          </mxGeometry>
        </mxCell>
        <mxCell id="zPUTQCQw_UNsr4DKGTQt-391" value="" style="shape=tableRow;horizontal=0;startSize=0;swimlaneHead=0;swimlaneBody=0;fillColor=none;collapsible=0;dropTarget=0;points=[[0,0.5],[1,0.5]];portConstraint=eastwest;top=0;left=0;right=0;bottom=0;" parent="zPUTQCQw_UNsr4DKGTQt-15" vertex="1">
          <mxGeometry y="330" width="180" height="30" as="geometry" />
        </mxCell>
        <mxCell id="zPUTQCQw_UNsr4DKGTQt-392" value="FK" style="shape=partialRectangle;connectable=0;fillColor=none;top=0;left=0;bottom=0;right=0;fontStyle=0;overflow=hidden;whiteSpace=wrap;html=1;" parent="zPUTQCQw_UNsr4DKGTQt-391" vertex="1">
          <mxGeometry width="30" height="30" as="geometry">
            <mxRectangle width="30" height="30" as="alternateBounds" />
          </mxGeometry>
        </mxCell>
        <mxCell id="zPUTQCQw_UNsr4DKGTQt-393" value="order_id" style="shape=partialRectangle;connectable=0;fillColor=none;top=0;left=0;bottom=0;right=0;align=left;spacingLeft=6;fontStyle=0;overflow=hidden;whiteSpace=wrap;html=1;" parent="zPUTQCQw_UNsr4DKGTQt-391" vertex="1">
          <mxGeometry x="30" width="150" height="30" as="geometry">
            <mxRectangle width="150" height="30" as="alternateBounds" />
          </mxGeometry>
        </mxCell>
        <mxCell id="zPUTQCQw_UNsr4DKGTQt-31" style="shape=tableRow;horizontal=0;startSize=0;swimlaneHead=0;swimlaneBody=0;fillColor=none;collapsible=0;dropTarget=0;points=[[0,0.5],[1,0.5]];portConstraint=eastwest;top=0;left=0;right=0;bottom=0;" parent="zPUTQCQw_UNsr4DKGTQt-15" vertex="1">
          <mxGeometry y="360" width="180" height="30" as="geometry" />
        </mxCell>
        <mxCell id="zPUTQCQw_UNsr4DKGTQt-32" style="shape=partialRectangle;connectable=0;fillColor=none;top=0;left=0;bottom=0;right=0;editable=1;overflow=hidden;whiteSpace=wrap;html=1;" parent="zPUTQCQw_UNsr4DKGTQt-31" vertex="1">
          <mxGeometry width="30" height="30" as="geometry">
            <mxRectangle width="30" height="30" as="alternateBounds" />
          </mxGeometry>
        </mxCell>
        <mxCell id="zPUTQCQw_UNsr4DKGTQt-33" value="gender" style="shape=partialRectangle;connectable=0;fillColor=none;top=0;left=0;bottom=0;right=0;align=left;spacingLeft=6;overflow=hidden;whiteSpace=wrap;html=1;" parent="zPUTQCQw_UNsr4DKGTQt-31" vertex="1">
          <mxGeometry x="30" width="150" height="30" as="geometry">
            <mxRectangle width="150" height="30" as="alternateBounds" />
          </mxGeometry>
        </mxCell>
        <mxCell id="zPUTQCQw_UNsr4DKGTQt-49" style="shape=tableRow;horizontal=0;startSize=0;swimlaneHead=0;swimlaneBody=0;fillColor=none;collapsible=0;dropTarget=0;points=[[0,0.5],[1,0.5]];portConstraint=eastwest;top=0;left=0;right=0;bottom=0;" parent="zPUTQCQw_UNsr4DKGTQt-15" vertex="1">
          <mxGeometry y="390" width="180" height="30" as="geometry" />
        </mxCell>
        <mxCell id="zPUTQCQw_UNsr4DKGTQt-50" style="shape=partialRectangle;connectable=0;fillColor=none;top=0;left=0;bottom=0;right=0;editable=1;overflow=hidden;whiteSpace=wrap;html=1;" parent="zPUTQCQw_UNsr4DKGTQt-49" vertex="1">
          <mxGeometry width="30" height="30" as="geometry">
            <mxRectangle width="30" height="30" as="alternateBounds" />
          </mxGeometry>
        </mxCell>
        <mxCell id="zPUTQCQw_UNsr4DKGTQt-51" value="job_position" style="shape=partialRectangle;connectable=0;fillColor=none;top=0;left=0;bottom=0;right=0;align=left;spacingLeft=6;overflow=hidden;whiteSpace=wrap;html=1;" parent="zPUTQCQw_UNsr4DKGTQt-49" vertex="1">
          <mxGeometry x="30" width="150" height="30" as="geometry">
            <mxRectangle width="150" height="30" as="alternateBounds" />
          </mxGeometry>
        </mxCell>
        <mxCell id="zPUTQCQw_UNsr4DKGTQt-52" value="Project" style="shape=table;startSize=30;container=1;collapsible=1;childLayout=tableLayout;fixedRows=1;rowLines=0;fontStyle=1;align=center;resizeLast=1;html=1;" parent="1" vertex="1">
          <mxGeometry x="-50" y="-270" width="180" height="210" as="geometry" />
        </mxCell>
        <mxCell id="zPUTQCQw_UNsr4DKGTQt-53" value="" style="shape=tableRow;horizontal=0;startSize=0;swimlaneHead=0;swimlaneBody=0;fillColor=none;collapsible=0;dropTarget=0;points=[[0,0.5],[1,0.5]];portConstraint=eastwest;top=0;left=0;right=0;bottom=1;" parent="zPUTQCQw_UNsr4DKGTQt-52" vertex="1">
          <mxGeometry y="30" width="180" height="30" as="geometry" />
        </mxCell>
        <mxCell id="zPUTQCQw_UNsr4DKGTQt-54" value="PK" style="shape=partialRectangle;connectable=0;fillColor=none;top=0;left=0;bottom=0;right=0;fontStyle=1;overflow=hidden;whiteSpace=wrap;html=1;" parent="zPUTQCQw_UNsr4DKGTQt-53" vertex="1">
          <mxGeometry width="30" height="30" as="geometry">
            <mxRectangle width="30" height="30" as="alternateBounds" />
          </mxGeometry>
        </mxCell>
        <mxCell id="zPUTQCQw_UNsr4DKGTQt-55" value="project_id" style="shape=partialRectangle;connectable=0;fillColor=none;top=0;left=0;bottom=0;right=0;align=left;spacingLeft=6;fontStyle=5;overflow=hidden;whiteSpace=wrap;html=1;" parent="zPUTQCQw_UNsr4DKGTQt-53" vertex="1">
          <mxGeometry x="30" width="150" height="30" as="geometry">
            <mxRectangle width="150" height="30" as="alternateBounds" />
          </mxGeometry>
        </mxCell>
        <mxCell id="zPUTQCQw_UNsr4DKGTQt-56" value="" style="shape=tableRow;horizontal=0;startSize=0;swimlaneHead=0;swimlaneBody=0;fillColor=none;collapsible=0;dropTarget=0;points=[[0,0.5],[1,0.5]];portConstraint=eastwest;top=0;left=0;right=0;bottom=0;" parent="zPUTQCQw_UNsr4DKGTQt-52" vertex="1">
          <mxGeometry y="60" width="180" height="30" as="geometry" />
        </mxCell>
        <mxCell id="zPUTQCQw_UNsr4DKGTQt-57" value="" style="shape=partialRectangle;connectable=0;fillColor=none;top=0;left=0;bottom=0;right=0;editable=1;overflow=hidden;whiteSpace=wrap;html=1;" parent="zPUTQCQw_UNsr4DKGTQt-56" vertex="1">
          <mxGeometry width="30" height="30" as="geometry">
            <mxRectangle width="30" height="30" as="alternateBounds" />
          </mxGeometry>
        </mxCell>
        <mxCell id="zPUTQCQw_UNsr4DKGTQt-58" value="name" style="shape=partialRectangle;connectable=0;fillColor=none;top=0;left=0;bottom=0;right=0;align=left;spacingLeft=6;overflow=hidden;whiteSpace=wrap;html=1;" parent="zPUTQCQw_UNsr4DKGTQt-56" vertex="1">
          <mxGeometry x="30" width="150" height="30" as="geometry">
            <mxRectangle width="150" height="30" as="alternateBounds" />
          </mxGeometry>
        </mxCell>
        <mxCell id="zPUTQCQw_UNsr4DKGTQt-59" value="" style="shape=tableRow;horizontal=0;startSize=0;swimlaneHead=0;swimlaneBody=0;fillColor=none;collapsible=0;dropTarget=0;points=[[0,0.5],[1,0.5]];portConstraint=eastwest;top=0;left=0;right=0;bottom=0;" parent="zPUTQCQw_UNsr4DKGTQt-52" vertex="1">
          <mxGeometry y="90" width="180" height="30" as="geometry" />
        </mxCell>
        <mxCell id="zPUTQCQw_UNsr4DKGTQt-60" value="" style="shape=partialRectangle;connectable=0;fillColor=none;top=0;left=0;bottom=0;right=0;editable=1;overflow=hidden;whiteSpace=wrap;html=1;" parent="zPUTQCQw_UNsr4DKGTQt-59" vertex="1">
          <mxGeometry width="30" height="30" as="geometry">
            <mxRectangle width="30" height="30" as="alternateBounds" />
          </mxGeometry>
        </mxCell>
        <mxCell id="zPUTQCQw_UNsr4DKGTQt-61" value="start_date" style="shape=partialRectangle;connectable=0;fillColor=none;top=0;left=0;bottom=0;right=0;align=left;spacingLeft=6;overflow=hidden;whiteSpace=wrap;html=1;" parent="zPUTQCQw_UNsr4DKGTQt-59" vertex="1">
          <mxGeometry x="30" width="150" height="30" as="geometry">
            <mxRectangle width="150" height="30" as="alternateBounds" />
          </mxGeometry>
        </mxCell>
        <mxCell id="zPUTQCQw_UNsr4DKGTQt-354" value="" style="shape=tableRow;horizontal=0;startSize=0;swimlaneHead=0;swimlaneBody=0;fillColor=none;collapsible=0;dropTarget=0;points=[[0,0.5],[1,0.5]];portConstraint=eastwest;top=0;left=0;right=0;bottom=0;" parent="zPUTQCQw_UNsr4DKGTQt-52" vertex="1">
          <mxGeometry y="120" width="180" height="30" as="geometry" />
        </mxCell>
        <mxCell id="zPUTQCQw_UNsr4DKGTQt-355" value="FK" style="shape=partialRectangle;connectable=0;fillColor=none;top=0;left=0;bottom=0;right=0;fontStyle=0;overflow=hidden;whiteSpace=wrap;html=1;" parent="zPUTQCQw_UNsr4DKGTQt-354" vertex="1">
          <mxGeometry width="30" height="30" as="geometry">
            <mxRectangle width="30" height="30" as="alternateBounds" />
          </mxGeometry>
        </mxCell>
        <mxCell id="zPUTQCQw_UNsr4DKGTQt-356" value="department_id" style="shape=partialRectangle;connectable=0;fillColor=none;top=0;left=0;bottom=0;right=0;align=left;spacingLeft=6;fontStyle=0;overflow=hidden;whiteSpace=wrap;html=1;" parent="zPUTQCQw_UNsr4DKGTQt-354" vertex="1">
          <mxGeometry x="30" width="150" height="30" as="geometry">
            <mxRectangle width="150" height="30" as="alternateBounds" />
          </mxGeometry>
        </mxCell>
        <mxCell id="zPUTQCQw_UNsr4DKGTQt-62" value="" style="shape=tableRow;horizontal=0;startSize=0;swimlaneHead=0;swimlaneBody=0;fillColor=none;collapsible=0;dropTarget=0;points=[[0,0.5],[1,0.5]];portConstraint=eastwest;top=0;left=0;right=0;bottom=0;" parent="zPUTQCQw_UNsr4DKGTQt-52" vertex="1">
          <mxGeometry y="150" width="180" height="30" as="geometry" />
        </mxCell>
        <mxCell id="zPUTQCQw_UNsr4DKGTQt-63" value="" style="shape=partialRectangle;connectable=0;fillColor=none;top=0;left=0;bottom=0;right=0;editable=1;overflow=hidden;whiteSpace=wrap;html=1;" parent="zPUTQCQw_UNsr4DKGTQt-62" vertex="1">
          <mxGeometry width="30" height="30" as="geometry">
            <mxRectangle width="30" height="30" as="alternateBounds" />
          </mxGeometry>
        </mxCell>
        <mxCell id="zPUTQCQw_UNsr4DKGTQt-64" value="end_date" style="shape=partialRectangle;connectable=0;fillColor=none;top=0;left=0;bottom=0;right=0;align=left;spacingLeft=6;overflow=hidden;whiteSpace=wrap;html=1;" parent="zPUTQCQw_UNsr4DKGTQt-62" vertex="1">
          <mxGeometry x="30" width="150" height="30" as="geometry">
            <mxRectangle width="150" height="30" as="alternateBounds" />
          </mxGeometry>
        </mxCell>
        <mxCell id="zPUTQCQw_UNsr4DKGTQt-65" style="shape=tableRow;horizontal=0;startSize=0;swimlaneHead=0;swimlaneBody=0;fillColor=none;collapsible=0;dropTarget=0;points=[[0,0.5],[1,0.5]];portConstraint=eastwest;top=0;left=0;right=0;bottom=0;" parent="zPUTQCQw_UNsr4DKGTQt-52" vertex="1">
          <mxGeometry y="180" width="180" height="30" as="geometry" />
        </mxCell>
        <mxCell id="zPUTQCQw_UNsr4DKGTQt-66" style="shape=partialRectangle;connectable=0;fillColor=none;top=0;left=0;bottom=0;right=0;editable=1;overflow=hidden;whiteSpace=wrap;html=1;" parent="zPUTQCQw_UNsr4DKGTQt-65" vertex="1">
          <mxGeometry width="30" height="30" as="geometry">
            <mxRectangle width="30" height="30" as="alternateBounds" />
          </mxGeometry>
        </mxCell>
        <mxCell id="zPUTQCQw_UNsr4DKGTQt-67" value="budget" style="shape=partialRectangle;connectable=0;fillColor=none;top=0;left=0;bottom=0;right=0;align=left;spacingLeft=6;overflow=hidden;whiteSpace=wrap;html=1;" parent="zPUTQCQw_UNsr4DKGTQt-65" vertex="1">
          <mxGeometry x="30" width="150" height="30" as="geometry">
            <mxRectangle width="150" height="30" as="alternateBounds" />
          </mxGeometry>
        </mxCell>
        <mxCell id="zPUTQCQw_UNsr4DKGTQt-68" value="Customer" style="shape=table;startSize=30;container=1;collapsible=1;childLayout=tableLayout;fixedRows=1;rowLines=0;fontStyle=1;align=center;resizeLast=1;html=1;" parent="1" vertex="1">
          <mxGeometry x="414" y="560" width="180" height="270" as="geometry" />
        </mxCell>
        <mxCell id="zPUTQCQw_UNsr4DKGTQt-69" value="" style="shape=tableRow;horizontal=0;startSize=0;swimlaneHead=0;swimlaneBody=0;fillColor=none;collapsible=0;dropTarget=0;points=[[0,0.5],[1,0.5]];portConstraint=eastwest;top=0;left=0;right=0;bottom=1;" parent="zPUTQCQw_UNsr4DKGTQt-68" vertex="1">
          <mxGeometry y="30" width="180" height="30" as="geometry" />
        </mxCell>
        <mxCell id="zPUTQCQw_UNsr4DKGTQt-70" value="PK" style="shape=partialRectangle;connectable=0;fillColor=none;top=0;left=0;bottom=0;right=0;fontStyle=1;overflow=hidden;whiteSpace=wrap;html=1;" parent="zPUTQCQw_UNsr4DKGTQt-69" vertex="1">
          <mxGeometry width="30" height="30" as="geometry">
            <mxRectangle width="30" height="30" as="alternateBounds" />
          </mxGeometry>
        </mxCell>
        <mxCell id="zPUTQCQw_UNsr4DKGTQt-71" value="customer_id" style="shape=partialRectangle;connectable=0;fillColor=none;top=0;left=0;bottom=0;right=0;align=left;spacingLeft=6;fontStyle=5;overflow=hidden;whiteSpace=wrap;html=1;" parent="zPUTQCQw_UNsr4DKGTQt-69" vertex="1">
          <mxGeometry x="30" width="150" height="30" as="geometry">
            <mxRectangle width="150" height="30" as="alternateBounds" />
          </mxGeometry>
        </mxCell>
        <mxCell id="zPUTQCQw_UNsr4DKGTQt-72" value="" style="shape=tableRow;horizontal=0;startSize=0;swimlaneHead=0;swimlaneBody=0;fillColor=none;collapsible=0;dropTarget=0;points=[[0,0.5],[1,0.5]];portConstraint=eastwest;top=0;left=0;right=0;bottom=0;" parent="zPUTQCQw_UNsr4DKGTQt-68" vertex="1">
          <mxGeometry y="60" width="180" height="30" as="geometry" />
        </mxCell>
        <mxCell id="zPUTQCQw_UNsr4DKGTQt-73" value="" style="shape=partialRectangle;connectable=0;fillColor=none;top=0;left=0;bottom=0;right=0;editable=1;overflow=hidden;whiteSpace=wrap;html=1;" parent="zPUTQCQw_UNsr4DKGTQt-72" vertex="1">
          <mxGeometry width="30" height="30" as="geometry">
            <mxRectangle width="30" height="30" as="alternateBounds" />
          </mxGeometry>
        </mxCell>
        <mxCell id="zPUTQCQw_UNsr4DKGTQt-74" value="first_name" style="shape=partialRectangle;connectable=0;fillColor=none;top=0;left=0;bottom=0;right=0;align=left;spacingLeft=6;overflow=hidden;whiteSpace=wrap;html=1;" parent="zPUTQCQw_UNsr4DKGTQt-72" vertex="1">
          <mxGeometry x="30" width="150" height="30" as="geometry">
            <mxRectangle width="150" height="30" as="alternateBounds" />
          </mxGeometry>
        </mxCell>
        <mxCell id="zPUTQCQw_UNsr4DKGTQt-394" value="" style="shape=tableRow;horizontal=0;startSize=0;swimlaneHead=0;swimlaneBody=0;fillColor=none;collapsible=0;dropTarget=0;points=[[0,0.5],[1,0.5]];portConstraint=eastwest;top=0;left=0;right=0;bottom=0;" parent="zPUTQCQw_UNsr4DKGTQt-68" vertex="1">
          <mxGeometry y="90" width="180" height="30" as="geometry" />
        </mxCell>
        <mxCell id="zPUTQCQw_UNsr4DKGTQt-395" value="FK" style="shape=partialRectangle;connectable=0;fillColor=none;top=0;left=0;bottom=0;right=0;fontStyle=0;overflow=hidden;whiteSpace=wrap;html=1;" parent="zPUTQCQw_UNsr4DKGTQt-394" vertex="1">
          <mxGeometry width="30" height="30" as="geometry">
            <mxRectangle width="30" height="30" as="alternateBounds" />
          </mxGeometry>
        </mxCell>
        <mxCell id="zPUTQCQw_UNsr4DKGTQt-396" value="order_id" style="shape=partialRectangle;connectable=0;fillColor=none;top=0;left=0;bottom=0;right=0;align=left;spacingLeft=6;fontStyle=0;overflow=hidden;whiteSpace=wrap;html=1;" parent="zPUTQCQw_UNsr4DKGTQt-394" vertex="1">
          <mxGeometry x="30" width="150" height="30" as="geometry">
            <mxRectangle width="150" height="30" as="alternateBounds" />
          </mxGeometry>
        </mxCell>
        <mxCell id="zPUTQCQw_UNsr4DKGTQt-75" value="" style="shape=tableRow;horizontal=0;startSize=0;swimlaneHead=0;swimlaneBody=0;fillColor=none;collapsible=0;dropTarget=0;points=[[0,0.5],[1,0.5]];portConstraint=eastwest;top=0;left=0;right=0;bottom=0;" parent="zPUTQCQw_UNsr4DKGTQt-68" vertex="1">
          <mxGeometry y="120" width="180" height="30" as="geometry" />
        </mxCell>
        <mxCell id="zPUTQCQw_UNsr4DKGTQt-76" value="" style="shape=partialRectangle;connectable=0;fillColor=none;top=0;left=0;bottom=0;right=0;editable=1;overflow=hidden;whiteSpace=wrap;html=1;" parent="zPUTQCQw_UNsr4DKGTQt-75" vertex="1">
          <mxGeometry width="30" height="30" as="geometry">
            <mxRectangle width="30" height="30" as="alternateBounds" />
          </mxGeometry>
        </mxCell>
        <mxCell id="zPUTQCQw_UNsr4DKGTQt-77" value="last_name" style="shape=partialRectangle;connectable=0;fillColor=none;top=0;left=0;bottom=0;right=0;align=left;spacingLeft=6;overflow=hidden;whiteSpace=wrap;html=1;" parent="zPUTQCQw_UNsr4DKGTQt-75" vertex="1">
          <mxGeometry x="30" width="150" height="30" as="geometry">
            <mxRectangle width="150" height="30" as="alternateBounds" />
          </mxGeometry>
        </mxCell>
        <mxCell id="zPUTQCQw_UNsr4DKGTQt-379" value="" style="shape=tableRow;horizontal=0;startSize=0;swimlaneHead=0;swimlaneBody=0;fillColor=none;collapsible=0;dropTarget=0;points=[[0,0.5],[1,0.5]];portConstraint=eastwest;top=0;left=0;right=0;bottom=0;" parent="zPUTQCQw_UNsr4DKGTQt-68" vertex="1">
          <mxGeometry y="150" width="180" height="30" as="geometry" />
        </mxCell>
        <mxCell id="zPUTQCQw_UNsr4DKGTQt-380" value="FK" style="shape=partialRectangle;connectable=0;fillColor=none;top=0;left=0;bottom=0;right=0;fontStyle=0;overflow=hidden;whiteSpace=wrap;html=1;" parent="zPUTQCQw_UNsr4DKGTQt-379" vertex="1">
          <mxGeometry width="30" height="30" as="geometry">
            <mxRectangle width="30" height="30" as="alternateBounds" />
          </mxGeometry>
        </mxCell>
        <mxCell id="zPUTQCQw_UNsr4DKGTQt-381" value="location_id" style="shape=partialRectangle;connectable=0;fillColor=none;top=0;left=0;bottom=0;right=0;align=left;spacingLeft=6;fontStyle=0;overflow=hidden;whiteSpace=wrap;html=1;" parent="zPUTQCQw_UNsr4DKGTQt-379" vertex="1">
          <mxGeometry x="30" width="150" height="30" as="geometry">
            <mxRectangle width="150" height="30" as="alternateBounds" />
          </mxGeometry>
        </mxCell>
        <mxCell id="zPUTQCQw_UNsr4DKGTQt-78" value="" style="shape=tableRow;horizontal=0;startSize=0;swimlaneHead=0;swimlaneBody=0;fillColor=none;collapsible=0;dropTarget=0;points=[[0,0.5],[1,0.5]];portConstraint=eastwest;top=0;left=0;right=0;bottom=0;" parent="zPUTQCQw_UNsr4DKGTQt-68" vertex="1">
          <mxGeometry y="180" width="180" height="30" as="geometry" />
        </mxCell>
        <mxCell id="zPUTQCQw_UNsr4DKGTQt-79" value="" style="shape=partialRectangle;connectable=0;fillColor=none;top=0;left=0;bottom=0;right=0;editable=1;overflow=hidden;whiteSpace=wrap;html=1;" parent="zPUTQCQw_UNsr4DKGTQt-78" vertex="1">
          <mxGeometry width="30" height="30" as="geometry">
            <mxRectangle width="30" height="30" as="alternateBounds" />
          </mxGeometry>
        </mxCell>
        <mxCell id="zPUTQCQw_UNsr4DKGTQt-80" value="email" style="shape=partialRectangle;connectable=0;fillColor=none;top=0;left=0;bottom=0;right=0;align=left;spacingLeft=6;overflow=hidden;whiteSpace=wrap;html=1;" parent="zPUTQCQw_UNsr4DKGTQt-78" vertex="1">
          <mxGeometry x="30" width="150" height="30" as="geometry">
            <mxRectangle width="150" height="30" as="alternateBounds" />
          </mxGeometry>
        </mxCell>
        <mxCell id="zPUTQCQw_UNsr4DKGTQt-87" style="shape=tableRow;horizontal=0;startSize=0;swimlaneHead=0;swimlaneBody=0;fillColor=none;collapsible=0;dropTarget=0;points=[[0,0.5],[1,0.5]];portConstraint=eastwest;top=0;left=0;right=0;bottom=0;" parent="zPUTQCQw_UNsr4DKGTQt-68" vertex="1">
          <mxGeometry y="210" width="180" height="30" as="geometry" />
        </mxCell>
        <mxCell id="zPUTQCQw_UNsr4DKGTQt-88" style="shape=partialRectangle;connectable=0;fillColor=none;top=0;left=0;bottom=0;right=0;editable=1;overflow=hidden;whiteSpace=wrap;html=1;" parent="zPUTQCQw_UNsr4DKGTQt-87" vertex="1">
          <mxGeometry width="30" height="30" as="geometry">
            <mxRectangle width="30" height="30" as="alternateBounds" />
          </mxGeometry>
        </mxCell>
        <mxCell id="zPUTQCQw_UNsr4DKGTQt-89" value="gender" style="shape=partialRectangle;connectable=0;fillColor=none;top=0;left=0;bottom=0;right=0;align=left;spacingLeft=6;overflow=hidden;whiteSpace=wrap;html=1;" parent="zPUTQCQw_UNsr4DKGTQt-87" vertex="1">
          <mxGeometry x="30" width="150" height="30" as="geometry">
            <mxRectangle width="150" height="30" as="alternateBounds" />
          </mxGeometry>
        </mxCell>
        <mxCell id="zPUTQCQw_UNsr4DKGTQt-84" style="shape=tableRow;horizontal=0;startSize=0;swimlaneHead=0;swimlaneBody=0;fillColor=none;collapsible=0;dropTarget=0;points=[[0,0.5],[1,0.5]];portConstraint=eastwest;top=0;left=0;right=0;bottom=0;" parent="zPUTQCQw_UNsr4DKGTQt-68" vertex="1">
          <mxGeometry y="240" width="180" height="30" as="geometry" />
        </mxCell>
        <mxCell id="zPUTQCQw_UNsr4DKGTQt-85" style="shape=partialRectangle;connectable=0;fillColor=none;top=0;left=0;bottom=0;right=0;editable=1;overflow=hidden;whiteSpace=wrap;html=1;" parent="zPUTQCQw_UNsr4DKGTQt-84" vertex="1">
          <mxGeometry width="30" height="30" as="geometry">
            <mxRectangle width="30" height="30" as="alternateBounds" />
          </mxGeometry>
        </mxCell>
        <mxCell id="zPUTQCQw_UNsr4DKGTQt-86" value="phone" style="shape=partialRectangle;connectable=0;fillColor=none;top=0;left=0;bottom=0;right=0;align=left;spacingLeft=6;overflow=hidden;whiteSpace=wrap;html=1;" parent="zPUTQCQw_UNsr4DKGTQt-84" vertex="1">
          <mxGeometry x="30" width="150" height="30" as="geometry">
            <mxRectangle width="150" height="30" as="alternateBounds" />
          </mxGeometry>
        </mxCell>
        <mxCell id="zPUTQCQw_UNsr4DKGTQt-90" value="Location" style="shape=table;startSize=30;container=1;collapsible=1;childLayout=tableLayout;fixedRows=1;rowLines=0;fontStyle=1;align=center;resizeLast=1;html=1;" parent="1" vertex="1">
          <mxGeometry x="460" y="880" width="180" height="120" as="geometry" />
        </mxCell>
        <mxCell id="zPUTQCQw_UNsr4DKGTQt-91" value="" style="shape=tableRow;horizontal=0;startSize=0;swimlaneHead=0;swimlaneBody=0;fillColor=none;collapsible=0;dropTarget=0;points=[[0,0.5],[1,0.5]];portConstraint=eastwest;top=0;left=0;right=0;bottom=1;" parent="zPUTQCQw_UNsr4DKGTQt-90" vertex="1">
          <mxGeometry y="30" width="180" height="30" as="geometry" />
        </mxCell>
        <mxCell id="zPUTQCQw_UNsr4DKGTQt-92" value="PK" style="shape=partialRectangle;connectable=0;fillColor=none;top=0;left=0;bottom=0;right=0;fontStyle=1;overflow=hidden;whiteSpace=wrap;html=1;" parent="zPUTQCQw_UNsr4DKGTQt-91" vertex="1">
          <mxGeometry width="30" height="30" as="geometry">
            <mxRectangle width="30" height="30" as="alternateBounds" />
          </mxGeometry>
        </mxCell>
        <mxCell id="zPUTQCQw_UNsr4DKGTQt-93" value="location_id" style="shape=partialRectangle;connectable=0;fillColor=none;top=0;left=0;bottom=0;right=0;align=left;spacingLeft=6;fontStyle=5;overflow=hidden;whiteSpace=wrap;html=1;" parent="zPUTQCQw_UNsr4DKGTQt-91" vertex="1">
          <mxGeometry x="30" width="150" height="30" as="geometry">
            <mxRectangle width="150" height="30" as="alternateBounds" />
          </mxGeometry>
        </mxCell>
        <mxCell id="zPUTQCQw_UNsr4DKGTQt-346" value="" style="shape=tableRow;horizontal=0;startSize=0;swimlaneHead=0;swimlaneBody=0;fillColor=none;collapsible=0;dropTarget=0;points=[[0,0.5],[1,0.5]];portConstraint=eastwest;top=0;left=0;right=0;bottom=0;" parent="zPUTQCQw_UNsr4DKGTQt-90" vertex="1">
          <mxGeometry y="60" width="180" height="30" as="geometry" />
        </mxCell>
        <mxCell id="zPUTQCQw_UNsr4DKGTQt-347" value="FK" style="shape=partialRectangle;connectable=0;fillColor=none;top=0;left=0;bottom=0;right=0;fontStyle=0;overflow=hidden;whiteSpace=wrap;html=1;" parent="zPUTQCQw_UNsr4DKGTQt-346" vertex="1">
          <mxGeometry width="30" height="30" as="geometry">
            <mxRectangle width="30" height="30" as="alternateBounds" />
          </mxGeometry>
        </mxCell>
        <mxCell id="zPUTQCQw_UNsr4DKGTQt-348" value="city_id" style="shape=partialRectangle;connectable=0;fillColor=none;top=0;left=0;bottom=0;right=0;align=left;spacingLeft=6;fontStyle=0;overflow=hidden;whiteSpace=wrap;html=1;" parent="zPUTQCQw_UNsr4DKGTQt-346" vertex="1">
          <mxGeometry x="30" width="150" height="30" as="geometry">
            <mxRectangle width="150" height="30" as="alternateBounds" />
          </mxGeometry>
        </mxCell>
        <mxCell id="zPUTQCQw_UNsr4DKGTQt-100" value="" style="shape=tableRow;horizontal=0;startSize=0;swimlaneHead=0;swimlaneBody=0;fillColor=none;collapsible=0;dropTarget=0;points=[[0,0.5],[1,0.5]];portConstraint=eastwest;top=0;left=0;right=0;bottom=0;" parent="zPUTQCQw_UNsr4DKGTQt-90" vertex="1">
          <mxGeometry y="90" width="180" height="30" as="geometry" />
        </mxCell>
        <mxCell id="zPUTQCQw_UNsr4DKGTQt-101" value="" style="shape=partialRectangle;connectable=0;fillColor=none;top=0;left=0;bottom=0;right=0;editable=1;overflow=hidden;whiteSpace=wrap;html=1;" parent="zPUTQCQw_UNsr4DKGTQt-100" vertex="1">
          <mxGeometry width="30" height="30" as="geometry">
            <mxRectangle width="30" height="30" as="alternateBounds" />
          </mxGeometry>
        </mxCell>
        <mxCell id="zPUTQCQw_UNsr4DKGTQt-102" value="postal_code" style="shape=partialRectangle;connectable=0;fillColor=none;top=0;left=0;bottom=0;right=0;align=left;spacingLeft=6;overflow=hidden;whiteSpace=wrap;html=1;" parent="zPUTQCQw_UNsr4DKGTQt-100" vertex="1">
          <mxGeometry x="30" width="150" height="30" as="geometry">
            <mxRectangle width="150" height="30" as="alternateBounds" />
          </mxGeometry>
        </mxCell>
        <mxCell id="zPUTQCQw_UNsr4DKGTQt-106" value="City" style="shape=table;startSize=30;container=1;collapsible=1;childLayout=tableLayout;fixedRows=1;rowLines=0;fontStyle=1;align=center;resizeLast=1;html=1;" parent="1" vertex="1">
          <mxGeometry x="710" y="1040" width="180" height="150" as="geometry" />
        </mxCell>
        <mxCell id="zPUTQCQw_UNsr4DKGTQt-107" value="" style="shape=tableRow;horizontal=0;startSize=0;swimlaneHead=0;swimlaneBody=0;fillColor=none;collapsible=0;dropTarget=0;points=[[0,0.5],[1,0.5]];portConstraint=eastwest;top=0;left=0;right=0;bottom=1;" parent="zPUTQCQw_UNsr4DKGTQt-106" vertex="1">
          <mxGeometry y="30" width="180" height="30" as="geometry" />
        </mxCell>
        <mxCell id="zPUTQCQw_UNsr4DKGTQt-108" value="PK" style="shape=partialRectangle;connectable=0;fillColor=none;top=0;left=0;bottom=0;right=0;fontStyle=1;overflow=hidden;whiteSpace=wrap;html=1;" parent="zPUTQCQw_UNsr4DKGTQt-107" vertex="1">
          <mxGeometry width="30" height="30" as="geometry">
            <mxRectangle width="30" height="30" as="alternateBounds" />
          </mxGeometry>
        </mxCell>
        <mxCell id="zPUTQCQw_UNsr4DKGTQt-109" value="city_id" style="shape=partialRectangle;connectable=0;fillColor=none;top=0;left=0;bottom=0;right=0;align=left;spacingLeft=6;fontStyle=5;overflow=hidden;whiteSpace=wrap;html=1;" parent="zPUTQCQw_UNsr4DKGTQt-107" vertex="1">
          <mxGeometry x="30" width="150" height="30" as="geometry">
            <mxRectangle width="150" height="30" as="alternateBounds" />
          </mxGeometry>
        </mxCell>
        <mxCell id="zPUTQCQw_UNsr4DKGTQt-283" value="" style="shape=tableRow;horizontal=0;startSize=0;swimlaneHead=0;swimlaneBody=0;fillColor=none;collapsible=0;dropTarget=0;points=[[0,0.5],[1,0.5]];portConstraint=eastwest;top=0;left=0;right=0;bottom=0;" parent="zPUTQCQw_UNsr4DKGTQt-106" vertex="1">
          <mxGeometry y="60" width="180" height="30" as="geometry" />
        </mxCell>
        <mxCell id="zPUTQCQw_UNsr4DKGTQt-284" value="FK" style="shape=partialRectangle;connectable=0;fillColor=none;top=0;left=0;bottom=0;right=0;fontStyle=0;overflow=hidden;whiteSpace=wrap;html=1;" parent="zPUTQCQw_UNsr4DKGTQt-283" vertex="1">
          <mxGeometry width="30" height="30" as="geometry">
            <mxRectangle width="30" height="30" as="alternateBounds" />
          </mxGeometry>
        </mxCell>
        <mxCell id="zPUTQCQw_UNsr4DKGTQt-285" value="country_id" style="shape=partialRectangle;connectable=0;fillColor=none;top=0;left=0;bottom=0;right=0;align=left;spacingLeft=6;fontStyle=0;overflow=hidden;whiteSpace=wrap;html=1;" parent="zPUTQCQw_UNsr4DKGTQt-283" vertex="1">
          <mxGeometry x="30" width="150" height="30" as="geometry">
            <mxRectangle width="150" height="30" as="alternateBounds" />
          </mxGeometry>
        </mxCell>
        <mxCell id="zPUTQCQw_UNsr4DKGTQt-97" value="" style="shape=tableRow;horizontal=0;startSize=0;swimlaneHead=0;swimlaneBody=0;fillColor=none;collapsible=0;dropTarget=0;points=[[0,0.5],[1,0.5]];portConstraint=eastwest;top=0;left=0;right=0;bottom=0;" parent="zPUTQCQw_UNsr4DKGTQt-106" vertex="1">
          <mxGeometry y="90" width="180" height="30" as="geometry" />
        </mxCell>
        <mxCell id="zPUTQCQw_UNsr4DKGTQt-98" value="" style="shape=partialRectangle;connectable=0;fillColor=none;top=0;left=0;bottom=0;right=0;editable=1;overflow=hidden;whiteSpace=wrap;html=1;" parent="zPUTQCQw_UNsr4DKGTQt-97" vertex="1">
          <mxGeometry width="30" height="30" as="geometry">
            <mxRectangle width="30" height="30" as="alternateBounds" />
          </mxGeometry>
        </mxCell>
        <mxCell id="zPUTQCQw_UNsr4DKGTQt-99" value="street" style="shape=partialRectangle;connectable=0;fillColor=none;top=0;left=0;bottom=0;right=0;align=left;spacingLeft=6;overflow=hidden;whiteSpace=wrap;html=1;" parent="zPUTQCQw_UNsr4DKGTQt-97" vertex="1">
          <mxGeometry x="30" width="150" height="30" as="geometry">
            <mxRectangle width="150" height="30" as="alternateBounds" />
          </mxGeometry>
        </mxCell>
        <mxCell id="zPUTQCQw_UNsr4DKGTQt-110" value="" style="shape=tableRow;horizontal=0;startSize=0;swimlaneHead=0;swimlaneBody=0;fillColor=none;collapsible=0;dropTarget=0;points=[[0,0.5],[1,0.5]];portConstraint=eastwest;top=0;left=0;right=0;bottom=0;" parent="zPUTQCQw_UNsr4DKGTQt-106" vertex="1">
          <mxGeometry y="120" width="180" height="30" as="geometry" />
        </mxCell>
        <mxCell id="zPUTQCQw_UNsr4DKGTQt-111" value="" style="shape=partialRectangle;connectable=0;fillColor=none;top=0;left=0;bottom=0;right=0;editable=1;overflow=hidden;whiteSpace=wrap;html=1;" parent="zPUTQCQw_UNsr4DKGTQt-110" vertex="1">
          <mxGeometry width="30" height="30" as="geometry">
            <mxRectangle width="30" height="30" as="alternateBounds" />
          </mxGeometry>
        </mxCell>
        <mxCell id="zPUTQCQw_UNsr4DKGTQt-112" value="name" style="shape=partialRectangle;connectable=0;fillColor=none;top=0;left=0;bottom=0;right=0;align=left;spacingLeft=6;overflow=hidden;whiteSpace=wrap;html=1;" parent="zPUTQCQw_UNsr4DKGTQt-110" vertex="1">
          <mxGeometry x="30" width="150" height="30" as="geometry">
            <mxRectangle width="150" height="30" as="alternateBounds" />
          </mxGeometry>
        </mxCell>
        <mxCell id="zPUTQCQw_UNsr4DKGTQt-119" value="Country" style="shape=table;startSize=30;container=1;collapsible=1;childLayout=tableLayout;fixedRows=1;rowLines=0;fontStyle=1;align=center;resizeLast=1;html=1;" parent="1" vertex="1">
          <mxGeometry x="980" y="1010" width="180" height="90" as="geometry" />
        </mxCell>
        <mxCell id="zPUTQCQw_UNsr4DKGTQt-120" value="" style="shape=tableRow;horizontal=0;startSize=0;swimlaneHead=0;swimlaneBody=0;fillColor=none;collapsible=0;dropTarget=0;points=[[0,0.5],[1,0.5]];portConstraint=eastwest;top=0;left=0;right=0;bottom=1;" parent="zPUTQCQw_UNsr4DKGTQt-119" vertex="1">
          <mxGeometry y="30" width="180" height="30" as="geometry" />
        </mxCell>
        <mxCell id="zPUTQCQw_UNsr4DKGTQt-121" value="PK" style="shape=partialRectangle;connectable=0;fillColor=none;top=0;left=0;bottom=0;right=0;fontStyle=1;overflow=hidden;whiteSpace=wrap;html=1;" parent="zPUTQCQw_UNsr4DKGTQt-120" vertex="1">
          <mxGeometry width="30" height="30" as="geometry">
            <mxRectangle width="30" height="30" as="alternateBounds" />
          </mxGeometry>
        </mxCell>
        <mxCell id="zPUTQCQw_UNsr4DKGTQt-122" value="country_id" style="shape=partialRectangle;connectable=0;fillColor=none;top=0;left=0;bottom=0;right=0;align=left;spacingLeft=6;fontStyle=5;overflow=hidden;whiteSpace=wrap;html=1;" parent="zPUTQCQw_UNsr4DKGTQt-120" vertex="1">
          <mxGeometry x="30" width="150" height="30" as="geometry">
            <mxRectangle width="150" height="30" as="alternateBounds" />
          </mxGeometry>
        </mxCell>
        <mxCell id="zPUTQCQw_UNsr4DKGTQt-123" value="" style="shape=tableRow;horizontal=0;startSize=0;swimlaneHead=0;swimlaneBody=0;fillColor=none;collapsible=0;dropTarget=0;points=[[0,0.5],[1,0.5]];portConstraint=eastwest;top=0;left=0;right=0;bottom=0;" parent="zPUTQCQw_UNsr4DKGTQt-119" vertex="1">
          <mxGeometry y="60" width="180" height="30" as="geometry" />
        </mxCell>
        <mxCell id="zPUTQCQw_UNsr4DKGTQt-124" value="" style="shape=partialRectangle;connectable=0;fillColor=none;top=0;left=0;bottom=0;right=0;editable=1;overflow=hidden;whiteSpace=wrap;html=1;" parent="zPUTQCQw_UNsr4DKGTQt-123" vertex="1">
          <mxGeometry width="30" height="30" as="geometry">
            <mxRectangle width="30" height="30" as="alternateBounds" />
          </mxGeometry>
        </mxCell>
        <mxCell id="zPUTQCQw_UNsr4DKGTQt-125" value="name" style="shape=partialRectangle;connectable=0;fillColor=none;top=0;left=0;bottom=0;right=0;align=left;spacingLeft=6;overflow=hidden;whiteSpace=wrap;html=1;" parent="zPUTQCQw_UNsr4DKGTQt-123" vertex="1">
          <mxGeometry x="30" width="150" height="30" as="geometry">
            <mxRectangle width="150" height="30" as="alternateBounds" />
          </mxGeometry>
        </mxCell>
        <mxCell id="zPUTQCQw_UNsr4DKGTQt-132" value="Order" style="shape=table;startSize=30;container=1;collapsible=1;childLayout=tableLayout;fixedRows=1;rowLines=0;fontStyle=1;align=center;resizeLast=1;html=1;" parent="1" vertex="1">
          <mxGeometry x="760" y="280" width="180" height="180" as="geometry" />
        </mxCell>
        <mxCell id="zPUTQCQw_UNsr4DKGTQt-133" value="" style="shape=tableRow;horizontal=0;startSize=0;swimlaneHead=0;swimlaneBody=0;fillColor=none;collapsible=0;dropTarget=0;points=[[0,0.5],[1,0.5]];portConstraint=eastwest;top=0;left=0;right=0;bottom=1;" parent="zPUTQCQw_UNsr4DKGTQt-132" vertex="1">
          <mxGeometry y="30" width="180" height="30" as="geometry" />
        </mxCell>
        <mxCell id="zPUTQCQw_UNsr4DKGTQt-134" value="PK" style="shape=partialRectangle;connectable=0;fillColor=none;top=0;left=0;bottom=0;right=0;fontStyle=1;overflow=hidden;whiteSpace=wrap;html=1;" parent="zPUTQCQw_UNsr4DKGTQt-133" vertex="1">
          <mxGeometry width="30" height="30" as="geometry">
            <mxRectangle width="30" height="30" as="alternateBounds" />
          </mxGeometry>
        </mxCell>
        <mxCell id="zPUTQCQw_UNsr4DKGTQt-135" value="order_id" style="shape=partialRectangle;connectable=0;fillColor=none;top=0;left=0;bottom=0;right=0;align=left;spacingLeft=6;fontStyle=5;overflow=hidden;whiteSpace=wrap;html=1;" parent="zPUTQCQw_UNsr4DKGTQt-133" vertex="1">
          <mxGeometry x="30" width="150" height="30" as="geometry">
            <mxRectangle width="150" height="30" as="alternateBounds" />
          </mxGeometry>
        </mxCell>
        <mxCell id="zPUTQCQw_UNsr4DKGTQt-136" value="" style="shape=tableRow;horizontal=0;startSize=0;swimlaneHead=0;swimlaneBody=0;fillColor=none;collapsible=0;dropTarget=0;points=[[0,0.5],[1,0.5]];portConstraint=eastwest;top=0;left=0;right=0;bottom=0;" parent="zPUTQCQw_UNsr4DKGTQt-132" vertex="1">
          <mxGeometry y="60" width="180" height="30" as="geometry" />
        </mxCell>
        <mxCell id="zPUTQCQw_UNsr4DKGTQt-137" value="" style="shape=partialRectangle;connectable=0;fillColor=none;top=0;left=0;bottom=0;right=0;editable=1;overflow=hidden;whiteSpace=wrap;html=1;" parent="zPUTQCQw_UNsr4DKGTQt-136" vertex="1">
          <mxGeometry width="30" height="30" as="geometry">
            <mxRectangle width="30" height="30" as="alternateBounds" />
          </mxGeometry>
        </mxCell>
        <mxCell id="zPUTQCQw_UNsr4DKGTQt-138" value="order_date" style="shape=partialRectangle;connectable=0;fillColor=none;top=0;left=0;bottom=0;right=0;align=left;spacingLeft=6;overflow=hidden;whiteSpace=wrap;html=1;" parent="zPUTQCQw_UNsr4DKGTQt-136" vertex="1">
          <mxGeometry x="30" width="150" height="30" as="geometry">
            <mxRectangle width="150" height="30" as="alternateBounds" />
          </mxGeometry>
        </mxCell>
        <mxCell id="zPUTQCQw_UNsr4DKGTQt-309" value="" style="shape=tableRow;horizontal=0;startSize=0;swimlaneHead=0;swimlaneBody=0;fillColor=none;collapsible=0;dropTarget=0;points=[[0,0.5],[1,0.5]];portConstraint=eastwest;top=0;left=0;right=0;bottom=0;" parent="zPUTQCQw_UNsr4DKGTQt-132" vertex="1">
          <mxGeometry y="90" width="180" height="30" as="geometry" />
        </mxCell>
        <mxCell id="zPUTQCQw_UNsr4DKGTQt-310" value="FK" style="shape=partialRectangle;connectable=0;fillColor=none;top=0;left=0;bottom=0;right=0;fontStyle=0;overflow=hidden;whiteSpace=wrap;html=1;" parent="zPUTQCQw_UNsr4DKGTQt-309" vertex="1">
          <mxGeometry width="30" height="30" as="geometry">
            <mxRectangle width="30" height="30" as="alternateBounds" />
          </mxGeometry>
        </mxCell>
        <mxCell id="zPUTQCQw_UNsr4DKGTQt-311" value="employer_id" style="shape=partialRectangle;connectable=0;fillColor=none;top=0;left=0;bottom=0;right=0;align=left;spacingLeft=6;fontStyle=0;overflow=hidden;whiteSpace=wrap;html=1;" parent="zPUTQCQw_UNsr4DKGTQt-309" vertex="1">
          <mxGeometry x="30" width="150" height="30" as="geometry">
            <mxRectangle width="150" height="30" as="alternateBounds" />
          </mxGeometry>
        </mxCell>
        <mxCell id="zPUTQCQw_UNsr4DKGTQt-306" value="" style="shape=tableRow;horizontal=0;startSize=0;swimlaneHead=0;swimlaneBody=0;fillColor=none;collapsible=0;dropTarget=0;points=[[0,0.5],[1,0.5]];portConstraint=eastwest;top=0;left=0;right=0;bottom=0;" parent="zPUTQCQw_UNsr4DKGTQt-132" vertex="1">
          <mxGeometry y="120" width="180" height="30" as="geometry" />
        </mxCell>
        <mxCell id="zPUTQCQw_UNsr4DKGTQt-307" value="FK" style="shape=partialRectangle;connectable=0;fillColor=none;top=0;left=0;bottom=0;right=0;fontStyle=0;overflow=hidden;whiteSpace=wrap;html=1;" parent="zPUTQCQw_UNsr4DKGTQt-306" vertex="1">
          <mxGeometry width="30" height="30" as="geometry">
            <mxRectangle width="30" height="30" as="alternateBounds" />
          </mxGeometry>
        </mxCell>
        <mxCell id="zPUTQCQw_UNsr4DKGTQt-308" value="customer_id" style="shape=partialRectangle;connectable=0;fillColor=none;top=0;left=0;bottom=0;right=0;align=left;spacingLeft=6;fontStyle=0;overflow=hidden;whiteSpace=wrap;html=1;" parent="zPUTQCQw_UNsr4DKGTQt-306" vertex="1">
          <mxGeometry x="30" width="150" height="30" as="geometry">
            <mxRectangle width="150" height="30" as="alternateBounds" />
          </mxGeometry>
        </mxCell>
        <mxCell id="zPUTQCQw_UNsr4DKGTQt-139" value="" style="shape=tableRow;horizontal=0;startSize=0;swimlaneHead=0;swimlaneBody=0;fillColor=none;collapsible=0;dropTarget=0;points=[[0,0.5],[1,0.5]];portConstraint=eastwest;top=0;left=0;right=0;bottom=0;" parent="zPUTQCQw_UNsr4DKGTQt-132" vertex="1">
          <mxGeometry y="150" width="180" height="30" as="geometry" />
        </mxCell>
        <mxCell id="zPUTQCQw_UNsr4DKGTQt-140" value="" style="shape=partialRectangle;connectable=0;fillColor=none;top=0;left=0;bottom=0;right=0;editable=1;overflow=hidden;whiteSpace=wrap;html=1;" parent="zPUTQCQw_UNsr4DKGTQt-139" vertex="1">
          <mxGeometry width="30" height="30" as="geometry">
            <mxRectangle width="30" height="30" as="alternateBounds" />
          </mxGeometry>
        </mxCell>
        <mxCell id="zPUTQCQw_UNsr4DKGTQt-141" value="shipping_date" style="shape=partialRectangle;connectable=0;fillColor=none;top=0;left=0;bottom=0;right=0;align=left;spacingLeft=6;overflow=hidden;whiteSpace=wrap;html=1;" parent="zPUTQCQw_UNsr4DKGTQt-139" vertex="1">
          <mxGeometry x="30" width="150" height="30" as="geometry">
            <mxRectangle width="150" height="30" as="alternateBounds" />
          </mxGeometry>
        </mxCell>
        <mxCell id="zPUTQCQw_UNsr4DKGTQt-145" value="Supplier" style="shape=table;startSize=30;container=1;collapsible=1;childLayout=tableLayout;fixedRows=1;rowLines=0;fontStyle=1;align=center;resizeLast=1;html=1;" parent="1" vertex="1">
          <mxGeometry x="790" y="635" width="180" height="180" as="geometry" />
        </mxCell>
        <mxCell id="zPUTQCQw_UNsr4DKGTQt-146" value="" style="shape=tableRow;horizontal=0;startSize=0;swimlaneHead=0;swimlaneBody=0;fillColor=none;collapsible=0;dropTarget=0;points=[[0,0.5],[1,0.5]];portConstraint=eastwest;top=0;left=0;right=0;bottom=1;" parent="zPUTQCQw_UNsr4DKGTQt-145" vertex="1">
          <mxGeometry y="30" width="180" height="30" as="geometry" />
        </mxCell>
        <mxCell id="zPUTQCQw_UNsr4DKGTQt-147" value="PK" style="shape=partialRectangle;connectable=0;fillColor=none;top=0;left=0;bottom=0;right=0;fontStyle=1;overflow=hidden;whiteSpace=wrap;html=1;" parent="zPUTQCQw_UNsr4DKGTQt-146" vertex="1">
          <mxGeometry width="30" height="30" as="geometry">
            <mxRectangle width="30" height="30" as="alternateBounds" />
          </mxGeometry>
        </mxCell>
        <mxCell id="zPUTQCQw_UNsr4DKGTQt-148" value="supplier_id" style="shape=partialRectangle;connectable=0;fillColor=none;top=0;left=0;bottom=0;right=0;align=left;spacingLeft=6;fontStyle=5;overflow=hidden;whiteSpace=wrap;html=1;" parent="zPUTQCQw_UNsr4DKGTQt-146" vertex="1">
          <mxGeometry x="30" width="150" height="30" as="geometry">
            <mxRectangle width="150" height="30" as="alternateBounds" />
          </mxGeometry>
        </mxCell>
        <mxCell id="zPUTQCQw_UNsr4DKGTQt-149" value="" style="shape=tableRow;horizontal=0;startSize=0;swimlaneHead=0;swimlaneBody=0;fillColor=none;collapsible=0;dropTarget=0;points=[[0,0.5],[1,0.5]];portConstraint=eastwest;top=0;left=0;right=0;bottom=0;" parent="zPUTQCQw_UNsr4DKGTQt-145" vertex="1">
          <mxGeometry y="60" width="180" height="30" as="geometry" />
        </mxCell>
        <mxCell id="zPUTQCQw_UNsr4DKGTQt-150" value="" style="shape=partialRectangle;connectable=0;fillColor=none;top=0;left=0;bottom=0;right=0;editable=1;overflow=hidden;whiteSpace=wrap;html=1;" parent="zPUTQCQw_UNsr4DKGTQt-149" vertex="1">
          <mxGeometry width="30" height="30" as="geometry">
            <mxRectangle width="30" height="30" as="alternateBounds" />
          </mxGeometry>
        </mxCell>
        <mxCell id="zPUTQCQw_UNsr4DKGTQt-151" value="name" style="shape=partialRectangle;connectable=0;fillColor=none;top=0;left=0;bottom=0;right=0;align=left;spacingLeft=6;overflow=hidden;whiteSpace=wrap;html=1;" parent="zPUTQCQw_UNsr4DKGTQt-149" vertex="1">
          <mxGeometry x="30" width="150" height="30" as="geometry">
            <mxRectangle width="150" height="30" as="alternateBounds" />
          </mxGeometry>
        </mxCell>
        <mxCell id="zPUTQCQw_UNsr4DKGTQt-152" value="" style="shape=tableRow;horizontal=0;startSize=0;swimlaneHead=0;swimlaneBody=0;fillColor=none;collapsible=0;dropTarget=0;points=[[0,0.5],[1,0.5]];portConstraint=eastwest;top=0;left=0;right=0;bottom=0;" parent="zPUTQCQw_UNsr4DKGTQt-145" vertex="1">
          <mxGeometry y="90" width="180" height="30" as="geometry" />
        </mxCell>
        <mxCell id="zPUTQCQw_UNsr4DKGTQt-153" value="" style="shape=partialRectangle;connectable=0;fillColor=none;top=0;left=0;bottom=0;right=0;editable=1;overflow=hidden;whiteSpace=wrap;html=1;" parent="zPUTQCQw_UNsr4DKGTQt-152" vertex="1">
          <mxGeometry width="30" height="30" as="geometry">
            <mxRectangle width="30" height="30" as="alternateBounds" />
          </mxGeometry>
        </mxCell>
        <mxCell id="zPUTQCQw_UNsr4DKGTQt-154" value="email" style="shape=partialRectangle;connectable=0;fillColor=none;top=0;left=0;bottom=0;right=0;align=left;spacingLeft=6;overflow=hidden;whiteSpace=wrap;html=1;" parent="zPUTQCQw_UNsr4DKGTQt-152" vertex="1">
          <mxGeometry x="30" width="150" height="30" as="geometry">
            <mxRectangle width="150" height="30" as="alternateBounds" />
          </mxGeometry>
        </mxCell>
        <mxCell id="zPUTQCQw_UNsr4DKGTQt-382" value="" style="shape=tableRow;horizontal=0;startSize=0;swimlaneHead=0;swimlaneBody=0;fillColor=none;collapsible=0;dropTarget=0;points=[[0,0.5],[1,0.5]];portConstraint=eastwest;top=0;left=0;right=0;bottom=0;" parent="zPUTQCQw_UNsr4DKGTQt-145" vertex="1">
          <mxGeometry y="120" width="180" height="30" as="geometry" />
        </mxCell>
        <mxCell id="zPUTQCQw_UNsr4DKGTQt-383" value="FK" style="shape=partialRectangle;connectable=0;fillColor=none;top=0;left=0;bottom=0;right=0;fontStyle=0;overflow=hidden;whiteSpace=wrap;html=1;" parent="zPUTQCQw_UNsr4DKGTQt-382" vertex="1">
          <mxGeometry width="30" height="30" as="geometry">
            <mxRectangle width="30" height="30" as="alternateBounds" />
          </mxGeometry>
        </mxCell>
        <mxCell id="zPUTQCQw_UNsr4DKGTQt-384" value="location_id" style="shape=partialRectangle;connectable=0;fillColor=none;top=0;left=0;bottom=0;right=0;align=left;spacingLeft=6;fontStyle=0;overflow=hidden;whiteSpace=wrap;html=1;" parent="zPUTQCQw_UNsr4DKGTQt-382" vertex="1">
          <mxGeometry x="30" width="150" height="30" as="geometry">
            <mxRectangle width="150" height="30" as="alternateBounds" />
          </mxGeometry>
        </mxCell>
        <mxCell id="zPUTQCQw_UNsr4DKGTQt-158" style="shape=tableRow;horizontal=0;startSize=0;swimlaneHead=0;swimlaneBody=0;fillColor=none;collapsible=0;dropTarget=0;points=[[0,0.5],[1,0.5]];portConstraint=eastwest;top=0;left=0;right=0;bottom=0;" parent="zPUTQCQw_UNsr4DKGTQt-145" vertex="1">
          <mxGeometry y="150" width="180" height="30" as="geometry" />
        </mxCell>
        <mxCell id="zPUTQCQw_UNsr4DKGTQt-159" style="shape=partialRectangle;connectable=0;fillColor=none;top=0;left=0;bottom=0;right=0;editable=1;overflow=hidden;whiteSpace=wrap;html=1;" parent="zPUTQCQw_UNsr4DKGTQt-158" vertex="1">
          <mxGeometry width="30" height="30" as="geometry">
            <mxRectangle width="30" height="30" as="alternateBounds" />
          </mxGeometry>
        </mxCell>
        <mxCell id="zPUTQCQw_UNsr4DKGTQt-160" value="phone" style="shape=partialRectangle;connectable=0;fillColor=none;top=0;left=0;bottom=0;right=0;align=left;spacingLeft=6;overflow=hidden;whiteSpace=wrap;html=1;" parent="zPUTQCQw_UNsr4DKGTQt-158" vertex="1">
          <mxGeometry x="30" width="150" height="30" as="geometry">
            <mxRectangle width="150" height="30" as="alternateBounds" />
          </mxGeometry>
        </mxCell>
        <mxCell id="zPUTQCQw_UNsr4DKGTQt-161" value="Category" style="shape=table;startSize=30;container=1;collapsible=1;childLayout=tableLayout;fixedRows=1;rowLines=0;fontStyle=1;align=center;resizeLast=1;html=1;" parent="1" vertex="1">
          <mxGeometry x="1200" y="720" width="180" height="90" as="geometry" />
        </mxCell>
        <mxCell id="zPUTQCQw_UNsr4DKGTQt-162" value="" style="shape=tableRow;horizontal=0;startSize=0;swimlaneHead=0;swimlaneBody=0;fillColor=none;collapsible=0;dropTarget=0;points=[[0,0.5],[1,0.5]];portConstraint=eastwest;top=0;left=0;right=0;bottom=1;" parent="zPUTQCQw_UNsr4DKGTQt-161" vertex="1">
          <mxGeometry y="30" width="180" height="30" as="geometry" />
        </mxCell>
        <mxCell id="zPUTQCQw_UNsr4DKGTQt-163" value="PK" style="shape=partialRectangle;connectable=0;fillColor=none;top=0;left=0;bottom=0;right=0;fontStyle=1;overflow=hidden;whiteSpace=wrap;html=1;" parent="zPUTQCQw_UNsr4DKGTQt-162" vertex="1">
          <mxGeometry width="30" height="30" as="geometry">
            <mxRectangle width="30" height="30" as="alternateBounds" />
          </mxGeometry>
        </mxCell>
        <mxCell id="zPUTQCQw_UNsr4DKGTQt-164" value="category_id" style="shape=partialRectangle;connectable=0;fillColor=none;top=0;left=0;bottom=0;right=0;align=left;spacingLeft=6;fontStyle=5;overflow=hidden;whiteSpace=wrap;html=1;" parent="zPUTQCQw_UNsr4DKGTQt-162" vertex="1">
          <mxGeometry x="30" width="150" height="30" as="geometry">
            <mxRectangle width="150" height="30" as="alternateBounds" />
          </mxGeometry>
        </mxCell>
        <mxCell id="zPUTQCQw_UNsr4DKGTQt-165" value="" style="shape=tableRow;horizontal=0;startSize=0;swimlaneHead=0;swimlaneBody=0;fillColor=none;collapsible=0;dropTarget=0;points=[[0,0.5],[1,0.5]];portConstraint=eastwest;top=0;left=0;right=0;bottom=0;" parent="zPUTQCQw_UNsr4DKGTQt-161" vertex="1">
          <mxGeometry y="60" width="180" height="30" as="geometry" />
        </mxCell>
        <mxCell id="zPUTQCQw_UNsr4DKGTQt-166" value="" style="shape=partialRectangle;connectable=0;fillColor=none;top=0;left=0;bottom=0;right=0;editable=1;overflow=hidden;whiteSpace=wrap;html=1;" parent="zPUTQCQw_UNsr4DKGTQt-165" vertex="1">
          <mxGeometry width="30" height="30" as="geometry">
            <mxRectangle width="30" height="30" as="alternateBounds" />
          </mxGeometry>
        </mxCell>
        <mxCell id="zPUTQCQw_UNsr4DKGTQt-167" value="name" style="shape=partialRectangle;connectable=0;fillColor=none;top=0;left=0;bottom=0;right=0;align=left;spacingLeft=6;overflow=hidden;whiteSpace=wrap;html=1;" parent="zPUTQCQw_UNsr4DKGTQt-165" vertex="1">
          <mxGeometry x="30" width="150" height="30" as="geometry">
            <mxRectangle width="150" height="30" as="alternateBounds" />
          </mxGeometry>
        </mxCell>
        <mxCell id="zPUTQCQw_UNsr4DKGTQt-241" value="Manager" style="shape=table;startSize=30;container=1;collapsible=1;childLayout=tableLayout;fixedRows=1;rowLines=0;fontStyle=1;align=center;resizeLast=1;html=1;" parent="1" vertex="1">
          <mxGeometry x="-230" y="460" width="180" height="150" as="geometry" />
        </mxCell>
        <mxCell id="zPUTQCQw_UNsr4DKGTQt-242" value="" style="shape=tableRow;horizontal=0;startSize=0;swimlaneHead=0;swimlaneBody=0;fillColor=none;collapsible=0;dropTarget=0;points=[[0,0.5],[1,0.5]];portConstraint=eastwest;top=0;left=0;right=0;bottom=1;" parent="zPUTQCQw_UNsr4DKGTQt-241" vertex="1">
          <mxGeometry y="30" width="180" height="30" as="geometry" />
        </mxCell>
        <mxCell id="zPUTQCQw_UNsr4DKGTQt-243" value="PK" style="shape=partialRectangle;connectable=0;fillColor=none;top=0;left=0;bottom=0;right=0;fontStyle=1;overflow=hidden;whiteSpace=wrap;html=1;" parent="zPUTQCQw_UNsr4DKGTQt-242" vertex="1">
          <mxGeometry width="30" height="30" as="geometry">
            <mxRectangle width="30" height="30" as="alternateBounds" />
          </mxGeometry>
        </mxCell>
        <mxCell id="zPUTQCQw_UNsr4DKGTQt-244" value="manager_id" style="shape=partialRectangle;connectable=0;fillColor=none;top=0;left=0;bottom=0;right=0;align=left;spacingLeft=6;fontStyle=5;overflow=hidden;whiteSpace=wrap;html=1;" parent="zPUTQCQw_UNsr4DKGTQt-242" vertex="1">
          <mxGeometry x="30" width="150" height="30" as="geometry">
            <mxRectangle width="150" height="30" as="alternateBounds" />
          </mxGeometry>
        </mxCell>
        <mxCell id="zPUTQCQw_UNsr4DKGTQt-245" value="" style="shape=tableRow;horizontal=0;startSize=0;swimlaneHead=0;swimlaneBody=0;fillColor=none;collapsible=0;dropTarget=0;points=[[0,0.5],[1,0.5]];portConstraint=eastwest;top=0;left=0;right=0;bottom=0;" parent="zPUTQCQw_UNsr4DKGTQt-241" vertex="1">
          <mxGeometry y="60" width="180" height="30" as="geometry" />
        </mxCell>
        <mxCell id="zPUTQCQw_UNsr4DKGTQt-246" value="" style="shape=partialRectangle;connectable=0;fillColor=none;top=0;left=0;bottom=0;right=0;editable=1;overflow=hidden;whiteSpace=wrap;html=1;" parent="zPUTQCQw_UNsr4DKGTQt-245" vertex="1">
          <mxGeometry width="30" height="30" as="geometry">
            <mxRectangle width="30" height="30" as="alternateBounds" />
          </mxGeometry>
        </mxCell>
        <mxCell id="zPUTQCQw_UNsr4DKGTQt-247" value="first_name" style="shape=partialRectangle;connectable=0;fillColor=none;top=0;left=0;bottom=0;right=0;align=left;spacingLeft=6;overflow=hidden;whiteSpace=wrap;html=1;" parent="zPUTQCQw_UNsr4DKGTQt-245" vertex="1">
          <mxGeometry x="30" width="150" height="30" as="geometry">
            <mxRectangle width="150" height="30" as="alternateBounds" />
          </mxGeometry>
        </mxCell>
        <mxCell id="zPUTQCQw_UNsr4DKGTQt-248" value="" style="shape=tableRow;horizontal=0;startSize=0;swimlaneHead=0;swimlaneBody=0;fillColor=none;collapsible=0;dropTarget=0;points=[[0,0.5],[1,0.5]];portConstraint=eastwest;top=0;left=0;right=0;bottom=0;" parent="zPUTQCQw_UNsr4DKGTQt-241" vertex="1">
          <mxGeometry y="90" width="180" height="30" as="geometry" />
        </mxCell>
        <mxCell id="zPUTQCQw_UNsr4DKGTQt-249" value="" style="shape=partialRectangle;connectable=0;fillColor=none;top=0;left=0;bottom=0;right=0;editable=1;overflow=hidden;whiteSpace=wrap;html=1;" parent="zPUTQCQw_UNsr4DKGTQt-248" vertex="1">
          <mxGeometry width="30" height="30" as="geometry">
            <mxRectangle width="30" height="30" as="alternateBounds" />
          </mxGeometry>
        </mxCell>
        <mxCell id="zPUTQCQw_UNsr4DKGTQt-250" value="second_name" style="shape=partialRectangle;connectable=0;fillColor=none;top=0;left=0;bottom=0;right=0;align=left;spacingLeft=6;overflow=hidden;whiteSpace=wrap;html=1;" parent="zPUTQCQw_UNsr4DKGTQt-248" vertex="1">
          <mxGeometry x="30" width="150" height="30" as="geometry">
            <mxRectangle width="150" height="30" as="alternateBounds" />
          </mxGeometry>
        </mxCell>
        <mxCell id="zPUTQCQw_UNsr4DKGTQt-251" value="" style="shape=tableRow;horizontal=0;startSize=0;swimlaneHead=0;swimlaneBody=0;fillColor=none;collapsible=0;dropTarget=0;points=[[0,0.5],[1,0.5]];portConstraint=eastwest;top=0;left=0;right=0;bottom=0;" parent="zPUTQCQw_UNsr4DKGTQt-241" vertex="1">
          <mxGeometry y="120" width="180" height="30" as="geometry" />
        </mxCell>
        <mxCell id="zPUTQCQw_UNsr4DKGTQt-252" value="" style="shape=partialRectangle;connectable=0;fillColor=none;top=0;left=0;bottom=0;right=0;editable=1;overflow=hidden;whiteSpace=wrap;html=1;" parent="zPUTQCQw_UNsr4DKGTQt-251" vertex="1">
          <mxGeometry width="30" height="30" as="geometry">
            <mxRectangle width="30" height="30" as="alternateBounds" />
          </mxGeometry>
        </mxCell>
        <mxCell id="zPUTQCQw_UNsr4DKGTQt-253" value="email" style="shape=partialRectangle;connectable=0;fillColor=none;top=0;left=0;bottom=0;right=0;align=left;spacingLeft=6;overflow=hidden;whiteSpace=wrap;html=1;" parent="zPUTQCQw_UNsr4DKGTQt-251" vertex="1">
          <mxGeometry x="30" width="150" height="30" as="geometry">
            <mxRectangle width="150" height="30" as="alternateBounds" />
          </mxGeometry>
        </mxCell>
        <mxCell id="zPUTQCQw_UNsr4DKGTQt-281" value="Employee&lt;br&gt;Project&lt;br&gt;Department&lt;br&gt;Manager&lt;br&gt;Supplier&lt;br&gt;Job&lt;br&gt;Customer&lt;br&gt;City&lt;br&gt;Category&lt;br&gt;Order&lt;br&gt;Country&lt;br&gt;Location&lt;br&gt;Price" style="shape=note;size=20;whiteSpace=wrap;html=1;" parent="1" vertex="1">
          <mxGeometry x="-200" y="770" width="180" height="250" as="geometry" />
        </mxCell>
        <mxCell id="zPUTQCQw_UNsr4DKGTQt-296" style="edgeStyle=orthogonalEdgeStyle;rounded=0;orthogonalLoop=1;jettySize=auto;html=1;startArrow=ERmandOne;startFill=0;endArrow=ERoneToMany;endFill=0;entryX=0;entryY=0.5;entryDx=0;entryDy=0;" parent="1" source="zPUTQCQw_UNsr4DKGTQt-2" target="zPUTQCQw_UNsr4DKGTQt-221" edge="1">
          <mxGeometry relative="1" as="geometry" />
        </mxCell>
        <mxCell id="zPUTQCQw_UNsr4DKGTQt-300" style="edgeStyle=orthogonalEdgeStyle;rounded=0;orthogonalLoop=1;jettySize=auto;html=1;entryX=0;entryY=0.5;entryDx=0;entryDy=0;startArrow=ERzeroToOne;startFill=0;endArrow=ERoneToMany;endFill=0;" parent="1" source="zPUTQCQw_UNsr4DKGTQt-242" target="zPUTQCQw_UNsr4DKGTQt-46" edge="1">
          <mxGeometry relative="1" as="geometry" />
        </mxCell>
        <mxCell id="zPUTQCQw_UNsr4DKGTQt-305" style="edgeStyle=orthogonalEdgeStyle;rounded=0;orthogonalLoop=1;jettySize=auto;html=1;startArrow=ERzeroToOne;startFill=0;endArrow=ERzeroToMany;endFill=0;entryX=0;entryY=0.5;entryDx=0;entryDy=0;" parent="1" source="zPUTQCQw_UNsr4DKGTQt-69" target="zPUTQCQw_UNsr4DKGTQt-306" edge="1">
          <mxGeometry relative="1" as="geometry">
            <mxPoint x="800" y="530" as="sourcePoint" />
          </mxGeometry>
        </mxCell>
        <mxCell id="zPUTQCQw_UNsr4DKGTQt-312" style="edgeStyle=orthogonalEdgeStyle;rounded=0;orthogonalLoop=1;jettySize=auto;html=1;entryX=-0.006;entryY=0.667;entryDx=0;entryDy=0;entryPerimeter=0;startArrow=ERzeroToOne;startFill=0;endArrow=ERzeroToMany;endFill=0;exitX=1;exitY=0.5;exitDx=0;exitDy=0;" parent="1" source="zPUTQCQw_UNsr4DKGTQt-16" target="zPUTQCQw_UNsr4DKGTQt-309" edge="1">
          <mxGeometry relative="1" as="geometry" />
        </mxCell>
        <mxCell id="zPUTQCQw_UNsr4DKGTQt-313" value="Product" style="shape=table;startSize=30;container=1;collapsible=1;childLayout=tableLayout;fixedRows=1;rowLines=0;fontStyle=1;align=center;resizeLast=1;html=1;" parent="1" vertex="1">
          <mxGeometry x="1300" y="390" width="180" height="120" as="geometry" />
        </mxCell>
        <mxCell id="zPUTQCQw_UNsr4DKGTQt-314" value="" style="shape=tableRow;horizontal=0;startSize=0;swimlaneHead=0;swimlaneBody=0;fillColor=none;collapsible=0;dropTarget=0;points=[[0,0.5],[1,0.5]];portConstraint=eastwest;top=0;left=0;right=0;bottom=1;" parent="zPUTQCQw_UNsr4DKGTQt-313" vertex="1">
          <mxGeometry y="30" width="180" height="30" as="geometry" />
        </mxCell>
        <mxCell id="zPUTQCQw_UNsr4DKGTQt-315" value="PK" style="shape=partialRectangle;connectable=0;fillColor=none;top=0;left=0;bottom=0;right=0;fontStyle=1;overflow=hidden;whiteSpace=wrap;html=1;" parent="zPUTQCQw_UNsr4DKGTQt-314" vertex="1">
          <mxGeometry width="30" height="30" as="geometry">
            <mxRectangle width="30" height="30" as="alternateBounds" />
          </mxGeometry>
        </mxCell>
        <mxCell id="zPUTQCQw_UNsr4DKGTQt-316" value="product_id" style="shape=partialRectangle;connectable=0;fillColor=none;top=0;left=0;bottom=0;right=0;align=left;spacingLeft=6;fontStyle=5;overflow=hidden;whiteSpace=wrap;html=1;" parent="zPUTQCQw_UNsr4DKGTQt-314" vertex="1">
          <mxGeometry x="30" width="150" height="30" as="geometry">
            <mxRectangle width="150" height="30" as="alternateBounds" />
          </mxGeometry>
        </mxCell>
        <mxCell id="zPUTQCQw_UNsr4DKGTQt-317" value="" style="shape=tableRow;horizontal=0;startSize=0;swimlaneHead=0;swimlaneBody=0;fillColor=none;collapsible=0;dropTarget=0;points=[[0,0.5],[1,0.5]];portConstraint=eastwest;top=0;left=0;right=0;bottom=0;" parent="zPUTQCQw_UNsr4DKGTQt-313" vertex="1">
          <mxGeometry y="60" width="180" height="30" as="geometry" />
        </mxCell>
        <mxCell id="zPUTQCQw_UNsr4DKGTQt-318" value="" style="shape=partialRectangle;connectable=0;fillColor=none;top=0;left=0;bottom=0;right=0;editable=1;overflow=hidden;whiteSpace=wrap;html=1;" parent="zPUTQCQw_UNsr4DKGTQt-317" vertex="1">
          <mxGeometry width="30" height="30" as="geometry">
            <mxRectangle width="30" height="30" as="alternateBounds" />
          </mxGeometry>
        </mxCell>
        <mxCell id="zPUTQCQw_UNsr4DKGTQt-319" value="name" style="shape=partialRectangle;connectable=0;fillColor=none;top=0;left=0;bottom=0;right=0;align=left;spacingLeft=6;overflow=hidden;whiteSpace=wrap;html=1;" parent="zPUTQCQw_UNsr4DKGTQt-317" vertex="1">
          <mxGeometry x="30" width="150" height="30" as="geometry">
            <mxRectangle width="150" height="30" as="alternateBounds" />
          </mxGeometry>
        </mxCell>
        <mxCell id="zPUTQCQw_UNsr4DKGTQt-342" value="" style="shape=tableRow;horizontal=0;startSize=0;swimlaneHead=0;swimlaneBody=0;fillColor=none;collapsible=0;dropTarget=0;points=[[0,0.5],[1,0.5]];portConstraint=eastwest;top=0;left=0;right=0;bottom=0;" parent="zPUTQCQw_UNsr4DKGTQt-313" vertex="1">
          <mxGeometry y="90" width="180" height="30" as="geometry" />
        </mxCell>
        <mxCell id="zPUTQCQw_UNsr4DKGTQt-343" value="FK" style="shape=partialRectangle;connectable=0;fillColor=none;top=0;left=0;bottom=0;right=0;fontStyle=0;overflow=hidden;whiteSpace=wrap;html=1;" parent="zPUTQCQw_UNsr4DKGTQt-342" vertex="1">
          <mxGeometry width="30" height="30" as="geometry">
            <mxRectangle width="30" height="30" as="alternateBounds" />
          </mxGeometry>
        </mxCell>
        <mxCell id="zPUTQCQw_UNsr4DKGTQt-344" value="category_id" style="shape=partialRectangle;connectable=0;fillColor=none;top=0;left=0;bottom=0;right=0;align=left;spacingLeft=6;fontStyle=0;overflow=hidden;whiteSpace=wrap;html=1;" parent="zPUTQCQw_UNsr4DKGTQt-342" vertex="1">
          <mxGeometry x="30" width="150" height="30" as="geometry">
            <mxRectangle width="150" height="30" as="alternateBounds" />
          </mxGeometry>
        </mxCell>
        <mxCell id="zPUTQCQw_UNsr4DKGTQt-326" style="edgeStyle=orthogonalEdgeStyle;rounded=0;orthogonalLoop=1;jettySize=auto;html=1;startArrow=ERoneToMany;startFill=0;endArrow=ERzeroToOne;endFill=0;exitX=0;exitY=0.5;exitDx=0;exitDy=0;" parent="1" source="zPUTQCQw_UNsr4DKGTQt-382" target="zPUTQCQw_UNsr4DKGTQt-91" edge="1">
          <mxGeometry relative="1" as="geometry">
            <mxPoint x="740" y="810" as="sourcePoint" />
          </mxGeometry>
        </mxCell>
        <mxCell id="zPUTQCQw_UNsr4DKGTQt-337" style="edgeStyle=orthogonalEdgeStyle;rounded=0;orthogonalLoop=1;jettySize=auto;html=1;entryX=1;entryY=0.5;entryDx=0;entryDy=0;endArrow=ERmandOne;endFill=0;startArrow=ERoneToMany;startFill=0;" parent="1" source="zPUTQCQw_UNsr4DKGTQt-342" target="zPUTQCQw_UNsr4DKGTQt-162" edge="1">
          <mxGeometry relative="1" as="geometry" />
        </mxCell>
        <mxCell id="zPUTQCQw_UNsr4DKGTQt-349" style="edgeStyle=orthogonalEdgeStyle;rounded=0;orthogonalLoop=1;jettySize=auto;html=1;entryX=1;entryY=0.5;entryDx=0;entryDy=0;startArrow=ERmandOne;startFill=0;endArrow=ERoneToMany;endFill=0;" parent="1" source="zPUTQCQw_UNsr4DKGTQt-107" target="zPUTQCQw_UNsr4DKGTQt-346" edge="1">
          <mxGeometry relative="1" as="geometry" />
        </mxCell>
        <mxCell id="zPUTQCQw_UNsr4DKGTQt-345" style="edgeStyle=orthogonalEdgeStyle;rounded=0;orthogonalLoop=1;jettySize=auto;html=1;startArrow=ERoneToMany;startFill=0;endArrow=ERmandOne;endFill=0;" parent="1" source="zPUTQCQw_UNsr4DKGTQt-283" target="zPUTQCQw_UNsr4DKGTQt-120" edge="1">
          <mxGeometry relative="1" as="geometry" />
        </mxCell>
        <mxCell id="zPUTQCQw_UNsr4DKGTQt-363" style="edgeStyle=orthogonalEdgeStyle;rounded=0;orthogonalLoop=1;jettySize=auto;html=1;entryX=1;entryY=0.5;entryDx=0;entryDy=0;startArrow=ERmandOne;startFill=0;endArrow=ERoneToMany;endFill=0;" parent="1" source="zPUTQCQw_UNsr4DKGTQt-314" target="zPUTQCQw_UNsr4DKGTQt-366" edge="1">
          <mxGeometry relative="1" as="geometry">
            <mxPoint x="1130" y="315" as="targetPoint" />
          </mxGeometry>
        </mxCell>
        <mxCell id="zPUTQCQw_UNsr4DKGTQt-365" value="product_supplier" style="shape=table;startSize=30;container=1;collapsible=1;childLayout=tableLayout;fixedRows=1;rowLines=0;fontStyle=1;align=center;resizeLast=1;html=1;whiteSpace=wrap;" parent="1" vertex="1">
          <mxGeometry x="1030" y="440" width="180" height="180" as="geometry" />
        </mxCell>
        <mxCell id="zPUTQCQw_UNsr4DKGTQt-366" value="" style="shape=tableRow;horizontal=0;startSize=0;swimlaneHead=0;swimlaneBody=0;fillColor=none;collapsible=0;dropTarget=0;points=[[0,0.5],[1,0.5]];portConstraint=eastwest;top=0;left=0;right=0;bottom=0;html=1;" parent="zPUTQCQw_UNsr4DKGTQt-365" vertex="1">
          <mxGeometry y="30" width="180" height="30" as="geometry" />
        </mxCell>
        <mxCell id="zPUTQCQw_UNsr4DKGTQt-367" value="PK,FK1" style="shape=partialRectangle;connectable=0;fillColor=none;top=0;left=0;bottom=0;right=0;fontStyle=1;overflow=hidden;html=1;whiteSpace=wrap;" parent="zPUTQCQw_UNsr4DKGTQt-366" vertex="1">
          <mxGeometry width="60" height="30" as="geometry">
            <mxRectangle width="60" height="30" as="alternateBounds" />
          </mxGeometry>
        </mxCell>
        <mxCell id="zPUTQCQw_UNsr4DKGTQt-368" value="product_id" style="shape=partialRectangle;connectable=0;fillColor=none;top=0;left=0;bottom=0;right=0;align=left;spacingLeft=6;fontStyle=5;overflow=hidden;html=1;whiteSpace=wrap;" parent="zPUTQCQw_UNsr4DKGTQt-366" vertex="1">
          <mxGeometry x="60" width="120" height="30" as="geometry">
            <mxRectangle width="120" height="30" as="alternateBounds" />
          </mxGeometry>
        </mxCell>
        <mxCell id="zPUTQCQw_UNsr4DKGTQt-369" value="" style="shape=tableRow;horizontal=0;startSize=0;swimlaneHead=0;swimlaneBody=0;fillColor=none;collapsible=0;dropTarget=0;points=[[0,0.5],[1,0.5]];portConstraint=eastwest;top=0;left=0;right=0;bottom=1;html=1;" parent="zPUTQCQw_UNsr4DKGTQt-365" vertex="1">
          <mxGeometry y="60" width="180" height="30" as="geometry" />
        </mxCell>
        <mxCell id="zPUTQCQw_UNsr4DKGTQt-370" value="PK,FK2" style="shape=partialRectangle;connectable=0;fillColor=none;top=0;left=0;bottom=0;right=0;fontStyle=1;overflow=hidden;html=1;whiteSpace=wrap;" parent="zPUTQCQw_UNsr4DKGTQt-369" vertex="1">
          <mxGeometry width="60" height="30" as="geometry">
            <mxRectangle width="60" height="30" as="alternateBounds" />
          </mxGeometry>
        </mxCell>
        <mxCell id="zPUTQCQw_UNsr4DKGTQt-371" value="supplier_id" style="shape=partialRectangle;connectable=0;fillColor=none;top=0;left=0;bottom=0;right=0;align=left;spacingLeft=6;fontStyle=5;overflow=hidden;html=1;whiteSpace=wrap;" parent="zPUTQCQw_UNsr4DKGTQt-369" vertex="1">
          <mxGeometry x="60" width="120" height="30" as="geometry">
            <mxRectangle width="120" height="30" as="alternateBounds" />
          </mxGeometry>
        </mxCell>
        <mxCell id="zPUTQCQw_UNsr4DKGTQt-372" value="" style="shape=tableRow;horizontal=0;startSize=0;swimlaneHead=0;swimlaneBody=0;fillColor=none;collapsible=0;dropTarget=0;points=[[0,0.5],[1,0.5]];portConstraint=eastwest;top=0;left=0;right=0;bottom=0;html=1;" parent="zPUTQCQw_UNsr4DKGTQt-365" vertex="1">
          <mxGeometry y="90" width="180" height="30" as="geometry" />
        </mxCell>
        <mxCell id="zPUTQCQw_UNsr4DKGTQt-373" value="" style="shape=partialRectangle;connectable=0;fillColor=none;top=0;left=0;bottom=0;right=0;editable=1;overflow=hidden;html=1;whiteSpace=wrap;" parent="zPUTQCQw_UNsr4DKGTQt-372" vertex="1">
          <mxGeometry width="60" height="30" as="geometry">
            <mxRectangle width="60" height="30" as="alternateBounds" />
          </mxGeometry>
        </mxCell>
        <mxCell id="zPUTQCQw_UNsr4DKGTQt-374" value="quantity" style="shape=partialRectangle;connectable=0;fillColor=none;top=0;left=0;bottom=0;right=0;align=left;spacingLeft=6;overflow=hidden;html=1;whiteSpace=wrap;" parent="zPUTQCQw_UNsr4DKGTQt-372" vertex="1">
          <mxGeometry x="60" width="120" height="30" as="geometry">
            <mxRectangle width="120" height="30" as="alternateBounds" />
          </mxGeometry>
        </mxCell>
        <mxCell id="zPUTQCQw_UNsr4DKGTQt-375" value="" style="shape=tableRow;horizontal=0;startSize=0;swimlaneHead=0;swimlaneBody=0;fillColor=none;collapsible=0;dropTarget=0;points=[[0,0.5],[1,0.5]];portConstraint=eastwest;top=0;left=0;right=0;bottom=0;html=1;" parent="zPUTQCQw_UNsr4DKGTQt-365" vertex="1">
          <mxGeometry y="120" width="180" height="30" as="geometry" />
        </mxCell>
        <mxCell id="zPUTQCQw_UNsr4DKGTQt-376" value="" style="shape=partialRectangle;connectable=0;fillColor=none;top=0;left=0;bottom=0;right=0;editable=1;overflow=hidden;html=1;whiteSpace=wrap;" parent="zPUTQCQw_UNsr4DKGTQt-375" vertex="1">
          <mxGeometry width="60" height="30" as="geometry">
            <mxRectangle width="60" height="30" as="alternateBounds" />
          </mxGeometry>
        </mxCell>
        <mxCell id="zPUTQCQw_UNsr4DKGTQt-377" value="discount" style="shape=partialRectangle;connectable=0;fillColor=none;top=0;left=0;bottom=0;right=0;align=left;spacingLeft=6;overflow=hidden;html=1;whiteSpace=wrap;" parent="zPUTQCQw_UNsr4DKGTQt-375" vertex="1">
          <mxGeometry x="60" width="120" height="30" as="geometry">
            <mxRectangle width="120" height="30" as="alternateBounds" />
          </mxGeometry>
        </mxCell>
        <mxCell id="zPUTQCQw_UNsr4DKGTQt-388" style="shape=tableRow;horizontal=0;startSize=0;swimlaneHead=0;swimlaneBody=0;fillColor=none;collapsible=0;dropTarget=0;points=[[0,0.5],[1,0.5]];portConstraint=eastwest;top=0;left=0;right=0;bottom=0;html=1;" parent="zPUTQCQw_UNsr4DKGTQt-365" vertex="1">
          <mxGeometry y="150" width="180" height="30" as="geometry" />
        </mxCell>
        <mxCell id="zPUTQCQw_UNsr4DKGTQt-389" style="shape=partialRectangle;connectable=0;fillColor=none;top=0;left=0;bottom=0;right=0;editable=1;overflow=hidden;html=1;whiteSpace=wrap;" parent="zPUTQCQw_UNsr4DKGTQt-388" vertex="1">
          <mxGeometry width="60" height="30" as="geometry">
            <mxRectangle width="60" height="30" as="alternateBounds" />
          </mxGeometry>
        </mxCell>
        <mxCell id="zPUTQCQw_UNsr4DKGTQt-390" value="price" style="shape=partialRectangle;connectable=0;fillColor=none;top=0;left=0;bottom=0;right=0;align=left;spacingLeft=6;overflow=hidden;html=1;whiteSpace=wrap;" parent="zPUTQCQw_UNsr4DKGTQt-388" vertex="1">
          <mxGeometry x="60" width="120" height="30" as="geometry">
            <mxRectangle width="120" height="30" as="alternateBounds" />
          </mxGeometry>
        </mxCell>
        <mxCell id="zPUTQCQw_UNsr4DKGTQt-378" style="edgeStyle=orthogonalEdgeStyle;rounded=0;orthogonalLoop=1;jettySize=auto;html=1;entryX=0;entryY=0.5;entryDx=0;entryDy=0;startArrow=ERmandOne;startFill=0;endArrow=ERoneToMany;endFill=0;" parent="1" source="zPUTQCQw_UNsr4DKGTQt-146" target="zPUTQCQw_UNsr4DKGTQt-369" edge="1">
          <mxGeometry relative="1" as="geometry" />
        </mxCell>
        <mxCell id="zPUTQCQw_UNsr4DKGTQt-304" style="edgeStyle=orthogonalEdgeStyle;rounded=0;orthogonalLoop=1;jettySize=auto;html=1;startArrow=ERzeroToOne;startFill=0;endArrow=ERoneToMany;endFill=0;entryX=0;entryY=0.5;entryDx=0;entryDy=0;exitX=0;exitY=0.5;exitDx=0;exitDy=0;" parent="1" source="zPUTQCQw_UNsr4DKGTQt-91" target="zPUTQCQw_UNsr4DKGTQt-379" edge="1">
          <mxGeometry relative="1" as="geometry">
            <mxPoint x="670" y="750" as="sourcePoint" />
            <mxPoint x="910" y="720" as="targetPoint" />
          </mxGeometry>
        </mxCell>
        <mxCell id="zPUTQCQw_UNsr4DKGTQt-350" style="edgeStyle=orthogonalEdgeStyle;rounded=0;orthogonalLoop=1;jettySize=auto;html=1;startArrow=ERmandOne;startFill=0;endArrow=ERzeroToMany;endFill=0;exitX=0;exitY=0.5;exitDx=0;exitDy=0;" parent="1" source="zPUTQCQw_UNsr4DKGTQt-2" target="zPUTQCQw_UNsr4DKGTQt-354" edge="1">
          <mxGeometry relative="1" as="geometry">
            <mxPoint x="-150" y="200.00000000000023" as="sourcePoint" />
          </mxGeometry>
        </mxCell>
        <mxCell id="zPUTQCQw_UNsr4DKGTQt-397" style="edgeStyle=orthogonalEdgeStyle;rounded=0;orthogonalLoop=1;jettySize=auto;html=1;entryX=0;entryY=0.5;entryDx=0;entryDy=0;startArrow=ERmandOne;startFill=0;endArrow=ERzeroToMany;endFill=0;" parent="1" source="zPUTQCQw_UNsr4DKGTQt-133" target="zPUTQCQw_UNsr4DKGTQt-394" edge="1">
          <mxGeometry relative="1" as="geometry" />
        </mxCell>
        <mxCell id="zPUTQCQw_UNsr4DKGTQt-398" style="edgeStyle=orthogonalEdgeStyle;rounded=0;orthogonalLoop=1;jettySize=auto;html=1;startArrow=ERmandOne;startFill=0;endArrow=ERzeroToMany;endFill=0;entryX=0;entryY=0.5;entryDx=0;entryDy=0;" parent="1" source="zPUTQCQw_UNsr4DKGTQt-133" target="zPUTQCQw_UNsr4DKGTQt-391" edge="1">
          <mxGeometry relative="1" as="geometry" />
        </mxCell>
        <mxCell id="zPUTQCQw_UNsr4DKGTQt-412" value="project_employye" style="shape=table;startSize=30;container=1;collapsible=1;childLayout=tableLayout;fixedRows=1;rowLines=0;fontStyle=1;align=center;resizeLast=1;html=1;whiteSpace=wrap;" parent="1" vertex="1">
          <mxGeometry x="190" y="-390" width="180" height="120" as="geometry" />
        </mxCell>
        <mxCell id="zPUTQCQw_UNsr4DKGTQt-413" value="" style="shape=tableRow;horizontal=0;startSize=0;swimlaneHead=0;swimlaneBody=0;fillColor=none;collapsible=0;dropTarget=0;points=[[0,0.5],[1,0.5]];portConstraint=eastwest;top=0;left=0;right=0;bottom=0;html=1;" parent="zPUTQCQw_UNsr4DKGTQt-412" vertex="1">
          <mxGeometry y="30" width="180" height="30" as="geometry" />
        </mxCell>
        <mxCell id="zPUTQCQw_UNsr4DKGTQt-414" value="PK,FK1" style="shape=partialRectangle;connectable=0;fillColor=none;top=0;left=0;bottom=0;right=0;fontStyle=1;overflow=hidden;html=1;whiteSpace=wrap;" parent="zPUTQCQw_UNsr4DKGTQt-413" vertex="1">
          <mxGeometry width="60" height="30" as="geometry">
            <mxRectangle width="60" height="30" as="alternateBounds" />
          </mxGeometry>
        </mxCell>
        <mxCell id="zPUTQCQw_UNsr4DKGTQt-415" value="employee_id" style="shape=partialRectangle;connectable=0;fillColor=none;top=0;left=0;bottom=0;right=0;align=left;spacingLeft=6;fontStyle=5;overflow=hidden;html=1;whiteSpace=wrap;" parent="zPUTQCQw_UNsr4DKGTQt-413" vertex="1">
          <mxGeometry x="60" width="120" height="30" as="geometry">
            <mxRectangle width="120" height="30" as="alternateBounds" />
          </mxGeometry>
        </mxCell>
        <mxCell id="zPUTQCQw_UNsr4DKGTQt-416" value="" style="shape=tableRow;horizontal=0;startSize=0;swimlaneHead=0;swimlaneBody=0;fillColor=none;collapsible=0;dropTarget=0;points=[[0,0.5],[1,0.5]];portConstraint=eastwest;top=0;left=0;right=0;bottom=1;html=1;" parent="zPUTQCQw_UNsr4DKGTQt-412" vertex="1">
          <mxGeometry y="60" width="180" height="30" as="geometry" />
        </mxCell>
        <mxCell id="zPUTQCQw_UNsr4DKGTQt-417" value="PK,FK2" style="shape=partialRectangle;connectable=0;fillColor=none;top=0;left=0;bottom=0;right=0;fontStyle=1;overflow=hidden;html=1;whiteSpace=wrap;" parent="zPUTQCQw_UNsr4DKGTQt-416" vertex="1">
          <mxGeometry width="60" height="30" as="geometry">
            <mxRectangle width="60" height="30" as="alternateBounds" />
          </mxGeometry>
        </mxCell>
        <mxCell id="zPUTQCQw_UNsr4DKGTQt-418" value="project_id" style="shape=partialRectangle;connectable=0;fillColor=none;top=0;left=0;bottom=0;right=0;align=left;spacingLeft=6;fontStyle=5;overflow=hidden;html=1;whiteSpace=wrap;" parent="zPUTQCQw_UNsr4DKGTQt-416" vertex="1">
          <mxGeometry x="60" width="120" height="30" as="geometry">
            <mxRectangle width="120" height="30" as="alternateBounds" />
          </mxGeometry>
        </mxCell>
        <mxCell id="zPUTQCQw_UNsr4DKGTQt-419" value="" style="shape=tableRow;horizontal=0;startSize=0;swimlaneHead=0;swimlaneBody=0;fillColor=none;collapsible=0;dropTarget=0;points=[[0,0.5],[1,0.5]];portConstraint=eastwest;top=0;left=0;right=0;bottom=0;html=1;" parent="zPUTQCQw_UNsr4DKGTQt-412" vertex="1">
          <mxGeometry y="90" width="180" height="30" as="geometry" />
        </mxCell>
        <mxCell id="zPUTQCQw_UNsr4DKGTQt-420" value="" style="shape=partialRectangle;connectable=0;fillColor=none;top=0;left=0;bottom=0;right=0;editable=1;overflow=hidden;html=1;whiteSpace=wrap;" parent="zPUTQCQw_UNsr4DKGTQt-419" vertex="1">
          <mxGeometry width="60" height="30" as="geometry">
            <mxRectangle width="60" height="30" as="alternateBounds" />
          </mxGeometry>
        </mxCell>
        <mxCell id="zPUTQCQw_UNsr4DKGTQt-421" value="hours_worked" style="shape=partialRectangle;connectable=0;fillColor=none;top=0;left=0;bottom=0;right=0;align=left;spacingLeft=6;overflow=hidden;html=1;whiteSpace=wrap;" parent="zPUTQCQw_UNsr4DKGTQt-419" vertex="1">
          <mxGeometry x="60" width="120" height="30" as="geometry">
            <mxRectangle width="120" height="30" as="alternateBounds" />
          </mxGeometry>
        </mxCell>
        <mxCell id="zPUTQCQw_UNsr4DKGTQt-425" style="edgeStyle=orthogonalEdgeStyle;rounded=0;orthogonalLoop=1;jettySize=auto;html=1;startArrow=ERmandOne;startFill=0;endArrow=ERoneToMany;endFill=0;" parent="1" source="zPUTQCQw_UNsr4DKGTQt-53" target="zPUTQCQw_UNsr4DKGTQt-416" edge="1">
          <mxGeometry relative="1" as="geometry" />
        </mxCell>
        <mxCell id="zPUTQCQw_UNsr4DKGTQt-426" style="edgeStyle=orthogonalEdgeStyle;rounded=0;orthogonalLoop=1;jettySize=auto;html=1;entryX=1;entryY=0.5;entryDx=0;entryDy=0;startArrow=ERzeroToOne;startFill=0;endArrow=ERoneToMany;endFill=0;" parent="1" source="zPUTQCQw_UNsr4DKGTQt-16" target="zPUTQCQw_UNsr4DKGTQt-413" edge="1">
          <mxGeometry relative="1" as="geometry" />
        </mxCell>
        <mxCell id="zPUTQCQw_UNsr4DKGTQt-442" value="Employee" style="whiteSpace=wrap;html=1;align=center;perimeterSpacing=0;" parent="1" vertex="1">
          <mxGeometry x="-2660" y="210" width="100" height="40" as="geometry" />
        </mxCell>
        <mxCell id="zPUTQCQw_UNsr4DKGTQt-443" value="employee_id" style="ellipse;whiteSpace=wrap;html=1;align=center;fontStyle=4;" parent="1" vertex="1">
          <mxGeometry x="-2810" y="150" width="100" height="40" as="geometry" />
        </mxCell>
        <mxCell id="zPUTQCQw_UNsr4DKGTQt-445" value="" style="endArrow=none;html=1;rounded=0;exitX=0;exitY=0;exitDx=0;exitDy=0;entryX=1;entryY=1;entryDx=0;entryDy=0;" parent="1" source="zPUTQCQw_UNsr4DKGTQt-442" target="zPUTQCQw_UNsr4DKGTQt-443" edge="1">
          <mxGeometry relative="1" as="geometry">
            <mxPoint x="-2670" y="365" as="sourcePoint" />
            <mxPoint x="-2510" y="365" as="targetPoint" />
          </mxGeometry>
        </mxCell>
        <mxCell id="zPUTQCQw_UNsr4DKGTQt-455" value="first_name" style="ellipse;whiteSpace=wrap;html=1;align=center;" parent="1" vertex="1">
          <mxGeometry x="-2850" y="200" width="100" height="40" as="geometry" />
        </mxCell>
        <mxCell id="zPUTQCQw_UNsr4DKGTQt-456" value="" style="endArrow=none;html=1;rounded=0;" parent="1" source="zPUTQCQw_UNsr4DKGTQt-455" target="zPUTQCQw_UNsr4DKGTQt-442" edge="1">
          <mxGeometry relative="1" as="geometry">
            <mxPoint x="-2560" y="410" as="sourcePoint" />
            <mxPoint x="-2632" y="340" as="targetPoint" />
          </mxGeometry>
        </mxCell>
        <mxCell id="zPUTQCQw_UNsr4DKGTQt-460" value="" style="endArrow=none;html=1;rounded=0;entryX=0.1;entryY=1;entryDx=0;entryDy=0;entryPerimeter=0;" parent="1" source="zPUTQCQw_UNsr4DKGTQt-453" target="zPUTQCQw_UNsr4DKGTQt-442" edge="1">
          <mxGeometry relative="1" as="geometry">
            <mxPoint x="-2710" y="290" as="sourcePoint" />
            <mxPoint x="-2642" y="360" as="targetPoint" />
          </mxGeometry>
        </mxCell>
        <mxCell id="zPUTQCQw_UNsr4DKGTQt-462" value="" style="endArrow=none;html=1;rounded=0;entryX=0.5;entryY=1;entryDx=0;entryDy=0;" parent="1" source="zPUTQCQw_UNsr4DKGTQt-452" target="zPUTQCQw_UNsr4DKGTQt-442" edge="1">
          <mxGeometry relative="1" as="geometry">
            <mxPoint x="-2600" y="330" as="sourcePoint" />
            <mxPoint x="-2662" y="380" as="targetPoint" />
          </mxGeometry>
        </mxCell>
        <mxCell id="zPUTQCQw_UNsr4DKGTQt-464" value="" style="endArrow=none;html=1;rounded=0;entryX=1;entryY=1;entryDx=0;entryDy=0;" parent="1" source="zPUTQCQw_UNsr4DKGTQt-450" target="zPUTQCQw_UNsr4DKGTQt-442" edge="1">
          <mxGeometry relative="1" as="geometry">
            <mxPoint x="-2480" y="250" as="sourcePoint" />
            <mxPoint x="-2400" y="310" as="targetPoint" />
          </mxGeometry>
        </mxCell>
        <mxCell id="zPUTQCQw_UNsr4DKGTQt-466" value="" style="endArrow=none;html=1;rounded=0;entryX=0.01;entryY=0.616;entryDx=0;entryDy=0;entryPerimeter=0;" parent="1" source="zPUTQCQw_UNsr4DKGTQt-454" target="zPUTQCQw_UNsr4DKGTQt-442" edge="1">
          <mxGeometry relative="1" as="geometry">
            <mxPoint x="-2720" y="270" as="sourcePoint" />
            <mxPoint x="-2602" y="355" as="targetPoint" />
          </mxGeometry>
        </mxCell>
        <mxCell id="zPUTQCQw_UNsr4DKGTQt-467" value="&lt;b&gt;Employee:&lt;/b&gt;&lt;br&gt;first_name&lt;br&gt;second_name&lt;br&gt;email&lt;br&gt;phone&lt;br&gt;hire_date&lt;br&gt;salary&lt;br&gt;birth_date&lt;br&gt;gender&lt;br&gt;job_position" style="shape=note;size=20;whiteSpace=wrap;html=1;" parent="1" vertex="1">
          <mxGeometry x="-2990" y="190" width="140" height="185" as="geometry" />
        </mxCell>
        <mxCell id="zPUTQCQw_UNsr4DKGTQt-454" value="second_name" style="ellipse;whiteSpace=wrap;html=1;align=center;" parent="1" vertex="1">
          <mxGeometry x="-2820" y="270" width="100" height="40" as="geometry" />
        </mxCell>
        <mxCell id="zPUTQCQw_UNsr4DKGTQt-453" value="phone" style="ellipse;whiteSpace=wrap;html=1;align=center;" parent="1" vertex="1">
          <mxGeometry x="-2770" y="315" width="100" height="40" as="geometry" />
        </mxCell>
        <mxCell id="zPUTQCQw_UNsr4DKGTQt-452" value="hire_date" style="ellipse;whiteSpace=wrap;html=1;align=center;" parent="1" vertex="1">
          <mxGeometry x="-2700" y="375" width="100" height="40" as="geometry" />
        </mxCell>
        <mxCell id="zPUTQCQw_UNsr4DKGTQt-476" value="" style="edgeStyle=none;shape=connector;rounded=0;orthogonalLoop=1;jettySize=auto;html=1;labelBackgroundColor=default;strokeColor=default;fontFamily=Helvetica;fontSize=11;fontColor=default;endArrow=none;endFill=0;" parent="1" source="zPUTQCQw_UNsr4DKGTQt-442" target="zPUTQCQw_UNsr4DKGTQt-451" edge="1">
          <mxGeometry relative="1" as="geometry">
            <mxPoint x="-2450" y="219.99999999999977" as="targetPoint" />
            <mxPoint x="-2560" y="227" as="sourcePoint" />
          </mxGeometry>
        </mxCell>
        <mxCell id="zPUTQCQw_UNsr4DKGTQt-451" value="salary" style="ellipse;whiteSpace=wrap;html=1;align=center;" parent="1" vertex="1">
          <mxGeometry x="-2670" y="100" width="100" height="40" as="geometry" />
        </mxCell>
        <mxCell id="zPUTQCQw_UNsr4DKGTQt-450" value="birth_date" style="ellipse;whiteSpace=wrap;html=1;align=center;" parent="1" vertex="1">
          <mxGeometry x="-2460" y="375" width="100" height="40" as="geometry" />
        </mxCell>
        <mxCell id="zPUTQCQw_UNsr4DKGTQt-478" value="gender" style="ellipse;whiteSpace=wrap;html=1;align=center;" parent="1" vertex="1">
          <mxGeometry x="-2570" y="340" width="100" height="40" as="geometry" />
        </mxCell>
        <mxCell id="zPUTQCQw_UNsr4DKGTQt-479" value="" style="endArrow=none;html=1;rounded=0;entryX=0.705;entryY=1.066;entryDx=0;entryDy=0;entryPerimeter=0;" parent="1" source="zPUTQCQw_UNsr4DKGTQt-478" target="zPUTQCQw_UNsr4DKGTQt-442" edge="1">
          <mxGeometry relative="1" as="geometry">
            <mxPoint x="-2590" y="340" as="sourcePoint" />
            <mxPoint x="-2600" y="260" as="targetPoint" />
          </mxGeometry>
        </mxCell>
        <mxCell id="zPUTQCQw_UNsr4DKGTQt-482" value="job_position" style="ellipse;whiteSpace=wrap;html=1;align=center;" parent="1" vertex="1">
          <mxGeometry x="-2480" y="140" width="100" height="40" as="geometry" />
        </mxCell>
        <mxCell id="zPUTQCQw_UNsr4DKGTQt-483" value="" style="endArrow=none;html=1;rounded=0;" parent="1" source="zPUTQCQw_UNsr4DKGTQt-482" target="zPUTQCQw_UNsr4DKGTQt-442" edge="1">
          <mxGeometry relative="1" as="geometry">
            <mxPoint x="-2460" y="270" as="sourcePoint" />
            <mxPoint x="-2540" y="270" as="targetPoint" />
          </mxGeometry>
        </mxCell>
        <mxCell id="ha73NsI9D_0XP6oYM-8j-68" style="edgeStyle=none;shape=connector;rounded=0;orthogonalLoop=1;jettySize=auto;html=1;labelBackgroundColor=default;strokeColor=default;fontFamily=Helvetica;fontSize=11;fontColor=default;endArrow=none;endFill=0;" edge="1" parent="1" source="zPUTQCQw_UNsr4DKGTQt-484" target="ha73NsI9D_0XP6oYM-8j-67">
          <mxGeometry relative="1" as="geometry" />
        </mxCell>
        <mxCell id="zPUTQCQw_UNsr4DKGTQt-484" value="Order" style="whiteSpace=wrap;html=1;align=center;perimeterSpacing=0;" parent="1" vertex="1">
          <mxGeometry x="-2140" y="260" width="100" height="40" as="geometry" />
        </mxCell>
        <mxCell id="zPUTQCQw_UNsr4DKGTQt-489" value="" style="endArrow=none;html=1;rounded=0;entryX=0.1;entryY=1;entryDx=0;entryDy=0;entryPerimeter=0;" parent="1" source="zPUTQCQw_UNsr4DKGTQt-494" target="zPUTQCQw_UNsr4DKGTQt-484" edge="1">
          <mxGeometry relative="1" as="geometry">
            <mxPoint x="-2156.4705882353082" y="302.3529411764812" as="sourcePoint" />
            <mxPoint x="-2052" y="380" as="targetPoint" />
          </mxGeometry>
        </mxCell>
        <mxCell id="zPUTQCQw_UNsr4DKGTQt-494" value="shipping_date" style="ellipse;whiteSpace=wrap;html=1;align=center;" parent="1" vertex="1">
          <mxGeometry x="-2260" y="312.5" width="100" height="45" as="geometry" />
        </mxCell>
        <mxCell id="zPUTQCQw_UNsr4DKGTQt-499" value="order_date" style="ellipse;whiteSpace=wrap;html=1;align=center;" parent="1" vertex="1">
          <mxGeometry x="-2130" y="350" width="100" height="40" as="geometry" />
        </mxCell>
        <mxCell id="zPUTQCQw_UNsr4DKGTQt-500" value="" style="endArrow=none;html=1;rounded=0;entryX=0.705;entryY=1.066;entryDx=0;entryDy=0;entryPerimeter=0;" parent="1" source="zPUTQCQw_UNsr4DKGTQt-499" target="zPUTQCQw_UNsr4DKGTQt-484" edge="1">
          <mxGeometry relative="1" as="geometry">
            <mxPoint x="-2000" y="360" as="sourcePoint" />
            <mxPoint x="-2010" y="280" as="targetPoint" />
          </mxGeometry>
        </mxCell>
        <mxCell id="zPUTQCQw_UNsr4DKGTQt-526" value="&lt;b&gt;Customer:&lt;/b&gt;&lt;br&gt;first_name&lt;br&gt;last_name&lt;br&gt;email&lt;br&gt;gender&lt;br&gt;phone" style="shape=note;size=20;whiteSpace=wrap;html=1;fontFamily=Helvetica;fontSize=11;fontColor=default;" parent="1" vertex="1">
          <mxGeometry x="-1503" y="240" width="140" height="110" as="geometry" />
        </mxCell>
        <mxCell id="zPUTQCQw_UNsr4DKGTQt-527" value="&lt;b&gt;Supplier:&lt;/b&gt;&lt;br&gt;name&lt;br&gt;email&lt;br&gt;phone" style="shape=note;size=20;whiteSpace=wrap;html=1;fontFamily=Helvetica;fontSize=11;fontColor=default;" parent="1" vertex="1">
          <mxGeometry x="-1503" y="-317.5" width="103" height="67.5" as="geometry" />
        </mxCell>
        <mxCell id="zPUTQCQw_UNsr4DKGTQt-528" value="&lt;b&gt;Category:&lt;/b&gt;&lt;br&gt;name" style="shape=note;size=20;whiteSpace=wrap;html=1;fontFamily=Helvetica;fontSize=11;fontColor=default;" parent="1" vertex="1">
          <mxGeometry x="-640" y="-420" width="100" height="60" as="geometry" />
        </mxCell>
        <mxCell id="zPUTQCQw_UNsr4DKGTQt-529" value="&lt;b&gt;Country:&lt;/b&gt;&lt;br&gt;name" style="shape=note;size=20;whiteSpace=wrap;html=1;fontFamily=Helvetica;fontSize=11;fontColor=default;" parent="1" vertex="1">
          <mxGeometry x="-1815" y="-760" width="90" height="50" as="geometry" />
        </mxCell>
        <mxCell id="zPUTQCQw_UNsr4DKGTQt-530" value="&lt;b&gt;City:&lt;/b&gt;&lt;br&gt;name&lt;br&gt;street" style="shape=note;size=20;whiteSpace=wrap;html=1;fontFamily=Helvetica;fontSize=11;fontColor=default;" parent="1" vertex="1">
          <mxGeometry x="-1834" y="-407.5" width="80" height="55" as="geometry" />
        </mxCell>
        <mxCell id="zPUTQCQw_UNsr4DKGTQt-531" value="&lt;b&gt;Location:&lt;/b&gt;&lt;br&gt;postal_code" style="shape=note;size=20;whiteSpace=wrap;html=1;fontFamily=Helvetica;fontSize=11;fontColor=default;" parent="1" vertex="1">
          <mxGeometry x="-2050" y="-150" width="70" height="40" as="geometry" />
        </mxCell>
        <mxCell id="zPUTQCQw_UNsr4DKGTQt-551" value="&lt;b&gt;Project:&lt;/b&gt;&lt;br&gt;name&lt;br&gt;start_dat&lt;br&gt;end_date&lt;br&gt;budjet" style="shape=note;size=20;whiteSpace=wrap;html=1;fontFamily=Helvetica;fontSize=11;fontColor=default;" parent="1" vertex="1">
          <mxGeometry x="-2620" y="-530" width="100" height="100" as="geometry" />
        </mxCell>
        <mxCell id="zPUTQCQw_UNsr4DKGTQt-552" value="name" style="ellipse;whiteSpace=wrap;html=1;align=center;fontFamily=Helvetica;fontSize=11;fontColor=default;" parent="1" vertex="1">
          <mxGeometry x="-2600" y="-400" width="100" height="40" as="geometry" />
        </mxCell>
        <mxCell id="zPUTQCQw_UNsr4DKGTQt-558" style="edgeStyle=none;shape=connector;rounded=0;orthogonalLoop=1;jettySize=auto;html=1;labelBackgroundColor=default;strokeColor=default;fontFamily=Helvetica;fontSize=11;fontColor=default;endArrow=none;endFill=0;" parent="1" source="zPUTQCQw_UNsr4DKGTQt-553" target="zPUTQCQw_UNsr4DKGTQt-554" edge="1">
          <mxGeometry relative="1" as="geometry" />
        </mxCell>
        <mxCell id="zPUTQCQw_UNsr4DKGTQt-559" style="edgeStyle=none;shape=connector;rounded=0;orthogonalLoop=1;jettySize=auto;html=1;labelBackgroundColor=default;strokeColor=default;fontFamily=Helvetica;fontSize=11;fontColor=default;endArrow=none;endFill=0;" parent="1" source="zPUTQCQw_UNsr4DKGTQt-553" target="zPUTQCQw_UNsr4DKGTQt-555" edge="1">
          <mxGeometry relative="1" as="geometry" />
        </mxCell>
        <mxCell id="zPUTQCQw_UNsr4DKGTQt-560" style="edgeStyle=none;shape=connector;rounded=0;orthogonalLoop=1;jettySize=auto;html=1;entryX=0.5;entryY=1;entryDx=0;entryDy=0;labelBackgroundColor=default;strokeColor=default;fontFamily=Helvetica;fontSize=11;fontColor=default;endArrow=none;endFill=0;exitX=0.5;exitY=0;exitDx=0;exitDy=0;" parent="1" source="zPUTQCQw_UNsr4DKGTQt-553" target="zPUTQCQw_UNsr4DKGTQt-552" edge="1">
          <mxGeometry relative="1" as="geometry" />
        </mxCell>
        <mxCell id="zPUTQCQw_UNsr4DKGTQt-561" style="edgeStyle=none;shape=connector;rounded=0;orthogonalLoop=1;jettySize=auto;html=1;entryX=1;entryY=0;entryDx=0;entryDy=0;labelBackgroundColor=default;strokeColor=default;fontFamily=Helvetica;fontSize=11;fontColor=default;endArrow=none;endFill=0;" parent="1" source="zPUTQCQw_UNsr4DKGTQt-553" target="zPUTQCQw_UNsr4DKGTQt-557" edge="1">
          <mxGeometry relative="1" as="geometry" />
        </mxCell>
        <mxCell id="zPUTQCQw_UNsr4DKGTQt-562" style="edgeStyle=none;shape=connector;rounded=0;orthogonalLoop=1;jettySize=auto;html=1;entryX=0.627;entryY=1.042;entryDx=0;entryDy=0;entryPerimeter=0;labelBackgroundColor=default;strokeColor=default;fontFamily=Helvetica;fontSize=11;fontColor=default;endArrow=none;endFill=0;" parent="1" source="zPUTQCQw_UNsr4DKGTQt-553" target="zPUTQCQw_UNsr4DKGTQt-556" edge="1">
          <mxGeometry relative="1" as="geometry" />
        </mxCell>
        <mxCell id="zPUTQCQw_UNsr4DKGTQt-553" value="Project" style="whiteSpace=wrap;html=1;align=center;fontFamily=Helvetica;fontSize=11;fontColor=default;" parent="1" vertex="1">
          <mxGeometry x="-2610" y="-300" width="100" height="40" as="geometry" />
        </mxCell>
        <mxCell id="zPUTQCQw_UNsr4DKGTQt-554" value="project_id" style="ellipse;whiteSpace=wrap;html=1;align=center;fontStyle=4;fontFamily=Helvetica;fontSize=11;fontColor=default;" parent="1" vertex="1">
          <mxGeometry x="-2820" y="-200" width="100" height="40" as="geometry" />
        </mxCell>
        <mxCell id="zPUTQCQw_UNsr4DKGTQt-555" value="start_date" style="ellipse;whiteSpace=wrap;html=1;align=center;fontFamily=Helvetica;fontSize=11;fontColor=default;" parent="1" vertex="1">
          <mxGeometry x="-2650" y="-160" width="100" height="40" as="geometry" />
        </mxCell>
        <mxCell id="zPUTQCQw_UNsr4DKGTQt-556" value="end_date" style="ellipse;whiteSpace=wrap;html=1;align=center;fontFamily=Helvetica;fontSize=11;fontColor=default;" parent="1" vertex="1">
          <mxGeometry x="-2750" y="-390" width="100" height="40" as="geometry" />
        </mxCell>
        <mxCell id="zPUTQCQw_UNsr4DKGTQt-557" value="budjet" style="ellipse;whiteSpace=wrap;html=1;align=center;fontFamily=Helvetica;fontSize=11;fontColor=default;" parent="1" vertex="1">
          <mxGeometry x="-2810" y="-292.5" width="100" height="40" as="geometry" />
        </mxCell>
        <mxCell id="ha73NsI9D_0XP6oYM-8j-8" value="&lt;b&gt;Department:&lt;/b&gt;&lt;br&gt;name&lt;br&gt;" style="shape=note;size=20;whiteSpace=wrap;html=1;fontFamily=Helvetica;fontSize=11;fontColor=default;" vertex="1" parent="1">
          <mxGeometry x="-2350" y="-20" width="90" height="55" as="geometry" />
        </mxCell>
        <mxCell id="ha73NsI9D_0XP6oYM-8j-13" style="edgeStyle=orthogonalEdgeStyle;rounded=0;orthogonalLoop=1;jettySize=auto;html=1;startArrow=ERzeroToOne;startFill=0;endArrow=ERoneToMany;endFill=0;entryX=1;entryY=0.5;entryDx=0;entryDy=0;exitX=0;exitY=0.5;exitDx=0;exitDy=0;" edge="1" parent="1" source="zPUTQCQw_UNsr4DKGTQt-91" target="ha73NsI9D_0XP6oYM-8j-9">
          <mxGeometry relative="1" as="geometry">
            <mxPoint x="470" y="935" as="sourcePoint" />
            <mxPoint x="424" y="735" as="targetPoint" />
          </mxGeometry>
        </mxCell>
        <mxCell id="ha73NsI9D_0XP6oYM-8j-16" style="edgeStyle=none;shape=connector;rounded=0;orthogonalLoop=1;jettySize=auto;html=1;labelBackgroundColor=default;strokeColor=default;fontFamily=Helvetica;fontSize=11;fontColor=default;endArrow=none;endFill=0;" edge="1" parent="1" source="ha73NsI9D_0XP6oYM-8j-14" target="ha73NsI9D_0XP6oYM-8j-15">
          <mxGeometry relative="1" as="geometry" />
        </mxCell>
        <mxCell id="ha73NsI9D_0XP6oYM-8j-14" value="Depatment" style="whiteSpace=wrap;html=1;align=center;fontFamily=Helvetica;fontSize=11;fontColor=default;" vertex="1" parent="1">
          <mxGeometry x="-2440" y="-85" width="100" height="40" as="geometry" />
        </mxCell>
        <mxCell id="ha73NsI9D_0XP6oYM-8j-15" value="name" style="ellipse;whiteSpace=wrap;html=1;align=center;fontFamily=Helvetica;fontSize=11;fontColor=default;" vertex="1" parent="1">
          <mxGeometry x="-2440" y="60" width="100" height="40" as="geometry" />
        </mxCell>
        <mxCell id="ha73NsI9D_0XP6oYM-8j-17" value="Relationship" style="shape=rhombus;perimeter=rhombusPerimeter;whiteSpace=wrap;html=1;align=center;fontFamily=Helvetica;fontSize=11;fontColor=default;" vertex="1" parent="1">
          <mxGeometry x="-2500" y="-195" width="120" height="60" as="geometry" />
        </mxCell>
        <mxCell id="ha73NsI9D_0XP6oYM-8j-18" value="" style="endArrow=none;html=1;rounded=0;labelBackgroundColor=default;strokeColor=default;fontFamily=Helvetica;fontSize=11;fontColor=default;shape=connector;" edge="1" parent="1" source="zPUTQCQw_UNsr4DKGTQt-553" target="ha73NsI9D_0XP6oYM-8j-17">
          <mxGeometry relative="1" as="geometry">
            <mxPoint x="-2570" y="-45" as="sourcePoint" />
            <mxPoint x="-2410" y="-45" as="targetPoint" />
          </mxGeometry>
        </mxCell>
        <mxCell id="ha73NsI9D_0XP6oYM-8j-19" value="N" style="resizable=0;html=1;whiteSpace=wrap;align=right;verticalAlign=bottom;fontFamily=Helvetica;fontSize=11;fontColor=default;" connectable="0" vertex="1" parent="ha73NsI9D_0XP6oYM-8j-18">
          <mxGeometry x="1" relative="1" as="geometry">
            <mxPoint x="-21" y="-34" as="offset" />
          </mxGeometry>
        </mxCell>
        <mxCell id="ha73NsI9D_0XP6oYM-8j-20" value="" style="shape=link;html=1;rounded=0;labelBackgroundColor=default;strokeColor=default;fontFamily=Helvetica;fontSize=11;fontColor=default;endArrow=none;endFill=0;entryX=0.5;entryY=0;entryDx=0;entryDy=0;" edge="1" parent="1" source="ha73NsI9D_0XP6oYM-8j-17" target="ha73NsI9D_0XP6oYM-8j-14">
          <mxGeometry relative="1" as="geometry">
            <mxPoint x="-2710" y="14.719999999999999" as="sourcePoint" />
            <mxPoint x="-2550" y="14.719999999999999" as="targetPoint" />
          </mxGeometry>
        </mxCell>
        <mxCell id="ha73NsI9D_0XP6oYM-8j-21" value="1" style="resizable=0;html=1;whiteSpace=wrap;align=right;verticalAlign=bottom;fontFamily=Helvetica;fontSize=11;fontColor=default;" connectable="0" vertex="1" parent="ha73NsI9D_0XP6oYM-8j-20">
          <mxGeometry x="1" relative="1" as="geometry">
            <mxPoint y="-20" as="offset" />
          </mxGeometry>
        </mxCell>
        <mxCell id="ha73NsI9D_0XP6oYM-8j-22" value="Relationship" style="shape=rhombus;perimeter=rhombusPerimeter;whiteSpace=wrap;html=1;align=center;fontFamily=Helvetica;fontSize=11;fontColor=default;" vertex="1" parent="1">
          <mxGeometry x="-2590" y="50" width="120" height="60" as="geometry" />
        </mxCell>
        <mxCell id="ha73NsI9D_0XP6oYM-8j-23" value="" style="shape=link;html=1;rounded=0;labelBackgroundColor=default;strokeColor=default;fontFamily=Helvetica;fontSize=11;fontColor=default;endArrow=none;endFill=0;" edge="1" parent="1" source="ha73NsI9D_0XP6oYM-8j-14" target="ha73NsI9D_0XP6oYM-8j-22">
          <mxGeometry relative="1" as="geometry">
            <mxPoint x="-2790" y="-50.28" as="sourcePoint" />
            <mxPoint x="-2630" y="-50.28" as="targetPoint" />
          </mxGeometry>
        </mxCell>
        <mxCell id="ha73NsI9D_0XP6oYM-8j-24" value="1" style="resizable=0;html=1;whiteSpace=wrap;align=right;verticalAlign=bottom;fontFamily=Helvetica;fontSize=11;fontColor=default;" connectable="0" vertex="1" parent="ha73NsI9D_0XP6oYM-8j-23">
          <mxGeometry x="1" relative="1" as="geometry">
            <mxPoint x="34" y="-28" as="offset" />
          </mxGeometry>
        </mxCell>
        <mxCell id="ha73NsI9D_0XP6oYM-8j-25" value="" style="shape=link;html=1;rounded=0;labelBackgroundColor=default;strokeColor=default;fontFamily=Helvetica;fontSize=11;fontColor=default;endArrow=none;endFill=0;" edge="1" parent="1" source="zPUTQCQw_UNsr4DKGTQt-442" target="ha73NsI9D_0XP6oYM-8j-22">
          <mxGeometry relative="1" as="geometry">
            <mxPoint x="-2610" y="50" as="sourcePoint" />
            <mxPoint x="-2610" y="50" as="targetPoint" />
          </mxGeometry>
        </mxCell>
        <mxCell id="ha73NsI9D_0XP6oYM-8j-26" value="N" style="resizable=0;html=1;whiteSpace=wrap;align=right;verticalAlign=bottom;fontFamily=Helvetica;fontSize=11;fontColor=default;" connectable="0" vertex="1" parent="ha73NsI9D_0XP6oYM-8j-25">
          <mxGeometry x="1" relative="1" as="geometry">
            <mxPoint x="2" y="52" as="offset" />
          </mxGeometry>
        </mxCell>
        <mxCell id="ha73NsI9D_0XP6oYM-8j-27" value="&lt;b&gt;Manager:&lt;/b&gt;&lt;br&gt;first_name&lt;br&gt;second_name&lt;br&gt;email" style="shape=note;size=20;whiteSpace=wrap;html=1;fontFamily=Helvetica;fontSize=11;fontColor=default;" vertex="1" parent="1">
          <mxGeometry x="-2395" y="560" width="105" height="80" as="geometry" />
        </mxCell>
        <mxCell id="ha73NsI9D_0XP6oYM-8j-30" style="edgeStyle=none;shape=connector;rounded=0;orthogonalLoop=1;jettySize=auto;html=1;entryX=1;entryY=1;entryDx=0;entryDy=0;labelBackgroundColor=default;strokeColor=default;fontFamily=Helvetica;fontSize=11;fontColor=default;endArrow=none;endFill=0;" edge="1" parent="1" source="ha73NsI9D_0XP6oYM-8j-28" target="ha73NsI9D_0XP6oYM-8j-29">
          <mxGeometry relative="1" as="geometry" />
        </mxCell>
        <mxCell id="ha73NsI9D_0XP6oYM-8j-33" style="edgeStyle=none;shape=connector;rounded=0;orthogonalLoop=1;jettySize=auto;html=1;entryX=1;entryY=0;entryDx=0;entryDy=0;labelBackgroundColor=default;strokeColor=default;fontFamily=Helvetica;fontSize=11;fontColor=default;endArrow=none;endFill=0;" edge="1" parent="1" source="ha73NsI9D_0XP6oYM-8j-28" target="ha73NsI9D_0XP6oYM-8j-32">
          <mxGeometry relative="1" as="geometry" />
        </mxCell>
        <mxCell id="ha73NsI9D_0XP6oYM-8j-34" style="edgeStyle=none;shape=connector;rounded=0;orthogonalLoop=1;jettySize=auto;html=1;entryX=0.327;entryY=0.967;entryDx=0;entryDy=0;entryPerimeter=0;labelBackgroundColor=default;strokeColor=default;fontFamily=Helvetica;fontSize=11;fontColor=default;endArrow=none;endFill=0;" edge="1" parent="1" source="ha73NsI9D_0XP6oYM-8j-28" target="ha73NsI9D_0XP6oYM-8j-31">
          <mxGeometry relative="1" as="geometry" />
        </mxCell>
        <mxCell id="ha73NsI9D_0XP6oYM-8j-72" style="edgeStyle=none;shape=connector;rounded=0;orthogonalLoop=1;jettySize=auto;html=1;labelBackgroundColor=default;strokeColor=default;fontFamily=Helvetica;fontSize=11;fontColor=default;endArrow=none;endFill=0;" edge="1" parent="1" source="ha73NsI9D_0XP6oYM-8j-28" target="ha73NsI9D_0XP6oYM-8j-71">
          <mxGeometry relative="1" as="geometry" />
        </mxCell>
        <mxCell id="ha73NsI9D_0XP6oYM-8j-28" value="Manager" style="whiteSpace=wrap;html=1;align=center;fontFamily=Helvetica;fontSize=11;fontColor=default;" vertex="1" parent="1">
          <mxGeometry x="-2545" y="590" width="100" height="40" as="geometry" />
        </mxCell>
        <mxCell id="ha73NsI9D_0XP6oYM-8j-29" value="first_name" style="ellipse;whiteSpace=wrap;html=1;align=center;fontFamily=Helvetica;fontSize=11;fontColor=default;" vertex="1" parent="1">
          <mxGeometry x="-2735" y="570" width="100" height="40" as="geometry" />
        </mxCell>
        <mxCell id="ha73NsI9D_0XP6oYM-8j-31" value="second_name" style="ellipse;whiteSpace=wrap;html=1;align=center;fontFamily=Helvetica;fontSize=11;fontColor=default;" vertex="1" parent="1">
          <mxGeometry x="-2635" y="730" width="100" height="40" as="geometry" />
        </mxCell>
        <mxCell id="ha73NsI9D_0XP6oYM-8j-32" value="email" style="ellipse;whiteSpace=wrap;html=1;align=center;fontFamily=Helvetica;fontSize=11;fontColor=default;" vertex="1" parent="1">
          <mxGeometry x="-2745" y="670" width="100" height="40" as="geometry" />
        </mxCell>
        <mxCell id="ha73NsI9D_0XP6oYM-8j-35" value="Relationship" style="shape=rhombus;perimeter=rhombusPerimeter;whiteSpace=wrap;html=1;align=center;fontFamily=Helvetica;fontSize=11;fontColor=default;" vertex="1" parent="1">
          <mxGeometry x="-2625" y="400" width="120" height="60" as="geometry" />
        </mxCell>
        <mxCell id="ha73NsI9D_0XP6oYM-8j-36" value="" style="endArrow=none;html=1;rounded=0;labelBackgroundColor=default;strokeColor=default;fontFamily=Helvetica;fontSize=11;fontColor=default;shape=connector;" edge="1" parent="1" source="ha73NsI9D_0XP6oYM-8j-28" target="ha73NsI9D_0XP6oYM-8j-35">
          <mxGeometry relative="1" as="geometry">
            <mxPoint x="-2495" y="430" as="sourcePoint" />
            <mxPoint x="-2495" y="430" as="targetPoint" />
          </mxGeometry>
        </mxCell>
        <mxCell id="ha73NsI9D_0XP6oYM-8j-37" value="1" style="resizable=0;html=1;whiteSpace=wrap;align=right;verticalAlign=bottom;fontFamily=Helvetica;fontSize=11;fontColor=default;" connectable="0" vertex="1" parent="ha73NsI9D_0XP6oYM-8j-36">
          <mxGeometry x="1" relative="1" as="geometry">
            <mxPoint x="40" y="55" as="offset" />
          </mxGeometry>
        </mxCell>
        <mxCell id="ha73NsI9D_0XP6oYM-8j-38" value="" style="shape=link;html=1;rounded=0;labelBackgroundColor=default;strokeColor=default;fontFamily=Helvetica;fontSize=11;fontColor=default;endArrow=none;endFill=0;entryX=0.591;entryY=0.978;entryDx=0;entryDy=0;entryPerimeter=0;" edge="1" parent="1" source="ha73NsI9D_0XP6oYM-8j-35" target="zPUTQCQw_UNsr4DKGTQt-442">
          <mxGeometry relative="1" as="geometry">
            <mxPoint x="-2500" y="345" as="sourcePoint" />
            <mxPoint x="-2500" y="345" as="targetPoint" />
          </mxGeometry>
        </mxCell>
        <mxCell id="ha73NsI9D_0XP6oYM-8j-39" value="N" style="resizable=0;html=1;whiteSpace=wrap;align=right;verticalAlign=bottom;fontFamily=Helvetica;fontSize=11;fontColor=default;" connectable="0" vertex="1" parent="ha73NsI9D_0XP6oYM-8j-38">
          <mxGeometry x="1" relative="1" as="geometry">
            <mxPoint x="1" y="111" as="offset" />
          </mxGeometry>
        </mxCell>
        <mxCell id="ha73NsI9D_0XP6oYM-8j-40" value="&lt;b&gt;Order:&lt;br&gt;&lt;/b&gt;order_date&lt;br&gt;shipping_date" style="shape=note;size=20;whiteSpace=wrap;html=1;fontFamily=Helvetica;fontSize=11;fontColor=default;" vertex="1" parent="1">
          <mxGeometry x="-2100" y="120" width="80" height="70" as="geometry" />
        </mxCell>
        <mxCell id="ha73NsI9D_0XP6oYM-8j-47" style="edgeStyle=none;shape=connector;rounded=0;orthogonalLoop=1;jettySize=auto;html=1;labelBackgroundColor=default;strokeColor=default;fontFamily=Helvetica;fontSize=11;fontColor=default;endArrow=none;endFill=0;" edge="1" parent="1" source="ha73NsI9D_0XP6oYM-8j-104" target="ha73NsI9D_0XP6oYM-8j-48">
          <mxGeometry relative="1" as="geometry">
            <mxPoint x="-1810" y="330" as="targetPoint" />
          </mxGeometry>
        </mxCell>
        <mxCell id="ha73NsI9D_0XP6oYM-8j-50" style="edgeStyle=none;shape=connector;rounded=0;orthogonalLoop=1;jettySize=auto;html=1;labelBackgroundColor=default;strokeColor=default;fontFamily=Helvetica;fontSize=11;fontColor=default;endArrow=none;endFill=0;" edge="1" parent="1" source="ha73NsI9D_0XP6oYM-8j-104" target="ha73NsI9D_0XP6oYM-8j-52">
          <mxGeometry relative="1" as="geometry">
            <mxPoint x="-1610" y="260" as="targetPoint" />
          </mxGeometry>
        </mxCell>
        <mxCell id="ha73NsI9D_0XP6oYM-8j-54" style="edgeStyle=none;shape=connector;rounded=0;orthogonalLoop=1;jettySize=auto;html=1;labelBackgroundColor=default;strokeColor=default;fontFamily=Helvetica;fontSize=11;fontColor=default;endArrow=none;endFill=0;" edge="1" parent="1" source="ha73NsI9D_0XP6oYM-8j-104" target="ha73NsI9D_0XP6oYM-8j-53">
          <mxGeometry relative="1" as="geometry" />
        </mxCell>
        <mxCell id="ha73NsI9D_0XP6oYM-8j-56" style="edgeStyle=none;shape=connector;rounded=0;orthogonalLoop=1;jettySize=auto;html=1;labelBackgroundColor=default;strokeColor=default;fontFamily=Helvetica;fontSize=11;fontColor=default;endArrow=none;endFill=0;" edge="1" parent="1" source="ha73NsI9D_0XP6oYM-8j-104" target="ha73NsI9D_0XP6oYM-8j-55">
          <mxGeometry relative="1" as="geometry" />
        </mxCell>
        <mxCell id="ha73NsI9D_0XP6oYM-8j-58" style="edgeStyle=none;shape=connector;rounded=0;orthogonalLoop=1;jettySize=auto;html=1;labelBackgroundColor=default;strokeColor=default;fontFamily=Helvetica;fontSize=11;fontColor=default;endArrow=none;endFill=0;" edge="1" parent="1" source="ha73NsI9D_0XP6oYM-8j-104" target="ha73NsI9D_0XP6oYM-8j-57">
          <mxGeometry relative="1" as="geometry" />
        </mxCell>
        <mxCell id="ha73NsI9D_0XP6oYM-8j-48" value="first_name" style="ellipse;whiteSpace=wrap;html=1;align=center;fontFamily=Helvetica;fontSize=11;fontColor=default;" vertex="1" parent="1">
          <mxGeometry x="-1920" y="340" width="100" height="40" as="geometry" />
        </mxCell>
        <mxCell id="ha73NsI9D_0XP6oYM-8j-52" value="last_name" style="ellipse;whiteSpace=wrap;html=1;align=center;fontFamily=Helvetica;fontSize=11;fontColor=default;" vertex="1" parent="1">
          <mxGeometry x="-1660" y="190" width="100" height="40" as="geometry" />
        </mxCell>
        <mxCell id="ha73NsI9D_0XP6oYM-8j-53" value="email" style="ellipse;whiteSpace=wrap;html=1;align=center;fontFamily=Helvetica;fontSize=11;fontColor=default;" vertex="1" parent="1">
          <mxGeometry x="-1860" y="390" width="100" height="40" as="geometry" />
        </mxCell>
        <mxCell id="ha73NsI9D_0XP6oYM-8j-55" value="gender" style="ellipse;whiteSpace=wrap;html=1;align=center;fontFamily=Helvetica;fontSize=11;fontColor=default;" vertex="1" parent="1">
          <mxGeometry x="-1754" y="130" width="100" height="40" as="geometry" />
        </mxCell>
        <mxCell id="ha73NsI9D_0XP6oYM-8j-57" value="phone" style="ellipse;whiteSpace=wrap;html=1;align=center;fontFamily=Helvetica;fontSize=11;fontColor=default;" vertex="1" parent="1">
          <mxGeometry x="-1730" y="380" width="100" height="40" as="geometry" />
        </mxCell>
        <mxCell id="ha73NsI9D_0XP6oYM-8j-66" style="edgeStyle=none;shape=connector;rounded=0;orthogonalLoop=1;jettySize=auto;html=1;labelBackgroundColor=default;strokeColor=default;fontFamily=Helvetica;fontSize=11;fontColor=default;endArrow=none;endFill=0;" edge="1" parent="1" source="ha73NsI9D_0XP6oYM-8j-65" target="ha73NsI9D_0XP6oYM-8j-104">
          <mxGeometry relative="1" as="geometry" />
        </mxCell>
        <mxCell id="ha73NsI9D_0XP6oYM-8j-65" value="customer_id" style="ellipse;whiteSpace=wrap;html=1;align=center;fontStyle=4;fontFamily=Helvetica;fontSize=11;fontColor=default;" vertex="1" parent="1">
          <mxGeometry x="-1620" y="315" width="100" height="40" as="geometry" />
        </mxCell>
        <mxCell id="ha73NsI9D_0XP6oYM-8j-67" value="order_id" style="ellipse;whiteSpace=wrap;html=1;align=center;fontStyle=4;fontFamily=Helvetica;fontSize=11;fontColor=default;" vertex="1" parent="1">
          <mxGeometry x="-2220" y="190" width="100" height="40" as="geometry" />
        </mxCell>
        <mxCell id="ha73NsI9D_0XP6oYM-8j-70" style="edgeStyle=none;shape=connector;rounded=0;orthogonalLoop=1;jettySize=auto;html=1;labelBackgroundColor=default;strokeColor=default;fontFamily=Helvetica;fontSize=11;fontColor=default;endArrow=none;endFill=0;" edge="1" parent="1" source="ha73NsI9D_0XP6oYM-8j-69" target="ha73NsI9D_0XP6oYM-8j-14">
          <mxGeometry relative="1" as="geometry" />
        </mxCell>
        <mxCell id="ha73NsI9D_0XP6oYM-8j-69" value="department_id" style="ellipse;whiteSpace=wrap;html=1;align=center;fontFamily=Helvetica;fontSize=11;fontColor=default;" vertex="1" parent="1">
          <mxGeometry x="-2590" y="-70" width="100" height="40" as="geometry" />
        </mxCell>
        <mxCell id="ha73NsI9D_0XP6oYM-8j-71" value="manager_id" style="ellipse;whiteSpace=wrap;html=1;align=center;fontStyle=4;fontFamily=Helvetica;fontSize=11;fontColor=default;" vertex="1" parent="1">
          <mxGeometry x="-2495" y="710" width="100" height="40" as="geometry" />
        </mxCell>
        <mxCell id="ha73NsI9D_0XP6oYM-8j-73" value="postal_code" style="ellipse;whiteSpace=wrap;html=1;align=center;fontFamily=Helvetica;fontSize=11;fontColor=default;" vertex="1" parent="1">
          <mxGeometry x="-1840" y="-40" width="100" height="40" as="geometry" />
        </mxCell>
        <mxCell id="ha73NsI9D_0XP6oYM-8j-75" style="edgeStyle=none;shape=connector;rounded=0;orthogonalLoop=1;jettySize=auto;html=1;labelBackgroundColor=default;strokeColor=default;fontFamily=Helvetica;fontSize=11;fontColor=default;endArrow=none;endFill=0;" edge="1" parent="1" source="ha73NsI9D_0XP6oYM-8j-74" target="ha73NsI9D_0XP6oYM-8j-73">
          <mxGeometry relative="1" as="geometry" />
        </mxCell>
        <mxCell id="ha73NsI9D_0XP6oYM-8j-143" style="edgeStyle=none;shape=connector;rounded=0;orthogonalLoop=1;jettySize=auto;html=1;labelBackgroundColor=default;strokeColor=default;fontFamily=Helvetica;fontSize=11;fontColor=default;endArrow=none;endFill=0;" edge="1" parent="1" source="ha73NsI9D_0XP6oYM-8j-74" target="ha73NsI9D_0XP6oYM-8j-142">
          <mxGeometry relative="1" as="geometry" />
        </mxCell>
        <mxCell id="ha73NsI9D_0XP6oYM-8j-74" value="Location" style="whiteSpace=wrap;html=1;align=center;fontFamily=Helvetica;fontSize=11;fontColor=default;" vertex="1" parent="1">
          <mxGeometry x="-1980" y="-100" width="100" height="40" as="geometry" />
        </mxCell>
        <mxCell id="ha73NsI9D_0XP6oYM-8j-76" value="Relationship" style="shape=rhombus;perimeter=rhombusPerimeter;whiteSpace=wrap;html=1;align=center;fontFamily=Helvetica;fontSize=11;fontColor=default;" vertex="1" parent="1">
          <mxGeometry x="-1980" y="40" width="120" height="60" as="geometry" />
        </mxCell>
        <mxCell id="ha73NsI9D_0XP6oYM-8j-77" value="" style="endArrow=none;html=1;rounded=0;labelBackgroundColor=default;strokeColor=default;fontFamily=Helvetica;fontSize=11;fontColor=default;shape=connector;" edge="1" parent="1" source="ha73NsI9D_0XP6oYM-8j-74" target="ha73NsI9D_0XP6oYM-8j-76">
          <mxGeometry relative="1" as="geometry">
            <mxPoint x="-1657" y="475" as="sourcePoint" />
            <mxPoint x="-1657" y="475" as="targetPoint" />
          </mxGeometry>
        </mxCell>
        <mxCell id="ha73NsI9D_0XP6oYM-8j-78" value="1" style="resizable=0;html=1;whiteSpace=wrap;align=right;verticalAlign=bottom;fontFamily=Helvetica;fontSize=11;fontColor=default;" connectable="0" vertex="1" parent="ha73NsI9D_0XP6oYM-8j-77">
          <mxGeometry x="1" relative="1" as="geometry">
            <mxPoint x="12" y="-41" as="offset" />
          </mxGeometry>
        </mxCell>
        <mxCell id="ha73NsI9D_0XP6oYM-8j-79" value="" style="shape=link;html=1;rounded=0;labelBackgroundColor=default;strokeColor=default;fontFamily=Helvetica;fontSize=11;fontColor=default;endArrow=none;endFill=0;" edge="1" parent="1" source="ha73NsI9D_0XP6oYM-8j-76" target="ha73NsI9D_0XP6oYM-8j-104">
          <mxGeometry relative="1" as="geometry">
            <mxPoint x="-1667" y="290" as="sourcePoint" />
            <mxPoint x="-1667" y="290" as="targetPoint" />
          </mxGeometry>
        </mxCell>
        <mxCell id="ha73NsI9D_0XP6oYM-8j-80" value="N" style="resizable=0;html=1;whiteSpace=wrap;align=right;verticalAlign=bottom;fontFamily=Helvetica;fontSize=11;fontColor=default;" connectable="0" vertex="1" parent="ha73NsI9D_0XP6oYM-8j-79">
          <mxGeometry x="1" relative="1" as="geometry">
            <mxPoint x="-23" y="-66" as="offset" />
          </mxGeometry>
        </mxCell>
        <mxCell id="ha73NsI9D_0XP6oYM-8j-81" value="" style="endArrow=none;html=1;rounded=0;labelBackgroundColor=default;strokeColor=default;fontFamily=Helvetica;fontSize=11;fontColor=default;shape=connector;" edge="1" target="ha73NsI9D_0XP6oYM-8j-83" parent="1" source="ha73NsI9D_0XP6oYM-8j-74">
          <mxGeometry relative="1" as="geometry">
            <mxPoint x="-2199" y="-281" as="sourcePoint" />
            <mxPoint x="-1927" y="254" as="targetPoint" />
          </mxGeometry>
        </mxCell>
        <mxCell id="ha73NsI9D_0XP6oYM-8j-82" value="1" style="resizable=0;html=1;whiteSpace=wrap;align=right;verticalAlign=bottom;fontFamily=Helvetica;fontSize=11;fontColor=default;" connectable="0" vertex="1" parent="ha73NsI9D_0XP6oYM-8j-81">
          <mxGeometry x="1" relative="1" as="geometry">
            <mxPoint x="54" y="-12" as="offset" />
          </mxGeometry>
        </mxCell>
        <mxCell id="ha73NsI9D_0XP6oYM-8j-83" value="Relationship" style="shape=rhombus;perimeter=rhombusPerimeter;whiteSpace=wrap;html=1;align=center;fontFamily=Helvetica;fontSize=11;fontColor=default;" vertex="1" parent="1">
          <mxGeometry x="-2240" y="-120" width="120" height="60" as="geometry" />
        </mxCell>
        <mxCell id="ha73NsI9D_0XP6oYM-8j-84" value="" style="shape=link;html=1;rounded=0;labelBackgroundColor=default;strokeColor=default;fontFamily=Helvetica;fontSize=11;fontColor=default;endArrow=none;endFill=0;" edge="1" source="ha73NsI9D_0XP6oYM-8j-83" parent="1" target="ha73NsI9D_0XP6oYM-8j-14">
          <mxGeometry relative="1" as="geometry">
            <mxPoint x="-1937" y="69" as="sourcePoint" />
            <mxPoint x="-2057" as="targetPoint" />
          </mxGeometry>
        </mxCell>
        <mxCell id="ha73NsI9D_0XP6oYM-8j-85" value="N" style="resizable=0;html=1;whiteSpace=wrap;align=right;verticalAlign=bottom;fontFamily=Helvetica;fontSize=11;fontColor=default;" connectable="0" vertex="1" parent="ha73NsI9D_0XP6oYM-8j-84">
          <mxGeometry x="1" relative="1" as="geometry">
            <mxPoint x="50" y="-14" as="offset" />
          </mxGeometry>
        </mxCell>
        <mxCell id="ha73NsI9D_0XP6oYM-8j-88" style="edgeStyle=none;shape=connector;rounded=0;orthogonalLoop=1;jettySize=auto;html=1;labelBackgroundColor=default;strokeColor=default;fontFamily=Helvetica;fontSize=11;fontColor=default;endArrow=none;endFill=0;" edge="1" parent="1" source="ha73NsI9D_0XP6oYM-8j-101" target="ha73NsI9D_0XP6oYM-8j-103">
          <mxGeometry relative="1" as="geometry">
            <mxPoint x="-1510.1137450856804" y="-183.65172284015352" as="sourcePoint" />
          </mxGeometry>
        </mxCell>
        <mxCell id="ha73NsI9D_0XP6oYM-8j-90" style="edgeStyle=none;shape=connector;rounded=0;orthogonalLoop=1;jettySize=auto;html=1;labelBackgroundColor=default;strokeColor=default;fontFamily=Helvetica;fontSize=11;fontColor=default;endArrow=none;endFill=0;" edge="1" parent="1" source="ha73NsI9D_0XP6oYM-8j-101" target="ha73NsI9D_0XP6oYM-8j-102">
          <mxGeometry relative="1" as="geometry">
            <mxPoint x="-1558.1939504385855" y="-165.01305152034251" as="sourcePoint" />
            <mxPoint x="-1550.521739130435" y="-95" as="targetPoint" />
          </mxGeometry>
        </mxCell>
        <mxCell id="ha73NsI9D_0XP6oYM-8j-92" style="edgeStyle=none;shape=connector;rounded=0;orthogonalLoop=1;jettySize=auto;html=1;labelBackgroundColor=default;strokeColor=default;fontFamily=Helvetica;fontSize=11;fontColor=default;endArrow=none;endFill=0;" edge="1" parent="1" source="ha73NsI9D_0XP6oYM-8j-101" target="ha73NsI9D_0XP6oYM-8j-91">
          <mxGeometry relative="1" as="geometry">
            <mxPoint x="-1567.3080528136343" y="-204.78521615398495" as="sourcePoint" />
          </mxGeometry>
        </mxCell>
        <mxCell id="ha73NsI9D_0XP6oYM-8j-91" value="phone" style="ellipse;whiteSpace=wrap;html=1;align=center;fontFamily=Helvetica;fontSize=11;fontColor=default;" vertex="1" parent="1">
          <mxGeometry x="-1640" y="-285" width="100" height="40" as="geometry" />
        </mxCell>
        <mxCell id="ha73NsI9D_0XP6oYM-8j-93" value="" style="endArrow=none;html=1;rounded=0;labelBackgroundColor=default;strokeColor=default;fontFamily=Helvetica;fontSize=11;fontColor=default;shape=connector;" edge="1" target="ha73NsI9D_0XP6oYM-8j-95" parent="1" source="ha73NsI9D_0XP6oYM-8j-74">
          <mxGeometry relative="1" as="geometry">
            <mxPoint x="-1779" y="-351" as="sourcePoint" />
            <mxPoint x="-1507" y="184" as="targetPoint" />
          </mxGeometry>
        </mxCell>
        <mxCell id="ha73NsI9D_0XP6oYM-8j-94" value="1" style="resizable=0;html=1;whiteSpace=wrap;align=right;verticalAlign=bottom;fontFamily=Helvetica;fontSize=11;fontColor=default;" connectable="0" vertex="1" parent="ha73NsI9D_0XP6oYM-8j-93">
          <mxGeometry x="1" relative="1" as="geometry">
            <mxPoint x="-53" y="9" as="offset" />
          </mxGeometry>
        </mxCell>
        <mxCell id="ha73NsI9D_0XP6oYM-8j-95" value="Relationship" style="shape=rhombus;perimeter=rhombusPerimeter;whiteSpace=wrap;html=1;align=center;fontFamily=Helvetica;fontSize=11;fontColor=default;" vertex="1" parent="1">
          <mxGeometry x="-1790" y="-170" width="120" height="60" as="geometry" />
        </mxCell>
        <mxCell id="ha73NsI9D_0XP6oYM-8j-96" value="" style="shape=link;html=1;rounded=0;labelBackgroundColor=default;strokeColor=default;fontFamily=Helvetica;fontSize=11;fontColor=default;endArrow=none;endFill=0;" edge="1" source="ha73NsI9D_0XP6oYM-8j-95" parent="1" target="ha73NsI9D_0XP6oYM-8j-101">
          <mxGeometry relative="1" as="geometry">
            <mxPoint x="-1517" y="-1" as="sourcePoint" />
            <mxPoint x="-1601.7145836991253" y="-173.97353360819307" as="targetPoint" />
          </mxGeometry>
        </mxCell>
        <mxCell id="ha73NsI9D_0XP6oYM-8j-97" value="N" style="resizable=0;html=1;whiteSpace=wrap;align=right;verticalAlign=bottom;fontFamily=Helvetica;fontSize=11;fontColor=default;" connectable="0" vertex="1" parent="ha73NsI9D_0XP6oYM-8j-96">
          <mxGeometry x="1" relative="1" as="geometry">
            <mxPoint x="-38" y="4" as="offset" />
          </mxGeometry>
        </mxCell>
        <mxCell id="ha73NsI9D_0XP6oYM-8j-106" style="edgeStyle=none;shape=connector;rounded=0;orthogonalLoop=1;jettySize=auto;html=1;labelBackgroundColor=default;strokeColor=default;fontFamily=Helvetica;fontSize=11;fontColor=default;endArrow=none;endFill=0;" edge="1" parent="1" source="ha73NsI9D_0XP6oYM-8j-99" target="ha73NsI9D_0XP6oYM-8j-105">
          <mxGeometry relative="1" as="geometry" />
        </mxCell>
        <mxCell id="ha73NsI9D_0XP6oYM-8j-107" style="edgeStyle=none;shape=connector;rounded=0;orthogonalLoop=1;jettySize=auto;html=1;labelBackgroundColor=default;strokeColor=default;fontFamily=Helvetica;fontSize=11;fontColor=default;endArrow=none;endFill=0;" edge="1" parent="1" source="ha73NsI9D_0XP6oYM-8j-99" target="ha73NsI9D_0XP6oYM-8j-100">
          <mxGeometry relative="1" as="geometry" />
        </mxCell>
        <mxCell id="ha73NsI9D_0XP6oYM-8j-145" style="edgeStyle=none;shape=connector;rounded=0;orthogonalLoop=1;jettySize=auto;html=1;labelBackgroundColor=default;strokeColor=default;fontFamily=Helvetica;fontSize=11;fontColor=default;endArrow=none;endFill=0;" edge="1" parent="1" source="ha73NsI9D_0XP6oYM-8j-99" target="ha73NsI9D_0XP6oYM-8j-144">
          <mxGeometry relative="1" as="geometry" />
        </mxCell>
        <mxCell id="ha73NsI9D_0XP6oYM-8j-99" value="City" style="whiteSpace=wrap;html=1;align=center;fontFamily=Helvetica;fontSize=11;fontColor=default;" vertex="1" parent="1">
          <mxGeometry x="-1990" y="-390" width="100" height="40" as="geometry" />
        </mxCell>
        <mxCell id="ha73NsI9D_0XP6oYM-8j-100" value="steet" style="ellipse;whiteSpace=wrap;html=1;align=center;fontFamily=Helvetica;fontSize=11;fontColor=default;" vertex="1" parent="1">
          <mxGeometry x="-2150" y="-350" width="100" height="40" as="geometry" />
        </mxCell>
        <mxCell id="ha73NsI9D_0XP6oYM-8j-140" style="edgeStyle=none;shape=connector;rounded=0;orthogonalLoop=1;jettySize=auto;html=1;labelBackgroundColor=default;strokeColor=default;fontFamily=Helvetica;fontSize=11;fontColor=default;endArrow=none;endFill=0;" edge="1" parent="1" source="ha73NsI9D_0XP6oYM-8j-101" target="ha73NsI9D_0XP6oYM-8j-139">
          <mxGeometry relative="1" as="geometry" />
        </mxCell>
        <mxCell id="ha73NsI9D_0XP6oYM-8j-101" value="Supplier" style="whiteSpace=wrap;html=1;align=center;fontFamily=Helvetica;fontSize=11;fontColor=default;" vertex="1" parent="1">
          <mxGeometry x="-1603" y="-210" width="100" height="40" as="geometry" />
        </mxCell>
        <mxCell id="ha73NsI9D_0XP6oYM-8j-102" value="email" style="ellipse;whiteSpace=wrap;html=1;align=center;fontFamily=Helvetica;fontSize=11;fontColor=default;" vertex="1" parent="1">
          <mxGeometry x="-1603" y="-110" width="100" height="40" as="geometry" />
        </mxCell>
        <mxCell id="ha73NsI9D_0XP6oYM-8j-103" value="name" style="ellipse;whiteSpace=wrap;html=1;align=center;fontFamily=Helvetica;fontSize=11;fontColor=default;" vertex="1" parent="1">
          <mxGeometry x="-1440" y="-30" width="100" height="40" as="geometry" />
        </mxCell>
        <mxCell id="ha73NsI9D_0XP6oYM-8j-104" value="Customer" style="whiteSpace=wrap;html=1;align=center;fontFamily=Helvetica;fontSize=11;fontColor=default;" vertex="1" parent="1">
          <mxGeometry x="-1820" y="220" width="100" height="40" as="geometry" />
        </mxCell>
        <mxCell id="ha73NsI9D_0XP6oYM-8j-105" value="name" style="ellipse;whiteSpace=wrap;html=1;align=center;fontFamily=Helvetica;fontSize=11;fontColor=default;" vertex="1" parent="1">
          <mxGeometry x="-2160" y="-460" width="100" height="35" as="geometry" />
        </mxCell>
        <mxCell id="ha73NsI9D_0XP6oYM-8j-108" value="" style="shape=link;html=1;rounded=0;labelBackgroundColor=default;strokeColor=default;fontFamily=Helvetica;fontSize=11;fontColor=default;endArrow=none;endFill=0;" edge="1" parent="1" source="ha73NsI9D_0XP6oYM-8j-74" target="ha73NsI9D_0XP6oYM-8j-110">
          <mxGeometry relative="1" as="geometry">
            <mxPoint x="-1930" y="-260" as="sourcePoint" />
            <mxPoint x="-1930" y="-200" as="targetPoint" />
          </mxGeometry>
        </mxCell>
        <mxCell id="ha73NsI9D_0XP6oYM-8j-109" value="N" style="resizable=0;html=1;whiteSpace=wrap;align=right;verticalAlign=bottom;fontFamily=Helvetica;fontSize=11;fontColor=default;" connectable="0" vertex="1" parent="ha73NsI9D_0XP6oYM-8j-108">
          <mxGeometry x="1" relative="1" as="geometry">
            <mxPoint x="-10" y="50" as="offset" />
          </mxGeometry>
        </mxCell>
        <mxCell id="ha73NsI9D_0XP6oYM-8j-110" value="Relationship" style="shape=rhombus;perimeter=rhombusPerimeter;whiteSpace=wrap;html=1;align=center;fontFamily=Helvetica;fontSize=11;fontColor=default;" vertex="1" parent="1">
          <mxGeometry x="-1990" y="-230" width="120" height="60" as="geometry" />
        </mxCell>
        <mxCell id="ha73NsI9D_0XP6oYM-8j-111" value="" style="shape=link;html=1;rounded=0;labelBackgroundColor=default;strokeColor=default;fontFamily=Helvetica;fontSize=11;fontColor=default;endArrow=none;endFill=0;" edge="1" parent="1" source="ha73NsI9D_0XP6oYM-8j-110" target="ha73NsI9D_0XP6oYM-8j-99">
          <mxGeometry relative="1" as="geometry">
            <mxPoint x="-1930" y="-390" as="sourcePoint" />
            <mxPoint x="-1930" y="-390" as="targetPoint" />
          </mxGeometry>
        </mxCell>
        <mxCell id="ha73NsI9D_0XP6oYM-8j-112" value="1" style="resizable=0;html=1;whiteSpace=wrap;align=right;verticalAlign=bottom;fontFamily=Helvetica;fontSize=11;fontColor=default;" connectable="0" vertex="1" parent="ha73NsI9D_0XP6oYM-8j-111">
          <mxGeometry x="1" relative="1" as="geometry">
            <mxPoint x="-1" y="50" as="offset" />
          </mxGeometry>
        </mxCell>
        <mxCell id="ha73NsI9D_0XP6oYM-8j-115" style="edgeStyle=none;shape=connector;rounded=0;orthogonalLoop=1;jettySize=auto;html=1;labelBackgroundColor=default;strokeColor=default;fontFamily=Helvetica;fontSize=11;fontColor=default;endArrow=none;endFill=0;" edge="1" parent="1" source="ha73NsI9D_0XP6oYM-8j-113" target="ha73NsI9D_0XP6oYM-8j-114">
          <mxGeometry relative="1" as="geometry" />
        </mxCell>
        <mxCell id="ha73NsI9D_0XP6oYM-8j-147" style="edgeStyle=none;shape=connector;rounded=0;orthogonalLoop=1;jettySize=auto;html=1;labelBackgroundColor=default;strokeColor=default;fontFamily=Helvetica;fontSize=11;fontColor=default;endArrow=none;endFill=0;" edge="1" parent="1" source="ha73NsI9D_0XP6oYM-8j-113" target="ha73NsI9D_0XP6oYM-8j-146">
          <mxGeometry relative="1" as="geometry" />
        </mxCell>
        <mxCell id="ha73NsI9D_0XP6oYM-8j-113" value="Country" style="whiteSpace=wrap;html=1;align=center;fontFamily=Helvetica;fontSize=11;fontColor=default;" vertex="1" parent="1">
          <mxGeometry x="-1980" y="-715" width="100" height="40" as="geometry" />
        </mxCell>
        <mxCell id="ha73NsI9D_0XP6oYM-8j-114" value="name" style="ellipse;whiteSpace=wrap;html=1;align=center;fontFamily=Helvetica;fontSize=11;fontColor=default;" vertex="1" parent="1">
          <mxGeometry x="-2010" y="-830" width="100" height="40" as="geometry" />
        </mxCell>
        <mxCell id="ha73NsI9D_0XP6oYM-8j-116" value="" style="shape=link;html=1;rounded=0;labelBackgroundColor=default;strokeColor=default;fontFamily=Helvetica;fontSize=11;fontColor=default;endArrow=none;endFill=0;" edge="1" parent="1" target="ha73NsI9D_0XP6oYM-8j-118" source="ha73NsI9D_0XP6oYM-8j-99">
          <mxGeometry relative="1" as="geometry">
            <mxPoint x="-1839.230769230769" y="-415" as="sourcePoint" />
            <mxPoint x="-1780" y="-525" as="targetPoint" />
          </mxGeometry>
        </mxCell>
        <mxCell id="ha73NsI9D_0XP6oYM-8j-117" value="N" style="resizable=0;html=1;whiteSpace=wrap;align=right;verticalAlign=bottom;fontFamily=Helvetica;fontSize=11;fontColor=default;" connectable="0" vertex="1" parent="ha73NsI9D_0XP6oYM-8j-116">
          <mxGeometry x="1" relative="1" as="geometry">
            <mxPoint x="-10" y="50" as="offset" />
          </mxGeometry>
        </mxCell>
        <mxCell id="ha73NsI9D_0XP6oYM-8j-118" value="Relationship" style="shape=rhombus;perimeter=rhombusPerimeter;whiteSpace=wrap;html=1;align=center;fontFamily=Helvetica;fontSize=11;fontColor=default;" vertex="1" parent="1">
          <mxGeometry x="-2050" y="-555" width="120" height="60" as="geometry" />
        </mxCell>
        <mxCell id="ha73NsI9D_0XP6oYM-8j-119" value="" style="shape=link;html=1;rounded=0;labelBackgroundColor=default;strokeColor=default;fontFamily=Helvetica;fontSize=11;fontColor=default;endArrow=none;endFill=0;" edge="1" parent="1" source="ha73NsI9D_0XP6oYM-8j-118" target="ha73NsI9D_0XP6oYM-8j-113">
          <mxGeometry relative="1" as="geometry">
            <mxPoint x="-1780" y="-715" as="sourcePoint" />
            <mxPoint x="-1833.8461538461534" y="-699.9999999999999" as="targetPoint" />
          </mxGeometry>
        </mxCell>
        <mxCell id="ha73NsI9D_0XP6oYM-8j-120" value="1" style="resizable=0;html=1;whiteSpace=wrap;align=right;verticalAlign=bottom;fontFamily=Helvetica;fontSize=11;fontColor=default;" connectable="0" vertex="1" parent="ha73NsI9D_0XP6oYM-8j-119">
          <mxGeometry x="1" relative="1" as="geometry">
            <mxPoint x="-1" y="50" as="offset" />
          </mxGeometry>
        </mxCell>
        <mxCell id="ha73NsI9D_0XP6oYM-8j-123" style="edgeStyle=none;shape=connector;rounded=0;orthogonalLoop=1;jettySize=auto;html=1;labelBackgroundColor=default;strokeColor=default;fontFamily=Helvetica;fontSize=11;fontColor=default;endArrow=none;endFill=0;" edge="1" parent="1" source="ha73NsI9D_0XP6oYM-8j-121" target="ha73NsI9D_0XP6oYM-8j-122">
          <mxGeometry relative="1" as="geometry" />
        </mxCell>
        <mxCell id="ha73NsI9D_0XP6oYM-8j-151" style="edgeStyle=none;shape=connector;rounded=0;orthogonalLoop=1;jettySize=auto;html=1;labelBackgroundColor=default;strokeColor=default;fontFamily=Helvetica;fontSize=11;fontColor=default;endArrow=none;endFill=0;" edge="1" parent="1" source="ha73NsI9D_0XP6oYM-8j-121" target="ha73NsI9D_0XP6oYM-8j-150">
          <mxGeometry relative="1" as="geometry" />
        </mxCell>
        <mxCell id="ha73NsI9D_0XP6oYM-8j-121" value="Category" style="whiteSpace=wrap;html=1;align=center;fontFamily=Helvetica;fontSize=11;fontColor=default;" vertex="1" parent="1">
          <mxGeometry x="-780" y="-450" width="100" height="40" as="geometry" />
        </mxCell>
        <mxCell id="ha73NsI9D_0XP6oYM-8j-122" value="name" style="ellipse;whiteSpace=wrap;html=1;align=center;fontFamily=Helvetica;fontSize=11;fontColor=default;" vertex="1" parent="1">
          <mxGeometry x="-760" y="-360" width="100" height="40" as="geometry" />
        </mxCell>
        <mxCell id="ha73NsI9D_0XP6oYM-8j-124" value="&lt;b&gt;Product:&lt;/b&gt;&lt;br&gt;name" style="shape=note;size=20;whiteSpace=wrap;html=1;fontFamily=Helvetica;fontSize=11;fontColor=default;" vertex="1" parent="1">
          <mxGeometry x="-990" y="-245" width="90" height="50" as="geometry" />
        </mxCell>
        <mxCell id="ha73NsI9D_0XP6oYM-8j-127" style="edgeStyle=none;shape=connector;rounded=0;orthogonalLoop=1;jettySize=auto;html=1;labelBackgroundColor=default;strokeColor=default;fontFamily=Helvetica;fontSize=11;fontColor=default;endArrow=none;endFill=0;" edge="1" parent="1" source="ha73NsI9D_0XP6oYM-8j-125" target="ha73NsI9D_0XP6oYM-8j-126">
          <mxGeometry relative="1" as="geometry" />
        </mxCell>
        <mxCell id="ha73NsI9D_0XP6oYM-8j-149" style="edgeStyle=none;shape=connector;rounded=0;orthogonalLoop=1;jettySize=auto;html=1;labelBackgroundColor=default;strokeColor=default;fontFamily=Helvetica;fontSize=11;fontColor=default;endArrow=none;endFill=0;" edge="1" parent="1" source="ha73NsI9D_0XP6oYM-8j-125" target="ha73NsI9D_0XP6oYM-8j-148">
          <mxGeometry relative="1" as="geometry" />
        </mxCell>
        <mxCell id="ha73NsI9D_0XP6oYM-8j-125" value="Product" style="whiteSpace=wrap;html=1;align=center;fontFamily=Helvetica;fontSize=11;fontColor=default;" vertex="1" parent="1">
          <mxGeometry x="-1130" y="-270" width="100" height="40" as="geometry" />
        </mxCell>
        <mxCell id="ha73NsI9D_0XP6oYM-8j-126" value="name" style="ellipse;whiteSpace=wrap;html=1;align=center;fontFamily=Helvetica;fontSize=11;fontColor=default;" vertex="1" parent="1">
          <mxGeometry x="-1080" y="-160" width="100" height="40" as="geometry" />
        </mxCell>
        <mxCell id="ha73NsI9D_0XP6oYM-8j-128" value="" style="shape=link;html=1;rounded=0;labelBackgroundColor=default;strokeColor=default;fontFamily=Helvetica;fontSize=11;fontColor=default;endArrow=none;endFill=0;" edge="1" source="ha73NsI9D_0XP6oYM-8j-130" parent="1" target="ha73NsI9D_0XP6oYM-8j-121">
          <mxGeometry relative="1" as="geometry">
            <mxPoint x="-920" y="-475" as="sourcePoint" />
            <mxPoint x="-791.4285714285716" y="-510" as="targetPoint" />
          </mxGeometry>
        </mxCell>
        <mxCell id="ha73NsI9D_0XP6oYM-8j-129" value="1" style="resizable=0;html=1;whiteSpace=wrap;align=right;verticalAlign=bottom;fontFamily=Helvetica;fontSize=11;fontColor=default;" connectable="0" vertex="1" parent="ha73NsI9D_0XP6oYM-8j-128">
          <mxGeometry x="1" relative="1" as="geometry">
            <mxPoint x="-40" y="41" as="offset" />
          </mxGeometry>
        </mxCell>
        <mxCell id="ha73NsI9D_0XP6oYM-8j-130" value="Relationship" style="shape=rhombus;perimeter=rhombusPerimeter;whiteSpace=wrap;html=1;align=center;fontFamily=Helvetica;fontSize=11;fontColor=default;" vertex="1" parent="1">
          <mxGeometry x="-980" y="-390" width="120" height="60" as="geometry" />
        </mxCell>
        <mxCell id="ha73NsI9D_0XP6oYM-8j-131" value="" style="shape=link;html=1;rounded=0;labelBackgroundColor=default;strokeColor=default;fontFamily=Helvetica;fontSize=11;fontColor=default;endArrow=none;endFill=0;" edge="1" target="ha73NsI9D_0XP6oYM-8j-130" parent="1" source="ha73NsI9D_0XP6oYM-8j-125">
          <mxGeometry relative="1" as="geometry">
            <mxPoint x="-920" y="-185" as="sourcePoint" />
            <mxPoint x="-920" y="-285" as="targetPoint" />
          </mxGeometry>
        </mxCell>
        <mxCell id="ha73NsI9D_0XP6oYM-8j-132" value="N" style="resizable=0;html=1;whiteSpace=wrap;align=right;verticalAlign=bottom;fontFamily=Helvetica;fontSize=11;fontColor=default;" connectable="0" vertex="1" parent="ha73NsI9D_0XP6oYM-8j-131">
          <mxGeometry x="1" relative="1" as="geometry">
            <mxPoint x="-25" y="58" as="offset" />
          </mxGeometry>
        </mxCell>
        <mxCell id="ha73NsI9D_0XP6oYM-8j-164" style="edgeStyle=none;shape=connector;rounded=0;orthogonalLoop=1;jettySize=auto;html=1;labelBackgroundColor=default;strokeColor=default;fontFamily=Helvetica;fontSize=11;fontColor=default;endArrow=none;endFill=0;" edge="1" parent="1" source="ha73NsI9D_0XP6oYM-8j-133" target="ha73NsI9D_0XP6oYM-8j-163">
          <mxGeometry relative="1" as="geometry" />
        </mxCell>
        <mxCell id="ha73NsI9D_0XP6oYM-8j-133" value="project_employee" style="shape=rhombus;perimeter=rhombusPerimeter;whiteSpace=wrap;html=1;align=center;fontFamily=Helvetica;fontSize=11;fontColor=default;" vertex="1" parent="1">
          <mxGeometry x="-2870" y="-60" width="120" height="60" as="geometry" />
        </mxCell>
        <mxCell id="ha73NsI9D_0XP6oYM-8j-135" value="" style="shape=link;html=1;rounded=0;labelBackgroundColor=default;strokeColor=default;fontFamily=Helvetica;fontSize=11;fontColor=default;endArrow=none;endFill=0;" edge="1" parent="1" source="ha73NsI9D_0XP6oYM-8j-133" target="zPUTQCQw_UNsr4DKGTQt-553">
          <mxGeometry relative="1" as="geometry">
            <mxPoint x="-3000" y="80" as="sourcePoint" />
            <mxPoint x="-2840" y="80" as="targetPoint" />
          </mxGeometry>
        </mxCell>
        <mxCell id="ha73NsI9D_0XP6oYM-8j-136" value="N" style="resizable=0;html=1;whiteSpace=wrap;align=right;verticalAlign=bottom;fontFamily=Helvetica;fontSize=11;fontColor=default;" connectable="0" vertex="1" parent="ha73NsI9D_0XP6oYM-8j-135">
          <mxGeometry x="1" relative="1" as="geometry">
            <mxPoint x="-90" y="130" as="offset" />
          </mxGeometry>
        </mxCell>
        <mxCell id="ha73NsI9D_0XP6oYM-8j-137" value="" style="endArrow=none;html=1;rounded=0;labelBackgroundColor=default;strokeColor=default;fontFamily=Helvetica;fontSize=11;fontColor=default;shape=connector;" edge="1" parent="1" source="zPUTQCQw_UNsr4DKGTQt-442" target="ha73NsI9D_0XP6oYM-8j-133">
          <mxGeometry relative="1" as="geometry">
            <mxPoint x="-3020" y="-50" as="sourcePoint" />
            <mxPoint x="-2860" y="-50" as="targetPoint" />
          </mxGeometry>
        </mxCell>
        <mxCell id="ha73NsI9D_0XP6oYM-8j-138" value="N" style="resizable=0;html=1;whiteSpace=wrap;align=right;verticalAlign=bottom;fontFamily=Helvetica;fontSize=11;fontColor=default;" connectable="0" vertex="1" parent="ha73NsI9D_0XP6oYM-8j-137">
          <mxGeometry x="1" relative="1" as="geometry">
            <mxPoint x="56" y="48" as="offset" />
          </mxGeometry>
        </mxCell>
        <mxCell id="ha73NsI9D_0XP6oYM-8j-139" value="supplier_id" style="ellipse;whiteSpace=wrap;html=1;align=center;fontStyle=4;fontFamily=Helvetica;fontSize=11;fontColor=default;" vertex="1" parent="1">
          <mxGeometry x="-1550" y="-392.5" width="100" height="40" as="geometry" />
        </mxCell>
        <mxCell id="ha73NsI9D_0XP6oYM-8j-142" value="location_id" style="ellipse;whiteSpace=wrap;html=1;align=center;fontStyle=4;fontFamily=Helvetica;fontSize=11;fontColor=default;" vertex="1" parent="1">
          <mxGeometry x="-2110" y="-10" width="100" height="40" as="geometry" />
        </mxCell>
        <mxCell id="ha73NsI9D_0XP6oYM-8j-144" value="city_id" style="ellipse;whiteSpace=wrap;html=1;align=center;fontStyle=4;fontFamily=Helvetica;fontSize=11;fontColor=default;" vertex="1" parent="1">
          <mxGeometry x="-1890" y="-465" width="100" height="40" as="geometry" />
        </mxCell>
        <mxCell id="ha73NsI9D_0XP6oYM-8j-146" value="country_id" style="ellipse;whiteSpace=wrap;html=1;align=center;fontStyle=4;fontFamily=Helvetica;fontSize=11;fontColor=default;" vertex="1" parent="1">
          <mxGeometry x="-2150" y="-780" width="100" height="40" as="geometry" />
        </mxCell>
        <mxCell id="ha73NsI9D_0XP6oYM-8j-148" value="product_id" style="ellipse;whiteSpace=wrap;html=1;align=center;fontStyle=4;fontFamily=Helvetica;fontSize=11;fontColor=default;" vertex="1" parent="1">
          <mxGeometry x="-1180" y="-407" width="100" height="40" as="geometry" />
        </mxCell>
        <mxCell id="ha73NsI9D_0XP6oYM-8j-150" value="category_id" style="ellipse;whiteSpace=wrap;html=1;align=center;fontStyle=4;fontFamily=Helvetica;fontSize=11;fontColor=default;" vertex="1" parent="1">
          <mxGeometry x="-827" y="-555" width="100" height="40" as="geometry" />
        </mxCell>
        <mxCell id="ha73NsI9D_0XP6oYM-8j-152" value="" style="shape=link;html=1;rounded=0;labelBackgroundColor=default;strokeColor=default;fontFamily=Helvetica;fontSize=11;fontColor=default;endArrow=none;endFill=0;" edge="1" parent="1" source="zPUTQCQw_UNsr4DKGTQt-484" target="ha73NsI9D_0XP6oYM-8j-154">
          <mxGeometry relative="1" as="geometry">
            <mxPoint x="-2020" y="275" as="sourcePoint" />
            <mxPoint x="-1950" y="230" as="targetPoint" />
          </mxGeometry>
        </mxCell>
        <mxCell id="ha73NsI9D_0XP6oYM-8j-153" value="N" style="resizable=0;html=1;whiteSpace=wrap;align=right;verticalAlign=bottom;fontFamily=Helvetica;fontSize=11;fontColor=default;" connectable="0" vertex="1" parent="ha73NsI9D_0XP6oYM-8j-152">
          <mxGeometry x="1" relative="1" as="geometry">
            <mxPoint x="-40" y="5" as="offset" />
          </mxGeometry>
        </mxCell>
        <mxCell id="ha73NsI9D_0XP6oYM-8j-154" value="Relationship" style="shape=rhombus;perimeter=rhombusPerimeter;whiteSpace=wrap;html=1;align=center;fontFamily=Helvetica;fontSize=11;fontColor=default;" vertex="1" parent="1">
          <mxGeometry x="-2010" y="200" width="120" height="60" as="geometry" />
        </mxCell>
        <mxCell id="ha73NsI9D_0XP6oYM-8j-155" value="" style="endArrow=none;html=1;rounded=0;labelBackgroundColor=default;strokeColor=default;fontFamily=Helvetica;fontSize=11;fontColor=default;shape=connector;" edge="1" parent="1" source="ha73NsI9D_0XP6oYM-8j-154" target="ha73NsI9D_0XP6oYM-8j-104">
          <mxGeometry relative="1" as="geometry">
            <mxPoint x="-1890" y="230" as="sourcePoint" />
            <mxPoint x="-1730" y="230" as="targetPoint" />
          </mxGeometry>
        </mxCell>
        <mxCell id="ha73NsI9D_0XP6oYM-8j-156" value="N" style="resizable=0;html=1;whiteSpace=wrap;align=right;verticalAlign=bottom;fontFamily=Helvetica;fontSize=11;fontColor=default;" connectable="0" vertex="1" parent="ha73NsI9D_0XP6oYM-8j-155">
          <mxGeometry x="1" relative="1" as="geometry">
            <mxPoint x="-30" y="-7" as="offset" />
          </mxGeometry>
        </mxCell>
        <mxCell id="ha73NsI9D_0XP6oYM-8j-157" value="" style="shape=link;html=1;rounded=0;labelBackgroundColor=default;strokeColor=default;fontFamily=Helvetica;fontSize=11;fontColor=default;endArrow=none;endFill=0;" edge="1" target="ha73NsI9D_0XP6oYM-8j-159" parent="1" source="zPUTQCQw_UNsr4DKGTQt-484">
          <mxGeometry relative="1" as="geometry">
            <mxPoint x="-2320" y="460" as="sourcePoint" />
            <mxPoint x="-2230" y="428" as="targetPoint" />
          </mxGeometry>
        </mxCell>
        <mxCell id="ha73NsI9D_0XP6oYM-8j-158" value="N" style="resizable=0;html=1;whiteSpace=wrap;align=right;verticalAlign=bottom;fontFamily=Helvetica;fontSize=11;fontColor=default;" connectable="0" vertex="1" parent="ha73NsI9D_0XP6oYM-8j-157">
          <mxGeometry x="1" relative="1" as="geometry">
            <mxPoint x="45" y="-10" as="offset" />
          </mxGeometry>
        </mxCell>
        <mxCell id="ha73NsI9D_0XP6oYM-8j-159" value="Relationship" style="shape=rhombus;perimeter=rhombusPerimeter;whiteSpace=wrap;html=1;align=center;fontFamily=Helvetica;fontSize=11;fontColor=default;" vertex="1" parent="1">
          <mxGeometry x="-2420" y="210" width="120" height="60" as="geometry" />
        </mxCell>
        <mxCell id="ha73NsI9D_0XP6oYM-8j-160" value="" style="endArrow=none;html=1;rounded=0;labelBackgroundColor=default;strokeColor=default;fontFamily=Helvetica;fontSize=11;fontColor=default;shape=connector;" edge="1" source="ha73NsI9D_0XP6oYM-8j-159" parent="1" target="zPUTQCQw_UNsr4DKGTQt-442">
          <mxGeometry relative="1" as="geometry">
            <mxPoint x="-2170" y="428" as="sourcePoint" />
            <mxPoint x="-2100" y="435" as="targetPoint" />
          </mxGeometry>
        </mxCell>
        <mxCell id="ha73NsI9D_0XP6oYM-8j-161" value="N" style="resizable=0;html=1;whiteSpace=wrap;align=right;verticalAlign=bottom;fontFamily=Helvetica;fontSize=11;fontColor=default;" connectable="0" vertex="1" parent="ha73NsI9D_0XP6oYM-8j-160">
          <mxGeometry x="1" relative="1" as="geometry">
            <mxPoint x="80" y="-2" as="offset" />
          </mxGeometry>
        </mxCell>
        <mxCell id="ha73NsI9D_0XP6oYM-8j-163" value="hours_worked" style="ellipse;whiteSpace=wrap;html=1;align=center;fontFamily=Helvetica;fontSize=11;fontColor=default;" vertex="1" parent="1">
          <mxGeometry x="-3040" y="-70" width="100" height="40" as="geometry" />
        </mxCell>
        <mxCell id="ha73NsI9D_0XP6oYM-8j-165" value="&lt;b&gt;Product_supplier:&lt;/b&gt;&lt;br&gt;quantity&lt;br&gt;discount&lt;br&gt;price" style="shape=note;size=20;whiteSpace=wrap;html=1;fontFamily=Helvetica;fontSize=11;fontColor=default;" vertex="1" parent="1">
          <mxGeometry x="-1245" y="-110" width="110" height="80" as="geometry" />
        </mxCell>
        <mxCell id="ha73NsI9D_0XP6oYM-8j-166" value="product_supplier" style="shape=rhombus;perimeter=rhombusPerimeter;whiteSpace=wrap;html=1;align=center;fontFamily=Helvetica;fontSize=11;fontColor=default;" vertex="1" parent="1">
          <mxGeometry x="-1390" y="-240" width="120" height="60" as="geometry" />
        </mxCell>
        <mxCell id="ha73NsI9D_0XP6oYM-8j-167" value="" style="shape=link;html=1;rounded=0;labelBackgroundColor=default;strokeColor=default;fontFamily=Helvetica;fontSize=11;fontColor=default;endArrow=none;endFill=0;" edge="1" parent="1" source="ha73NsI9D_0XP6oYM-8j-101" target="ha73NsI9D_0XP6oYM-8j-166">
          <mxGeometry relative="1" as="geometry">
            <mxPoint x="-1503" y="-190" as="sourcePoint" />
            <mxPoint x="-1343" y="-190" as="targetPoint" />
          </mxGeometry>
        </mxCell>
        <mxCell id="ha73NsI9D_0XP6oYM-8j-168" value="N" style="resizable=0;html=1;whiteSpace=wrap;align=right;verticalAlign=bottom;fontFamily=Helvetica;fontSize=11;fontColor=default;" connectable="0" vertex="1" parent="ha73NsI9D_0XP6oYM-8j-167">
          <mxGeometry x="1" relative="1" as="geometry">
            <mxPoint x="-39" y="-5" as="offset" />
          </mxGeometry>
        </mxCell>
        <mxCell id="ha73NsI9D_0XP6oYM-8j-169" value="" style="shape=link;html=1;rounded=0;labelBackgroundColor=default;strokeColor=default;fontFamily=Helvetica;fontSize=11;fontColor=default;endArrow=none;endFill=0;" edge="1" parent="1" source="ha73NsI9D_0XP6oYM-8j-166" target="ha73NsI9D_0XP6oYM-8j-125">
          <mxGeometry relative="1" as="geometry">
            <mxPoint x="-1210" y="-190" as="sourcePoint" />
            <mxPoint x="-1050" y="-190" as="targetPoint" />
          </mxGeometry>
        </mxCell>
        <mxCell id="ha73NsI9D_0XP6oYM-8j-170" value="N" style="resizable=0;html=1;whiteSpace=wrap;align=right;verticalAlign=bottom;fontFamily=Helvetica;fontSize=11;fontColor=default;" connectable="0" vertex="1" parent="ha73NsI9D_0XP6oYM-8j-169">
          <mxGeometry x="1" relative="1" as="geometry">
            <mxPoint x="-60" y="2" as="offset" />
          </mxGeometry>
        </mxCell>
        <mxCell id="ha73NsI9D_0XP6oYM-8j-172" style="edgeStyle=none;shape=connector;rounded=0;orthogonalLoop=1;jettySize=auto;html=1;labelBackgroundColor=default;strokeColor=default;fontFamily=Helvetica;fontSize=11;fontColor=default;endArrow=none;endFill=0;" edge="1" parent="1" source="ha73NsI9D_0XP6oYM-8j-171" target="ha73NsI9D_0XP6oYM-8j-166">
          <mxGeometry relative="1" as="geometry" />
        </mxCell>
        <mxCell id="ha73NsI9D_0XP6oYM-8j-171" value="quantity" style="ellipse;whiteSpace=wrap;html=1;align=center;fontFamily=Helvetica;fontSize=11;fontColor=default;" vertex="1" parent="1">
          <mxGeometry x="-1390" y="-135" width="100" height="40" as="geometry" />
        </mxCell>
        <mxCell id="ha73NsI9D_0XP6oYM-8j-174" style="edgeStyle=none;shape=connector;rounded=0;orthogonalLoop=1;jettySize=auto;html=1;labelBackgroundColor=default;strokeColor=default;fontFamily=Helvetica;fontSize=11;fontColor=default;endArrow=none;endFill=0;" edge="1" parent="1" source="ha73NsI9D_0XP6oYM-8j-173" target="ha73NsI9D_0XP6oYM-8j-166">
          <mxGeometry relative="1" as="geometry" />
        </mxCell>
        <mxCell id="ha73NsI9D_0XP6oYM-8j-173" value="discount" style="ellipse;whiteSpace=wrap;html=1;align=center;fontFamily=Helvetica;fontSize=11;fontColor=default;" vertex="1" parent="1">
          <mxGeometry x="-1330" y="-352" width="100" height="40" as="geometry" />
        </mxCell>
        <mxCell id="ha73NsI9D_0XP6oYM-8j-176" style="edgeStyle=none;shape=connector;rounded=0;orthogonalLoop=1;jettySize=auto;html=1;labelBackgroundColor=default;strokeColor=default;fontFamily=Helvetica;fontSize=11;fontColor=default;endArrow=none;endFill=0;" edge="1" parent="1" source="ha73NsI9D_0XP6oYM-8j-175" target="ha73NsI9D_0XP6oYM-8j-166">
          <mxGeometry relative="1" as="geometry" />
        </mxCell>
        <mxCell id="ha73NsI9D_0XP6oYM-8j-175" value="price" style="ellipse;whiteSpace=wrap;html=1;align=center;fontFamily=Helvetica;fontSize=11;fontColor=default;" vertex="1" parent="1">
          <mxGeometry x="-1240" y="-170" width="100" height="40" as="geometry" />
        </mxCell>
        <mxCell id="ha73NsI9D_0XP6oYM-8j-177" value="&lt;b&gt;project_employee:&lt;/b&gt;&lt;br&gt;hours_worked" style="shape=note;size=20;whiteSpace=wrap;html=1;fontFamily=Helvetica;fontSize=11;fontColor=default;" vertex="1" parent="1">
          <mxGeometry x="-3020" y="-22.5" width="104" height="60" as="geometry" />
        </mxCell>
      </root>
    </mxGraphModel>
  </diagram>
</mxfile>
